<svg width="824" height="161" viewBox="0 0 824 161" fill="none" xmlns="http://www.w3.org/2000/svg">
<rect width="824" height="161" fill="white"/>
<rect x="40" y="40" width="141" height="81" rx="20" fill="#00B43F"/>
<rect x="241" y="40" width="141" height="81" rx="20" fill="#85E2A6"/>
<rect x="442" y="40" width="141" height="81" rx="20" fill="#00B43F"/>
<rect x="643" y="40" width="141" height="81" rx="20" fill="#85E2A6"/>
<path d="M225.427 81.2049C223.598 81.1151 221.902 81.0253 220.206 80.9516C219.907 80.939 219.605 80.9821 219.305 81.0073C219.029 81.0307 218.75 81.0486 218.475 81.0917C218.098 81.1492 217.728 81.2535 217.349 81.2912C216.991 81.3271 216.626 81.2858 216.267 81.3074C215.266 81.3685 214.267 81.4637 213.266 81.4996C212.99 81.5104 212.709 81.3128 212.427 81.3002C211.529 81.2588 210.614 81.1654 209.73 81.2768C209.048 81.3613 208.636 81.3703 208.643 80.5509C208.643 80.4934 208.46 80.4359 208.275 80.3281C208.352 81.0846 207.847 81.0432 207.396 81.2948C206.455 81.823 205.777 81.4475 204.962 81.187C204.62 81.0774 204.175 81.3235 203.772 81.3756C203.262 81.4439 202.748 81.4781 202.234 81.532C202.053 81.5517 201.873 81.6038 201.691 81.6074C201.384 81.6146 201.077 81.6074 200.771 81.5823C200.524 81.5625 200.277 81.4655 200.033 81.4745C198.897 81.5194 197.76 81.5607 196.628 81.6613C195.415 81.7709 194.206 81.5948 192.973 81.8176C192.389 81.9237 191.653 81.2391 191.013 80.8636C190.963 80.8348 191.063 80.3048 191.214 80.2203C192.255 79.6363 193.288 78.9446 194.589 79.4818C194.697 79.5267 194.914 79.3686 195.052 79.268C196.109 78.49 197.279 78.5026 198.499 78.7074C198.772 78.7541 199.196 78.7451 199.336 78.5798C199.843 77.9869 200.349 78.2744 200.939 78.3552C201.652 78.4541 202.412 78.3858 203.131 78.26C205.391 77.8665 207.648 77.8827 209.917 78.1216C210.356 78.1684 210.898 77.8845 211.243 78.057C212.014 78.4433 212.738 78.0372 213.482 78.1181C214.138 78.1899 214.817 78.0462 215.487 77.9977C215.604 77.9887 215.733 77.9528 215.834 77.9905C216.98 78.4289 218.116 77.9779 219.255 77.9905C220.348 78.0013 221.433 78.039 222.536 78.3732C223.844 78.7703 225.265 78.7954 226.636 78.9823L226.692 78.7092C225.826 78.4019 224.958 78.1019 224.099 77.7785C223.957 77.7246 223.866 77.5467 223.731 77.4586C223.339 77.2017 222.942 76.9555 222.54 76.7166C222.34 76.598 222.13 76.4973 221.92 76.4003C221.557 76.2332 221.201 76.0481 220.824 75.9206C219.437 75.448 218.217 74.6538 217.05 73.8111C216.714 73.5668 216.236 73.3619 216.059 73.0834C215.759 72.6145 215.654 71.9533 215.683 71.3837C215.69 71.2292 216.499 70.9381 216.882 71.0117C217.746 71.1788 218.606 71.4627 219.406 71.8311C220.389 72.2839 221.309 72.8732 222.258 73.3997C222.414 73.4859 222.572 73.5991 222.741 73.6279C223.713 73.7896 224.489 74.228 225.316 74.8155C226.866 75.917 228.622 76.7345 230.313 77.6293C230.99 77.9869 231.177 78.4397 230.828 79.1404C230.699 79.401 230.686 79.7208 230.548 79.9723C230.273 80.4665 229.946 80.9318 229.642 81.4098C229.204 82.1015 228.778 82.8023 228.322 83.4815C228.142 83.7492 227.939 84.0403 227.677 84.2038C226.525 84.9225 225.945 86.0707 225.255 87.1667C224.929 87.6842 224.29 87.9932 223.826 88.4334C223.303 88.9312 222.874 89.5439 222.299 89.9625C221.857 90.2859 221.253 90.5393 220.719 90.5447C220.107 90.5501 219.9 89.9661 220.053 89.4109C220.339 88.3616 220.597 87.3356 221.591 86.5953C222.081 86.2306 222.27 85.449 223.034 85.3214C223.073 85.3142 223.124 85.2298 223.125 85.1795C223.201 83.6558 224.399 82.8023 225.188 81.7045C225.285 81.5679 225.337 81.399 225.429 81.2049H225.427Z" fill="#00B43F"/>
<path d="M426.427 81.2049C424.598 81.1151 422.902 81.0253 421.206 80.9516C420.907 80.939 420.605 80.9821 420.305 81.0073C420.029 81.0307 419.75 81.0486 419.475 81.0917C419.098 81.1492 418.728 81.2535 418.349 81.2912C417.991 81.3271 417.626 81.2858 417.267 81.3074C416.266 81.3685 415.267 81.4637 414.266 81.4996C413.99 81.5104 413.709 81.3128 413.427 81.3002C412.529 81.2588 411.614 81.1654 410.73 81.2768C410.048 81.3613 409.636 81.3703 409.643 80.5509C409.643 80.4934 409.46 80.4359 409.275 80.3281C409.352 81.0846 408.847 81.0432 408.396 81.2948C407.455 81.823 406.777 81.4475 405.962 81.187C405.62 81.0774 405.175 81.3235 404.772 81.3756C404.262 81.4439 403.748 81.4781 403.234 81.532C403.053 81.5517 402.873 81.6038 402.691 81.6074C402.384 81.6146 402.077 81.6074 401.771 81.5823C401.524 81.5625 401.277 81.4655 401.033 81.4745C399.897 81.5194 398.76 81.5607 397.628 81.6613C396.415 81.7709 395.206 81.5948 393.973 81.8176C393.389 81.9237 392.653 81.2391 392.013 80.8636C391.963 80.8348 392.063 80.3048 392.214 80.2203C393.255 79.6363 394.288 78.9446 395.589 79.4818C395.697 79.5267 395.914 79.3686 396.052 79.268C397.109 78.49 398.279 78.5026 399.499 78.7074C399.772 78.7541 400.196 78.7451 400.336 78.5798C400.843 77.9869 401.349 78.2744 401.939 78.3552C402.652 78.4541 403.412 78.3858 404.131 78.26C406.391 77.8665 408.648 77.8827 410.917 78.1216C411.356 78.1684 411.898 77.8845 412.243 78.057C413.014 78.4433 413.738 78.0372 414.482 78.1181C415.138 78.1899 415.817 78.0462 416.487 77.9977C416.604 77.9887 416.733 77.9528 416.834 77.9905C417.98 78.4289 419.116 77.9779 420.255 77.9905C421.348 78.0013 422.433 78.039 423.536 78.3732C424.844 78.7703 426.265 78.7954 427.636 78.9823L427.692 78.7092C426.826 78.4019 425.958 78.1019 425.099 77.7785C424.957 77.7246 424.866 77.5467 424.731 77.4586C424.339 77.2017 423.942 76.9555 423.54 76.7166C423.34 76.598 423.13 76.4973 422.92 76.4003C422.557 76.2332 422.201 76.0481 421.824 75.9206C420.437 75.448 419.217 74.6538 418.05 73.8111C417.714 73.5668 417.236 73.3619 417.059 73.0834C416.759 72.6145 416.654 71.9533 416.683 71.3837C416.69 71.2292 417.499 70.9381 417.882 71.0117C418.746 71.1788 419.606 71.4627 420.406 71.8311C421.389 72.2839 422.309 72.8732 423.258 73.3997C423.414 73.4859 423.572 73.5991 423.741 73.6279C424.713 73.7896 425.489 74.228 426.316 74.8155C427.866 75.917 429.622 76.7345 431.313 77.6293C431.99 77.9869 432.177 78.4397 431.828 79.1404C431.699 79.401 431.686 79.7208 431.548 79.9723C431.273 80.4665 430.946 80.9318 430.642 81.4098C430.204 82.1015 429.778 82.8023 429.322 83.4815C429.142 83.7492 428.939 84.0403 428.677 84.2038C427.525 84.9225 426.945 86.0707 426.255 87.1667C425.929 87.6842 425.29 87.9932 424.826 88.4334C424.303 88.9312 423.874 89.5439 423.299 89.9625C422.857 90.2859 422.253 90.5393 421.719 90.5447C421.107 90.5501 420.9 89.9661 421.053 89.4109C421.339 88.3616 421.597 87.3356 422.591 86.5953C423.081 86.2306 423.27 85.449 424.034 85.3214C424.073 85.3142 424.124 85.2298 424.125 85.1795C424.201 83.6558 425.399 82.8023 426.188 81.7045C426.285 81.5679 426.337 81.399 426.429 81.2049H426.427Z" fill="#00B43F"/>
<path d="M627.427 81.2049C625.598 81.1151 623.902 81.0253 622.206 80.9516C621.907 80.939 621.605 80.9821 621.305 81.0073C621.029 81.0307 620.75 81.0486 620.475 81.0917C620.098 81.1492 619.728 81.2535 619.349 81.2912C618.991 81.3271 618.626 81.2858 618.267 81.3074C617.266 81.3685 616.267 81.4637 615.266 81.4996C614.99 81.5104 614.709 81.3128 614.427 81.3002C613.529 81.2588 612.614 81.1654 611.73 81.2768C611.048 81.3613 610.636 81.3703 610.643 80.5509C610.643 80.4934 610.46 80.4359 610.275 80.3281C610.352 81.0846 609.847 81.0432 609.396 81.2948C608.455 81.823 607.777 81.4475 606.962 81.187C606.62 81.0774 606.175 81.3235 605.772 81.3756C605.262 81.4439 604.748 81.4781 604.234 81.532C604.053 81.5517 603.873 81.6038 603.691 81.6074C603.384 81.6146 603.077 81.6074 602.771 81.5823C602.524 81.5625 602.277 81.4655 602.033 81.4745C600.897 81.5194 599.76 81.5607 598.628 81.6613C597.415 81.7709 596.206 81.5948 594.973 81.8176C594.389 81.9237 593.653 81.2391 593.013 80.8636C592.963 80.8348 593.063 80.3048 593.214 80.2203C594.255 79.6363 595.288 78.9446 596.589 79.4818C596.697 79.5267 596.914 79.3686 597.052 79.268C598.109 78.49 599.279 78.5026 600.499 78.7074C600.772 78.7541 601.196 78.7451 601.336 78.5798C601.843 77.9869 602.349 78.2744 602.939 78.3552C603.652 78.4541 604.412 78.3858 605.131 78.26C607.391 77.8665 609.648 77.8827 611.917 78.1216C612.356 78.1684 612.898 77.8845 613.243 78.057C614.014 78.4433 614.738 78.0372 615.482 78.1181C616.138 78.1899 616.817 78.0462 617.487 77.9977C617.604 77.9887 617.733 77.9528 617.834 77.9905C618.98 78.4289 620.116 77.9779 621.255 77.9905C622.348 78.0013 623.433 78.039 624.536 78.3732C625.844 78.7703 627.265 78.7954 628.636 78.9823L628.692 78.7092C627.826 78.4019 626.958 78.1019 626.099 77.7785C625.957 77.7246 625.866 77.5467 625.731 77.4586C625.339 77.2017 624.942 76.9555 624.54 76.7166C624.34 76.598 624.13 76.4973 623.92 76.4003C623.557 76.2332 623.201 76.0481 622.824 75.9206C621.437 75.448 620.217 74.6538 619.05 73.8111C618.714 73.5668 618.236 73.3619 618.059 73.0834C617.759 72.6145 617.654 71.9533 617.683 71.3837C617.69 71.2292 618.499 70.9381 618.882 71.0117C619.746 71.1788 620.606 71.4627 621.406 71.8311C622.389 72.2839 623.309 72.8732 624.258 73.3997C624.414 73.4859 624.572 73.5991 624.741 73.6279C625.713 73.7896 626.489 74.228 627.316 74.8155C628.866 75.917 630.622 76.7345 632.313 77.6293C632.99 77.9869 633.177 78.4397 632.828 79.1404C632.699 79.401 632.686 79.7208 632.548 79.9723C632.273 80.4665 631.946 80.9318 631.642 81.4098C631.204 82.1015 630.778 82.8023 630.322 83.4815C630.142 83.7492 629.939 84.0403 629.677 84.2038C628.525 84.9225 627.945 86.0707 627.255 87.1667C626.929 87.6842 626.29 87.9932 625.826 88.4334C625.303 88.9312 624.874 89.5439 624.299 89.9625C623.857 90.2859 623.253 90.5393 622.719 90.5447C622.107 90.5501 621.9 89.9661 622.053 89.4109C622.339 88.3616 622.597 87.3356 623.591 86.5953C624.081 86.2306 624.27 85.449 625.034 85.3214C625.073 85.3142 625.124 85.2298 625.125 85.1795C625.201 83.6558 626.399 82.8023 627.188 81.7045C627.285 81.5679 627.337 81.399 627.429 81.2049H627.427Z" fill="#00B43F"/>
<path d="M52.9411 74.3636H55.3956V81.6818H55.4922L60.5206 74.3636H62.674V86H60.2138V78.6761H60.1286L55.0717 86H52.9411V74.3636ZM68.6044 86.1705C67.7105 86.1705 66.9415 85.9811 66.2976 85.6023C65.6574 85.2197 65.165 84.6894 64.8203 84.0114C64.4794 83.3333 64.3089 82.553 64.3089 81.6705C64.3089 80.7765 64.4813 79.9924 64.826 79.3182C65.1745 78.6402 65.6688 78.1117 66.3089 77.733C66.9491 77.3504 67.7105 77.1591 68.593 77.1591C69.3544 77.1591 70.0211 77.2973 70.593 77.5739C71.165 77.8504 71.6177 78.2386 71.951 78.7386C72.2843 79.2386 72.468 79.8258 72.5021 80.5H70.218C70.1536 80.0644 69.9832 79.714 69.7067 79.4489C69.4339 79.1799 69.076 79.0455 68.6328 79.0455C68.2578 79.0455 67.9302 79.1477 67.6499 79.3523C67.3733 79.553 67.1574 79.8466 67.0021 80.233C66.8468 80.6193 66.7692 81.0871 66.7692 81.6364C66.7692 82.1932 66.8449 82.6667 66.9964 83.0568C67.1518 83.447 67.3696 83.7443 67.6499 83.9489C67.9302 84.1534 68.2578 84.2557 68.6328 84.2557C68.9093 84.2557 69.1574 84.1989 69.3771 84.0852C69.6006 83.9716 69.7843 83.8068 69.9283 83.5909C70.076 83.3712 70.1726 83.108 70.218 82.8011H72.5021C72.4643 83.4678 72.2824 84.0549 71.9567 84.5625C71.6347 85.0663 71.1896 85.4602 70.6214 85.7443C70.0533 86.0284 69.3809 86.1705 68.6044 86.1705ZM76.0277 77.2727L77.63 80.3239L79.272 77.2727H81.755L79.2266 81.6364L81.8232 86H79.3516L77.63 82.983L75.9368 86H73.4368L76.0277 81.6364L73.5277 77.2727H76.0277ZM86.8232 86.1705C85.9406 86.1705 85.1773 85.983 84.5334 85.608C83.8932 85.2292 83.3989 84.7027 83.0504 84.0284C82.7019 83.3504 82.5277 82.5644 82.5277 81.6705C82.5277 80.7689 82.7019 79.9811 83.0504 79.3068C83.3989 78.6288 83.8932 78.1023 84.5334 77.7273C85.1773 77.3485 85.9406 77.1591 86.8232 77.1591C87.7057 77.1591 88.4671 77.3485 89.1072 77.7273C89.7512 78.1023 90.2474 78.6288 90.5959 79.3068C90.9444 79.9811 91.1186 80.7689 91.1186 81.6705C91.1186 82.5644 90.9444 83.3504 90.5959 84.0284C90.2474 84.7027 89.7512 85.2292 89.1072 85.608C88.4671 85.983 87.7057 86.1705 86.8232 86.1705ZM86.8345 84.2955C87.236 84.2955 87.5713 84.1818 87.8402 83.9545C88.1091 83.7235 88.3118 83.4091 88.4482 83.0114C88.5883 82.6136 88.6584 82.161 88.6584 81.6534C88.6584 81.1458 88.5883 80.6932 88.4482 80.2955C88.3118 79.8977 88.1091 79.5833 87.8402 79.3523C87.5713 79.1212 87.236 79.0057 86.8345 79.0057C86.4292 79.0057 86.0883 79.1212 85.8118 79.3523C85.5391 79.5833 85.3326 79.8977 85.1925 80.2955C85.0561 80.6932 84.9879 81.1458 84.9879 81.6534C84.9879 82.161 85.0561 82.6136 85.1925 83.0114C85.3326 83.4091 85.5391 83.7235 85.8118 83.9545C86.0883 84.1818 86.4292 84.2955 86.8345 84.2955ZM92.0107 88.5568V84.0795H92.6811C92.8743 83.9583 93.0296 83.7652 93.147 83.5C93.2682 83.2348 93.3667 82.9223 93.4425 82.5625C93.522 82.2027 93.5826 81.8144 93.6243 81.3977C93.6697 80.9773 93.7095 80.553 93.7436 80.125L93.9709 77.2727H100.664V84.0795H102.016V88.5568H99.7095V86H94.3743V88.5568H92.0107ZM95.0902 84.0795H98.38V79.1364H96.0277L95.9368 80.125C95.8724 81.0568 95.7796 81.8485 95.6584 82.5C95.5372 83.1477 95.3478 83.6742 95.0902 84.0795ZM109.501 80.6705V82.5739H104.944V80.6705H109.501ZM105.739 77.2727V86H103.427V77.2727H105.739ZM111.018 77.2727V86H108.722V77.2727H111.018ZM114.413 79.9545H117.021C118.176 79.9545 119.077 80.2311 119.725 80.7841C120.373 81.3333 120.697 82.0682 120.697 82.9886C120.697 83.5871 120.551 84.1136 120.259 84.5682C119.968 85.0189 119.547 85.3712 118.998 85.625C118.449 85.875 117.79 86 117.021 86H112.896V77.2727H115.208V84.0966H117.021C117.426 84.0966 117.759 83.9943 118.021 83.7898C118.282 83.5852 118.415 83.3239 118.418 83.0057C118.415 82.6686 118.282 82.3939 118.021 82.1818C117.759 81.9659 117.426 81.858 117.021 81.858H114.413V79.9545ZM121.634 86V77.2727H124.055V86H121.634ZM128.302 82.8068L131.444 77.2727H133.83V86H131.523V80.4489L128.393 86H125.989V77.2727H128.302V82.8068ZM131.029 74.2273H132.717C132.713 74.9167 132.457 75.4716 131.95 75.892C131.446 76.3125 130.764 76.5227 129.904 76.5227C129.04 76.5227 128.357 76.3125 127.853 75.892C127.349 75.4716 127.097 74.9167 127.097 74.2273H128.773C128.77 74.4886 128.853 74.7235 129.023 74.9318C129.198 75.1402 129.491 75.2443 129.904 75.2443C130.306 75.2443 130.594 75.142 130.768 74.9375C130.942 74.733 131.029 74.4962 131.029 74.2273ZM139.474 86V77.2727H141.894V80.6591H142.576L144.951 77.2727H147.792L144.707 81.6023L147.826 86H144.951L142.798 82.9034H141.894V86H139.474ZM152.433 86.1705C151.55 86.1705 150.787 85.983 150.143 85.608C149.503 85.2292 149.008 84.7027 148.66 84.0284C148.311 83.3504 148.137 82.5644 148.137 81.6705C148.137 80.7689 148.311 79.9811 148.66 79.3068C149.008 78.6288 149.503 78.1023 150.143 77.7273C150.787 77.3485 151.55 77.1591 152.433 77.1591C153.315 77.1591 154.076 77.3485 154.717 77.7273C155.361 78.1023 155.857 78.6288 156.205 79.3068C156.554 79.9811 156.728 80.7689 156.728 81.6705C156.728 82.5644 156.554 83.3504 156.205 84.0284C155.857 84.7027 155.361 85.2292 154.717 85.608C154.076 85.983 153.315 86.1705 152.433 86.1705ZM152.444 84.2955C152.845 84.2955 153.181 84.1818 153.45 83.9545C153.719 83.7235 153.921 83.4091 154.058 83.0114C154.198 82.6136 154.268 82.161 154.268 81.6534C154.268 81.1458 154.198 80.6932 154.058 80.2955C153.921 79.8977 153.719 79.5833 153.45 79.3523C153.181 79.1212 152.845 79.0057 152.444 79.0057C152.039 79.0057 151.698 79.1212 151.421 79.3523C151.148 79.5833 150.942 79.8977 150.802 80.2955C150.665 80.6932 150.597 81.1458 150.597 81.6534C150.597 82.161 150.665 82.6136 150.802 83.0114C150.942 83.4091 151.148 83.7235 151.421 83.9545C151.698 84.1818 152.039 84.2955 152.444 84.2955ZM157.62 88.5568V84.0795H158.29C158.484 83.9583 158.639 83.7652 158.756 83.5C158.878 83.2348 158.976 82.9223 159.052 82.5625C159.131 82.2027 159.192 81.8144 159.234 81.3977C159.279 80.9773 159.319 80.553 159.353 80.125L159.58 77.2727H166.273V84.0795H167.626V88.5568H165.319V86H159.984V88.5568H157.62ZM160.7 84.0795H163.989V79.1364H161.637L161.546 80.125C161.482 81.0568 161.389 81.8485 161.268 82.5C161.147 83.1477 160.957 83.6742 160.7 84.0795Z" fill="white"/>
<path d="M270.465 86L266.727 81.0398H265.886V86H263.425V74.3636H265.886V79.0114H266.38L270.244 74.3636H273.306L268.766 79.7614L273.516 86H270.465ZM278.011 86.1705C277.128 86.1705 276.365 85.983 275.721 85.608C275.081 85.2292 274.586 84.7027 274.238 84.0284C273.889 83.3504 273.715 82.5644 273.715 81.6705C273.715 80.7689 273.889 79.9811 274.238 79.3068C274.586 78.6288 275.081 78.1023 275.721 77.7273C276.365 77.3485 277.128 77.1591 278.011 77.1591C278.893 77.1591 279.655 77.3485 280.295 77.7273C280.939 78.1023 281.435 78.6288 281.783 79.3068C282.132 79.9811 282.306 80.7689 282.306 81.6705C282.306 82.5644 282.132 83.3504 281.783 84.0284C281.435 84.7027 280.939 85.2292 280.295 85.608C279.655 85.983 278.893 86.1705 278.011 86.1705ZM278.022 84.2955C278.424 84.2955 278.759 84.1818 279.028 83.9545C279.297 83.7235 279.499 83.4091 279.636 83.0114C279.776 82.6136 279.846 82.161 279.846 81.6534C279.846 81.1458 279.776 80.6932 279.636 80.2955C279.499 79.8977 279.297 79.5833 279.028 79.3523C278.759 79.1212 278.424 79.0057 278.022 79.0057C277.617 79.0057 277.276 79.1212 276.999 79.3523C276.727 79.5833 276.52 79.8977 276.38 80.2955C276.244 80.6932 276.175 81.1458 276.175 81.6534C276.175 82.161 276.244 82.6136 276.38 83.0114C276.52 83.4091 276.727 83.7235 276.999 83.9545C277.276 84.1818 277.617 84.2955 278.022 84.2955ZM289.039 83.3239L291.403 77.2727H293.244L289.84 86H288.232L284.908 77.2727H286.744L289.039 83.3239ZM286.192 77.2727V86H283.88V77.2727H286.192ZM292.005 86V77.2727H294.289V86H292.005ZM296.161 86V77.2727H303.792V86H301.479V79.1761H298.445V86H296.161ZM308.036 82.8068L311.178 77.2727H313.565V86H311.258V80.4489L308.127 86H305.724V77.2727H308.036V82.8068ZM314.994 86L314.982 84.0795H315.272C315.477 84.0795 315.653 84.0303 315.8 83.9318C315.952 83.8295 316.077 83.6648 316.175 83.4375C316.274 83.2102 316.352 82.9091 316.408 82.5341C316.465 82.1553 316.503 81.6894 316.522 81.1364L316.664 77.2727H323.3V86H320.994V79.1761H318.84L318.704 81.8409C318.67 82.572 318.581 83.2008 318.437 83.7273C318.297 84.2538 318.102 84.6856 317.852 85.0227C317.602 85.3561 317.3 85.6023 316.948 85.7614C316.596 85.9205 316.187 86 315.721 86H314.994ZM330.29 86V79.1705H328.654C328.211 79.1705 327.874 79.2727 327.643 79.4773C327.412 79.6818 327.298 79.9242 327.302 80.2045C327.298 80.4886 327.408 80.7292 327.631 80.9261C327.859 81.1193 328.192 81.2159 328.631 81.2159H331.097V82.8523H328.631C327.885 82.8523 327.239 82.7386 326.694 82.5114C326.148 82.2841 325.728 81.9678 325.433 81.5625C325.137 81.1534 324.991 80.678 324.995 80.1364C324.991 79.5682 325.137 79.0701 325.433 78.642C325.728 78.2102 326.15 77.875 326.7 77.6364C327.253 77.3939 327.904 77.2727 328.654 77.2727H332.546V86H330.29ZM324.745 86L327.171 81.4545H329.484L327.063 86H324.745ZM333.55 79.1761V77.2727H341.46V79.1761H338.647V86H336.34V79.1761H333.55ZM346.558 86.1705C345.675 86.1705 344.912 85.983 344.268 85.608C343.628 85.2292 343.133 84.7027 342.785 84.0284C342.436 83.3504 342.262 82.5644 342.262 81.6705C342.262 80.7689 342.436 79.9811 342.785 79.3068C343.133 78.6288 343.628 78.1023 344.268 77.7273C344.912 77.3485 345.675 77.1591 346.558 77.1591C347.44 77.1591 348.201 77.3485 348.842 77.7273C349.486 78.1023 349.982 78.6288 350.33 79.3068C350.679 79.9811 350.853 80.7689 350.853 81.6705C350.853 82.5644 350.679 83.3504 350.33 84.0284C349.982 84.7027 349.486 85.2292 348.842 85.608C348.201 85.983 347.44 86.1705 346.558 86.1705ZM346.569 84.2955C346.97 84.2955 347.306 84.1818 347.575 83.9545C347.844 83.7235 348.046 83.4091 348.183 83.0114C348.323 82.6136 348.393 82.161 348.393 81.6534C348.393 81.1458 348.323 80.6932 348.183 80.2955C348.046 79.8977 347.844 79.5833 347.575 79.3523C347.306 79.1212 346.97 79.0057 346.569 79.0057C346.164 79.0057 345.823 79.1212 345.546 79.3523C345.273 79.5833 345.067 79.8977 344.927 80.2955C344.79 80.6932 344.722 81.1458 344.722 81.6534C344.722 82.161 344.79 82.6136 344.927 83.0114C345.067 83.4091 345.273 83.7235 345.546 83.9545C345.823 84.1818 346.164 84.2955 346.569 84.2955ZM352.427 89.2727V77.2727H354.813V78.7386H354.921C355.027 78.5038 355.181 78.2652 355.381 78.0227C355.586 77.7765 355.851 77.572 356.177 77.4091C356.506 77.2424 356.915 77.1591 357.404 77.1591C358.04 77.1591 358.628 77.3258 359.165 77.6591C359.703 77.9886 360.133 78.4867 360.455 79.1534C360.777 79.8163 360.938 80.6477 360.938 81.6477C360.938 82.6212 360.781 83.4432 360.467 84.1136C360.156 84.7803 359.732 85.286 359.194 85.6307C358.66 85.9716 358.061 86.142 357.398 86.142C356.929 86.142 356.529 86.0644 356.2 85.9091C355.874 85.7538 355.607 85.5587 355.398 85.3239C355.19 85.0852 355.031 84.8447 354.921 84.6023H354.847V89.2727H352.427ZM354.796 81.6364C354.796 82.1553 354.868 82.608 355.012 82.9943C355.156 83.3807 355.364 83.6818 355.637 83.8977C355.91 84.1098 356.241 84.2159 356.631 84.2159C357.025 84.2159 357.359 84.108 357.631 83.892C357.904 83.6723 358.111 83.3693 358.251 82.983C358.395 82.5928 358.467 82.1439 358.467 81.6364C358.467 81.1326 358.397 80.6894 358.256 80.3068C358.116 79.9242 357.91 79.625 357.637 79.4091C357.364 79.1932 357.029 79.0852 356.631 79.0852C356.237 79.0852 355.904 79.1894 355.631 79.3977C355.362 79.6061 355.156 79.9015 355.012 80.2841C354.868 80.6667 354.796 81.1174 354.796 81.6364Z" fill="white"/>
<path d="M452.754 68.3636H455.788L458.992 76.1818H459.129L462.333 68.3636H465.367V80H462.981V72.4261H462.884L459.873 79.9432H458.248L455.237 72.3977H455.14V80H452.754V68.3636ZM469.837 80.1648C469.281 80.1648 468.784 80.0682 468.349 79.875C467.913 79.678 467.568 79.3883 467.315 79.0057C467.065 78.6193 466.94 78.1383 466.94 77.5625C466.94 77.0777 467.029 76.6705 467.207 76.3409C467.385 76.0114 467.627 75.7462 467.934 75.5455C468.241 75.3447 468.589 75.1932 468.979 75.0909C469.373 74.9886 469.786 74.9167 470.218 74.875C470.726 74.822 471.135 74.7727 471.445 74.7273C471.756 74.678 471.981 74.6061 472.121 74.5114C472.262 74.4167 472.332 74.2765 472.332 74.0909V74.0568C472.332 73.697 472.218 73.4186 471.991 73.2216C471.767 73.0246 471.449 72.9261 471.036 72.9261C470.601 72.9261 470.254 73.0227 469.996 73.2159C469.739 73.4053 469.568 73.6439 469.485 73.9318L467.246 73.75C467.36 73.2197 467.584 72.7614 467.917 72.375C468.25 71.9848 468.68 71.6856 469.207 71.4773C469.737 71.2652 470.351 71.1591 471.048 71.1591C471.532 71.1591 471.996 71.2159 472.44 71.3295C472.887 71.4432 473.282 71.6193 473.627 71.858C473.976 72.0966 474.25 72.4034 474.451 72.7784C474.652 73.1496 474.752 73.5947 474.752 74.1136V80H472.457V78.7898H472.388C472.248 79.0625 472.061 79.303 471.826 79.5114C471.591 79.7159 471.309 79.8769 470.979 79.9943C470.65 80.108 470.269 80.1648 469.837 80.1648ZM470.531 78.4943C470.887 78.4943 471.201 78.4242 471.474 78.2841C471.746 78.1402 471.96 77.947 472.116 77.7045C472.271 77.4621 472.349 77.1875 472.349 76.8807V75.9545C472.273 76.0038 472.169 76.0492 472.036 76.0909C471.907 76.1288 471.762 76.1648 471.599 76.1989C471.436 76.2292 471.273 76.2576 471.11 76.2841C470.947 76.3068 470.799 76.3277 470.667 76.3466C470.383 76.3883 470.135 76.4545 469.923 76.5455C469.71 76.6364 469.546 76.7595 469.428 76.9148C469.311 77.0663 469.252 77.2557 469.252 77.483C469.252 77.8125 469.371 78.0644 469.61 78.2386C469.853 78.4091 470.159 78.4943 470.531 78.4943ZM476.63 71.2727H478.942V78.0795H481.403V71.2727H483.715V78.0795H486.175V71.2727H488.488V80H476.63V71.2727ZM492.677 76.8068L495.819 71.2727H498.205V80H495.898V74.4489L492.768 80H490.364V71.2727H492.677V76.8068ZM506.219 74.6705V76.5739H501.663V74.6705H506.219ZM502.458 71.2727V80H500.146V71.2727H502.458ZM507.737 71.2727V80H505.441V71.2727H507.737ZM515.688 74.6705V76.5739H511.131V74.6705H515.688ZM511.927 71.2727V80H509.614V71.2727H511.927ZM517.205 71.2727V80H514.91V71.2727H517.205ZM520.6 73.9545H523.208C524.363 73.9545 525.265 74.2311 525.913 74.7841C526.56 75.3333 526.884 76.0682 526.884 76.9886C526.884 77.5871 526.738 78.1136 526.447 78.5682C526.155 79.0189 525.735 79.3712 525.185 79.625C524.636 79.875 523.977 80 523.208 80H519.083V71.2727H521.396V78.0966H523.208C523.613 78.0966 523.947 77.9943 524.208 77.7898C524.469 77.5852 524.602 77.3239 524.606 77.0057C524.602 76.6686 524.469 76.3939 524.208 76.1818C523.947 75.9659 523.613 75.858 523.208 75.858H520.6V73.9545ZM527.822 80V71.2727H530.242V80H527.822ZM534.489 76.8068L537.631 71.2727H540.018V80H537.711V74.4489L534.58 80H532.177V71.2727H534.489V76.8068ZM537.217 68.2273H538.904C538.9 68.9167 538.645 69.4716 538.137 69.892C537.633 70.3125 536.951 70.5227 536.092 70.5227C535.228 70.5227 534.544 70.3125 534.04 69.892C533.537 69.4716 533.285 68.9167 533.285 68.2273H534.961C534.957 68.4886 535.04 68.7235 535.211 68.9318C535.385 69.1402 535.679 69.2443 536.092 69.2443C536.493 69.2443 536.781 69.142 536.955 68.9375C537.129 68.733 537.217 68.4962 537.217 68.2273ZM545.661 80V71.2727H548.082V74.6591H548.763L551.138 71.2727H553.979L550.894 75.6023L554.013 80H551.138L548.985 76.9034H548.082V80H545.661ZM558.62 80.1705C557.737 80.1705 556.974 79.983 556.33 79.608C555.69 79.2292 555.196 78.7027 554.847 78.0284C554.499 77.3504 554.325 76.5644 554.325 75.6705C554.325 74.7689 554.499 73.9811 554.847 73.3068C555.196 72.6288 555.69 72.1023 556.33 71.7273C556.974 71.3485 557.737 71.1591 558.62 71.1591C559.503 71.1591 560.264 71.3485 560.904 71.7273C561.548 72.1023 562.044 72.6288 562.393 73.3068C562.741 73.9811 562.915 74.7689 562.915 75.6705C562.915 76.5644 562.741 77.3504 562.393 78.0284C562.044 78.7027 561.548 79.2292 560.904 79.608C560.264 79.983 559.503 80.1705 558.62 80.1705ZM558.631 78.2955C559.033 78.2955 559.368 78.1818 559.637 77.9545C559.906 77.7235 560.109 77.4091 560.245 77.0114C560.385 76.6136 560.455 76.161 560.455 75.6534C560.455 75.1458 560.385 74.6932 560.245 74.2955C560.109 73.8977 559.906 73.5833 559.637 73.3523C559.368 73.1212 559.033 73.0057 558.631 73.0057C558.226 73.0057 557.885 73.1212 557.609 73.3523C557.336 73.5833 557.129 73.8977 556.989 74.2955C556.853 74.6932 556.785 75.1458 556.785 75.6534C556.785 76.161 556.853 76.6136 556.989 77.0114C557.129 77.4091 557.336 77.7235 557.609 77.9545C557.885 78.1818 558.226 78.2955 558.631 78.2955ZM563.808 82.5568V78.0795H564.478C564.671 77.9583 564.826 77.7652 564.944 77.5C565.065 77.2348 565.164 76.9223 565.239 76.5625C565.319 76.2027 565.379 75.8144 565.421 75.3977C565.467 74.9773 565.506 74.553 565.54 74.125L565.768 71.2727H572.461V78.0795H573.813V82.5568H571.506V80H566.171V82.5568H563.808ZM566.887 78.0795H570.177V73.1364H567.825L567.734 74.125C567.669 75.0568 567.576 75.8485 567.455 76.5C567.334 77.1477 567.145 77.6742 566.887 78.0795ZM460.881 87.3636V99H458.42V89.6989H458.352L455.688 91.3693V89.1875L458.568 87.3636H460.881ZM468.209 99.2557C467.232 99.2519 466.391 99.0114 465.686 98.5341C464.985 98.0568 464.446 97.3655 464.067 96.4602C463.692 95.5549 463.506 94.4659 463.51 93.1932C463.51 91.9242 463.697 90.8428 464.072 89.9489C464.451 89.0549 464.991 88.375 465.692 87.9091C466.396 87.4394 467.235 87.2045 468.209 87.2045C469.182 87.2045 470.019 87.4394 470.72 87.9091C471.425 88.3788 471.966 89.0606 472.345 89.9545C472.724 90.8447 472.911 91.9242 472.908 93.1932C472.908 94.4697 472.718 95.5606 472.339 96.4659C471.964 97.3712 471.427 98.0625 470.726 98.5398C470.025 99.017 469.186 99.2557 468.209 99.2557ZM468.209 97.2159C468.875 97.2159 469.408 96.8807 469.805 96.2102C470.203 95.5398 470.4 94.5341 470.396 93.1932C470.396 92.3106 470.305 91.5758 470.124 90.9886C469.946 90.4015 469.692 89.9602 469.362 89.6648C469.036 89.3693 468.652 89.2216 468.209 89.2216C467.546 89.2216 467.016 89.553 466.618 90.2159C466.22 90.8788 466.019 91.8712 466.016 93.1932C466.016 94.0871 466.105 94.8333 466.283 95.4318C466.464 96.0265 466.72 96.4735 467.05 96.7727C467.379 97.0682 467.766 97.2159 468.209 97.2159ZM479.724 87.3636V99H477.264V89.6989H477.196L474.531 91.3693V89.1875L477.412 87.3636H479.724ZM487.053 99.2557C486.075 99.2519 485.234 99.0114 484.53 98.5341C483.829 98.0568 483.289 97.3655 482.911 96.4602C482.536 95.5549 482.35 94.4659 482.354 93.1932C482.354 91.9242 482.541 90.8428 482.916 89.9489C483.295 89.0549 483.835 88.375 484.536 87.9091C485.24 87.4394 486.079 87.2045 487.053 87.2045C488.026 87.2045 488.863 87.4394 489.564 87.9091C490.268 88.3788 490.81 89.0606 491.189 89.9545C491.568 90.8447 491.755 91.9242 491.751 93.1932C491.751 94.4697 491.562 95.5606 491.183 96.4659C490.808 97.3712 490.27 98.0625 489.57 98.5398C488.869 99.017 488.03 99.2557 487.053 99.2557ZM487.053 97.2159C487.719 97.2159 488.251 96.8807 488.649 96.2102C489.047 95.5398 489.244 94.5341 489.24 93.1932C489.24 92.3106 489.149 91.5758 488.967 90.9886C488.789 90.4015 488.536 89.9602 488.206 89.6648C487.88 89.3693 487.496 89.2216 487.053 89.2216C486.39 89.2216 485.859 89.553 485.462 90.2159C485.064 90.8788 484.863 91.8712 484.859 93.1932C484.859 94.0871 484.948 94.8333 485.126 95.4318C485.308 96.0265 485.564 96.4735 485.893 96.7727C486.223 97.0682 486.609 97.2159 487.053 97.2159ZM498.068 99.2557C497.091 99.2519 496.25 99.0114 495.545 98.5341C494.845 98.0568 494.305 97.3655 493.926 96.4602C493.551 95.5549 493.366 94.4659 493.369 93.1932C493.369 91.9242 493.557 90.8428 493.932 89.9489C494.311 89.0549 494.85 88.375 495.551 87.9091C496.256 87.4394 497.095 87.2045 498.068 87.2045C499.042 87.2045 499.879 87.4394 500.58 87.9091C501.284 88.3788 501.826 89.0606 502.205 89.9545C502.583 90.8447 502.771 91.9242 502.767 93.1932C502.767 94.4697 502.578 95.5606 502.199 96.4659C501.824 97.3712 501.286 98.0625 500.585 98.5398C499.884 99.017 499.045 99.2557 498.068 99.2557ZM498.068 97.2159C498.735 97.2159 499.267 96.8807 499.665 96.2102C500.063 95.5398 500.259 94.5341 500.256 93.1932C500.256 92.3106 500.165 91.5758 499.983 90.9886C499.805 90.4015 499.551 89.9602 499.222 89.6648C498.896 89.3693 498.511 89.2216 498.068 89.2216C497.405 89.2216 496.875 89.553 496.477 90.2159C496.08 90.8788 495.879 91.8712 495.875 93.1932C495.875 94.0871 495.964 94.8333 496.142 95.4318C496.324 96.0265 496.58 96.4735 496.909 96.7727C497.239 97.0682 497.625 97.2159 498.068 97.2159ZM509.084 99.2557C508.107 99.2519 507.266 99.0114 506.561 98.5341C505.86 98.0568 505.321 97.3655 504.942 96.4602C504.567 95.5549 504.381 94.4659 504.385 93.1932C504.385 91.9242 504.572 90.8428 504.947 89.9489C505.326 89.0549 505.866 88.375 506.567 87.9091C507.271 87.4394 508.11 87.2045 509.084 87.2045C510.057 87.2045 510.894 87.4394 511.595 87.9091C512.3 88.3788 512.841 89.0606 513.22 89.9545C513.599 90.8447 513.786 91.9242 513.783 93.1932C513.783 94.4697 513.593 95.5606 513.214 96.4659C512.839 97.3712 512.302 98.0625 511.601 98.5398C510.9 99.017 510.061 99.2557 509.084 99.2557ZM509.084 97.2159C509.75 97.2159 510.283 96.8807 510.68 96.2102C511.078 95.5398 511.275 94.5341 511.271 93.1932C511.271 92.3106 511.18 91.5758 510.999 90.9886C510.821 90.4015 510.567 89.9602 510.237 89.6648C509.911 89.3693 509.527 89.2216 509.084 89.2216C508.421 89.2216 507.891 89.553 507.493 90.2159C507.095 90.8788 506.894 91.8712 506.891 93.1932C506.891 94.0871 506.98 94.8333 507.158 95.4318C507.339 96.0265 507.595 96.4735 507.925 96.7727C508.254 97.0682 508.641 97.2159 509.084 97.2159ZM520.599 87.3636V99H518.139V89.6989H518.071L515.406 91.3693V89.1875L518.287 87.3636H520.599ZM528.428 87.3636V99H525.967V89.6989H525.899L523.234 91.3693V89.1875L526.115 87.3636H528.428ZM536.256 87.3636V99H533.795V89.6989H533.727L531.062 91.3693V89.1875L533.943 87.3636H536.256ZM543.584 99.2557C542.607 99.2519 541.766 99.0114 541.061 98.5341C540.36 98.0568 539.821 97.3655 539.442 96.4602C539.067 95.5549 538.881 94.4659 538.885 93.1932C538.885 91.9242 539.072 90.8428 539.447 89.9489C539.826 89.0549 540.366 88.375 541.067 87.9091C541.771 87.4394 542.61 87.2045 543.584 87.2045C544.557 87.2045 545.394 87.4394 546.095 87.9091C546.8 88.3788 547.341 89.0606 547.72 89.9545C548.099 90.8447 548.286 91.9242 548.283 93.1932C548.283 94.4697 548.093 95.5606 547.714 96.4659C547.339 97.3712 546.802 98.0625 546.101 98.5398C545.4 99.017 544.561 99.2557 543.584 99.2557ZM543.584 97.2159C544.25 97.2159 544.783 96.8807 545.18 96.2102C545.578 95.5398 545.775 94.5341 545.771 93.1932C545.771 92.3106 545.68 91.5758 545.499 90.9886C545.321 90.4015 545.067 89.9602 544.737 89.6648C544.411 89.3693 544.027 89.2216 543.584 89.2216C542.921 89.2216 542.391 89.553 541.993 90.2159C541.595 90.8788 541.394 91.8712 541.391 93.1932C541.391 94.0871 541.48 94.8333 541.658 95.4318C541.839 96.0265 542.095 96.4735 542.425 96.7727C542.754 97.0682 543.141 97.2159 543.584 97.2159ZM554.599 99.2557C553.622 99.2519 552.781 99.0114 552.077 98.5341C551.376 98.0568 550.836 97.3655 550.457 96.4602C550.082 95.5549 549.897 94.4659 549.901 93.1932C549.901 91.9242 550.088 90.8428 550.463 89.9489C550.842 89.0549 551.382 88.375 552.082 87.9091C552.787 87.4394 553.626 87.2045 554.599 87.2045C555.573 87.2045 556.41 87.4394 557.111 87.9091C557.815 88.3788 558.357 89.0606 558.736 89.9545C559.115 90.8447 559.302 91.9242 559.298 93.1932C559.298 94.4697 559.109 95.5606 558.73 96.4659C558.355 97.3712 557.817 98.0625 557.116 98.5398C556.416 99.017 555.577 99.2557 554.599 99.2557ZM554.599 97.2159C555.266 97.2159 555.798 96.8807 556.196 96.2102C556.594 95.5398 556.791 94.5341 556.787 93.1932C556.787 92.3106 556.696 91.5758 556.514 90.9886C556.336 90.4015 556.082 89.9602 555.753 89.6648C555.427 89.3693 555.043 89.2216 554.599 89.2216C553.937 89.2216 553.406 89.553 553.009 90.2159C552.611 90.8788 552.41 91.8712 552.406 93.1932C552.406 94.0871 552.495 94.8333 552.673 95.4318C552.855 96.0265 553.111 96.4735 553.44 96.7727C553.77 97.0682 554.156 97.2159 554.599 97.2159ZM565.615 99.2557C564.638 99.2519 563.797 99.0114 563.092 98.5341C562.392 98.0568 561.852 97.3655 561.473 96.4602C561.098 95.5549 560.912 94.4659 560.916 93.1932C560.916 91.9242 561.104 90.8428 561.479 89.9489C561.857 89.0549 562.397 88.375 563.098 87.9091C563.803 87.4394 564.642 87.2045 565.615 87.2045C566.589 87.2045 567.426 87.4394 568.126 87.9091C568.831 88.3788 569.373 89.0606 569.751 89.9545C570.13 90.8447 570.318 91.9242 570.314 93.1932C570.314 94.4697 570.125 95.5606 569.746 96.4659C569.371 97.3712 568.833 98.0625 568.132 98.5398C567.431 99.017 566.592 99.2557 565.615 99.2557ZM565.615 97.2159C566.282 97.2159 566.814 96.8807 567.212 96.2102C567.609 95.5398 567.806 94.5341 567.803 93.1932C567.803 92.3106 567.712 91.5758 567.53 90.9886C567.352 90.4015 567.098 89.9602 566.768 89.6648C566.443 89.3693 566.058 89.2216 565.615 89.2216C564.952 89.2216 564.422 89.553 564.024 90.2159C563.626 90.8788 563.426 91.8712 563.422 93.1932C563.422 94.0871 563.511 94.8333 563.689 95.4318C563.871 96.0265 564.126 96.4735 564.456 96.7727C564.786 97.0682 565.172 97.2159 565.615 97.2159Z" fill="white"/>
<path d="M672.402 80V68.3636H677.061C677.917 68.3636 678.631 68.4905 679.203 68.7443C679.775 68.9981 680.205 69.3504 680.493 69.8011C680.781 70.2481 680.925 70.7633 680.925 71.3466C680.925 71.8011 680.834 72.2008 680.652 72.5455C680.47 72.8864 680.22 73.1667 679.902 73.3864C679.588 73.6023 679.228 73.7557 678.822 73.8466V73.9602C679.266 73.9792 679.68 74.1042 680.067 74.3352C680.457 74.5663 680.773 74.8902 681.016 75.3068C681.258 75.7197 681.379 76.2121 681.379 76.7841C681.379 77.4015 681.226 77.9527 680.919 78.4375C680.616 78.9186 680.167 79.2992 679.572 79.5795C678.978 79.8598 678.245 80 677.374 80H672.402ZM674.862 77.9886H676.868C677.554 77.9886 678.054 77.858 678.368 77.5966C678.682 77.3314 678.839 76.9792 678.839 76.5398C678.839 76.2178 678.762 75.9337 678.607 75.6875C678.451 75.4413 678.23 75.2481 677.942 75.108C677.658 74.9678 677.319 74.8977 676.925 74.8977H674.862V77.9886ZM674.862 73.233H676.686C677.023 73.233 677.322 73.1742 677.584 73.0568C677.849 72.9356 678.057 72.7652 678.209 72.5455C678.364 72.3258 678.442 72.0625 678.442 71.7557C678.442 71.3352 678.292 70.9962 677.993 70.7386C677.697 70.4811 677.277 70.3523 676.732 70.3523H674.862V73.233ZM684.452 73.9545H687.06C688.215 73.9545 689.116 74.2311 689.764 74.7841C690.412 75.3333 690.736 76.0682 690.736 76.9886C690.736 77.5871 690.59 78.1136 690.298 78.5682C690.007 79.0189 689.586 79.3712 689.037 79.625C688.488 79.875 687.829 80 687.06 80H682.935V71.2727H685.247V78.0966H687.06C687.465 78.0966 687.798 77.9943 688.06 77.7898C688.321 77.5852 688.454 77.3239 688.457 77.0057C688.454 76.6686 688.321 76.3939 688.06 76.1818C687.798 75.9659 687.465 75.858 687.06 75.858H684.452V73.9545ZM691.673 80V71.2727H694.094V80H691.673ZM698.051 71.2727L699.653 74.3239L701.295 71.2727H703.778L701.25 75.6364L703.847 80H701.375L699.653 76.983L697.96 80H695.46L698.051 75.6364L695.551 71.2727H698.051ZM708.847 80.1705C707.964 80.1705 707.201 79.983 706.557 79.608C705.917 79.2292 705.422 78.7027 705.074 78.0284C704.725 77.3504 704.551 76.5644 704.551 75.6705C704.551 74.7689 704.725 73.9811 705.074 73.3068C705.422 72.6288 705.917 72.1023 706.557 71.7273C707.201 71.3485 707.964 71.1591 708.847 71.1591C709.729 71.1591 710.491 71.3485 711.131 71.7273C711.775 72.1023 712.271 72.6288 712.619 73.3068C712.968 73.9811 713.142 74.7689 713.142 75.6705C713.142 76.5644 712.968 77.3504 712.619 78.0284C712.271 78.7027 711.775 79.2292 711.131 79.608C710.491 79.983 709.729 80.1705 708.847 80.1705ZM708.858 78.2955C709.259 78.2955 709.595 78.1818 709.864 77.9545C710.133 77.7235 710.335 77.4091 710.472 77.0114C710.612 76.6136 710.682 76.161 710.682 75.6534C710.682 75.1458 710.612 74.6932 710.472 74.2955C710.335 73.8977 710.133 73.5833 709.864 73.3523C709.595 73.1212 709.259 73.0057 708.858 73.0057C708.453 73.0057 708.112 73.1212 707.835 73.3523C707.563 73.5833 707.356 73.8977 707.216 74.2955C707.08 74.6932 707.011 75.1458 707.011 75.6534C707.011 76.161 707.08 76.6136 707.216 77.0114C707.356 77.4091 707.563 77.7235 707.835 77.9545C708.112 78.1818 708.453 78.2955 708.858 78.2955ZM714.034 82.5568V78.0795H714.705C714.898 77.9583 715.053 77.7652 715.17 77.5C715.292 77.2348 715.39 76.9223 715.466 76.5625C715.545 76.2027 715.606 75.8144 715.648 75.3977C715.693 74.9773 715.733 74.553 715.767 74.125L715.994 71.2727H722.688V78.0795H724.04V82.5568H721.733V80H716.398V82.5568H714.034ZM717.114 78.0795H720.403V73.1364H718.051L717.96 74.125C717.896 75.0568 717.803 75.8485 717.682 76.5C717.561 77.1477 717.371 77.6742 717.114 78.0795ZM731.524 74.6705V76.5739H726.967V74.6705H731.524ZM727.763 71.2727V80H725.45V71.2727H727.763ZM733.041 71.2727V80H730.746V71.2727H733.041ZM736.436 73.9545H739.044C740.199 73.9545 741.101 74.2311 741.749 74.7841C742.396 75.3333 742.72 76.0682 742.72 76.9886C742.72 77.5871 742.574 78.1136 742.283 78.5682C741.991 79.0189 741.571 79.3712 741.021 79.625C740.472 79.875 739.813 80 739.044 80H734.919V71.2727H737.232V78.0966H739.044C739.449 78.0966 739.783 77.9943 740.044 77.7898C740.305 77.5852 740.438 77.3239 740.442 77.0057C740.438 76.6686 740.305 76.3939 740.044 76.1818C739.783 75.9659 739.449 75.858 739.044 75.858H736.436V73.9545ZM743.658 80V71.2727H746.078V80H743.658ZM751.99 80.1705C751.092 80.1705 750.32 79.9886 749.672 79.625C749.028 79.2576 748.532 78.7386 748.183 78.0682C747.835 77.3939 747.661 76.5966 747.661 75.6761C747.661 74.7784 747.835 73.9905 748.183 73.3125C748.532 72.6345 749.022 72.1061 749.655 71.7273C750.291 71.3485 751.037 71.1591 751.893 71.1591C752.469 71.1591 753.005 71.2519 753.501 71.4375C754.001 71.6193 754.437 71.8939 754.808 72.2614C755.183 72.6288 755.475 73.0909 755.683 73.6477C755.892 74.2008 755.996 74.8485 755.996 75.5909V76.2557H748.626V74.7557H753.717C753.717 74.4072 753.642 74.0985 753.49 73.8295C753.339 73.5606 753.128 73.3504 752.859 73.1989C752.594 73.0436 752.286 72.9659 751.933 72.9659C751.566 72.9659 751.24 73.0511 750.956 73.2216C750.676 73.3883 750.456 73.6136 750.297 73.8977C750.138 74.178 750.056 74.4905 750.053 74.8352V76.2614C750.053 76.6932 750.132 77.0663 750.291 77.3807C750.454 77.6951 750.683 77.9375 750.979 78.108C751.274 78.2784 751.625 78.3636 752.03 78.3636C752.299 78.3636 752.545 78.3258 752.768 78.25C752.992 78.1742 753.183 78.0606 753.342 77.9091C753.501 77.7576 753.623 77.572 753.706 77.3523L755.945 77.5C755.831 78.0379 755.598 78.5076 755.246 78.9091C754.897 79.3068 754.446 79.6174 753.893 79.8409C753.344 80.0606 752.71 80.1705 751.99 80.1705ZM683.479 101.557V97.0795H684.15C684.343 96.9583 684.498 96.7652 684.616 96.5C684.737 96.2348 684.835 95.9223 684.911 95.5625C684.991 95.2027 685.051 94.8144 685.093 94.3977C685.138 93.9773 685.178 93.553 685.212 93.125L685.44 90.2727H692.133V97.0795H693.485V101.557H691.178V99H685.843V101.557H683.479ZM686.559 97.0795H689.849V92.1364H687.496L687.406 93.125C687.341 94.0568 687.248 94.8485 687.127 95.5C687.006 96.1477 686.817 96.6742 686.559 97.0795ZM697.384 99.1648C696.827 99.1648 696.331 99.0682 695.896 98.875C695.46 98.678 695.115 98.3883 694.862 98.0057C694.612 97.6193 694.487 97.1383 694.487 96.5625C694.487 96.0777 694.576 95.6705 694.754 95.3409C694.932 95.0114 695.174 94.7462 695.481 94.5455C695.788 94.3447 696.136 94.1932 696.526 94.0909C696.92 93.9886 697.333 93.9167 697.765 93.875C698.272 93.822 698.682 93.7727 698.992 93.7273C699.303 93.678 699.528 93.6061 699.668 93.5114C699.808 93.4167 699.879 93.2765 699.879 93.0909V93.0568C699.879 92.697 699.765 92.4186 699.538 92.2216C699.314 92.0246 698.996 91.9261 698.583 91.9261C698.147 91.9261 697.801 92.0227 697.543 92.2159C697.286 92.4053 697.115 92.6439 697.032 92.9318L694.793 92.75C694.907 92.2197 695.13 91.7614 695.464 91.375C695.797 90.9848 696.227 90.6856 696.754 90.4773C697.284 90.2652 697.897 90.1591 698.594 90.1591C699.079 90.1591 699.543 90.2159 699.987 90.3295C700.433 90.4432 700.829 90.6193 701.174 90.858C701.522 91.0966 701.797 91.4034 701.998 91.7784C702.199 92.1496 702.299 92.5947 702.299 93.1136V99H700.004V97.7898H699.935C699.795 98.0625 699.608 98.303 699.373 98.5114C699.138 98.7159 698.856 98.8769 698.526 98.9943C698.197 99.108 697.816 99.1648 697.384 99.1648ZM698.077 97.4943C698.433 97.4943 698.748 97.4242 699.021 97.2841C699.293 97.1402 699.507 96.947 699.663 96.7045C699.818 96.4621 699.896 96.1875 699.896 95.8807V94.9545C699.82 95.0038 699.716 95.0492 699.583 95.0909C699.454 95.1288 699.308 95.1648 699.146 95.1989C698.983 95.2292 698.82 95.2576 698.657 95.2841C698.494 95.3068 698.346 95.3277 698.214 95.3466C697.93 95.3883 697.682 95.4545 697.469 95.5455C697.257 95.6364 697.093 95.7595 696.975 95.9148C696.858 96.0663 696.799 96.2557 696.799 96.483C696.799 96.8125 696.918 97.0644 697.157 97.2386C697.399 97.4091 697.706 97.4943 698.077 97.4943ZM710.251 93.6705V95.5739H705.694V93.6705H710.251ZM706.489 90.2727V99H704.177V90.2727H706.489ZM711.768 90.2727V99H709.472V90.2727H711.768ZM719.719 93.6705V95.5739H715.163V93.6705H719.719ZM715.958 90.2727V99H713.646V90.2727H715.958ZM721.237 90.2727V99H718.941V90.2727H721.237ZM724.631 92.9545H727.239C728.395 92.9545 729.296 93.2311 729.944 93.7841C730.592 94.3333 730.915 95.0682 730.915 95.9886C730.915 96.5871 730.77 97.1136 730.478 97.5682C730.186 98.0189 729.766 98.3712 729.217 98.625C728.667 98.875 728.008 99 727.239 99H723.114V90.2727H725.427V97.0966H727.239C727.645 97.0966 727.978 96.9943 728.239 96.7898C728.501 96.5852 728.633 96.3239 728.637 96.0057C728.633 95.6686 728.501 95.3939 728.239 95.1818C727.978 94.9659 727.645 94.858 727.239 94.858H724.631V92.9545ZM731.853 99V90.2727H734.273V99H731.853ZM740.185 99.1705C739.288 99.1705 738.515 98.9886 737.867 98.625C737.223 98.2576 736.727 97.7386 736.379 97.0682C736.03 96.3939 735.856 95.5966 735.856 94.6761C735.856 93.7784 736.03 92.9905 736.379 92.3125C736.727 91.6345 737.218 91.1061 737.85 90.7273C738.487 90.3485 739.233 90.1591 740.089 90.1591C740.665 90.1591 741.201 90.2519 741.697 90.4375C742.197 90.6193 742.632 90.8939 743.004 91.2614C743.379 91.6288 743.67 92.0909 743.879 92.6477C744.087 93.2008 744.191 93.8485 744.191 94.5909V95.2557H736.822V93.7557H741.913C741.913 93.4072 741.837 93.0985 741.685 92.8295C741.534 92.5606 741.324 92.3504 741.055 92.1989C740.79 92.0436 740.481 91.9659 740.129 91.9659C739.761 91.9659 739.435 92.0511 739.151 92.2216C738.871 92.3883 738.651 92.6136 738.492 92.8977C738.333 93.178 738.252 93.4905 738.248 93.8352V95.2614C738.248 95.6932 738.327 96.0663 738.487 96.3807C738.649 96.6951 738.879 96.9375 739.174 97.108C739.469 97.2784 739.82 97.3636 740.225 97.3636C740.494 97.3636 740.74 97.3258 740.964 97.25C741.187 97.1742 741.379 97.0606 741.538 96.9091C741.697 96.7576 741.818 96.572 741.901 96.3523L744.14 96.5C744.026 97.0379 743.793 97.5076 743.441 97.9091C743.093 98.3068 742.642 98.6174 742.089 98.8409C741.54 99.0606 740.905 99.1705 740.185 99.1705Z" fill="white"/>
</svg>
