<svg width="894" height="241" viewBox="0 0 894 241" fill="none" xmlns="http://www.w3.org/2000/svg">
<rect width="894" height="241" fill="white"/>
<line x1="49.5" y1="103" x2="49.5" y2="111" stroke="black"/>
<line x1="81.5" y1="111" x2="81.5" y2="119" stroke="black"/>
<line x1="113.5" y1="103" x2="113.5" y2="111" stroke="black"/>
<line x1="49" y1="110.5" x2="113" y2="110.5" stroke="black"/>
<line x1="164.5" y1="103" x2="164.5" y2="111" stroke="black"/>
<line x1="222.5" y1="111" x2="222.5" y2="119" stroke="black"/>
<line x1="280.5" y1="103" x2="280.5" y2="111" stroke="black"/>
<line x1="164" y1="110.5" x2="280" y2="110.5" stroke="black"/>
<path d="M60.0021 75.6364V96H55.6967V79.723H55.5774L50.9141 82.6463V78.8281L55.9553 75.6364H60.0021ZM86.1875 87.6974L72.1875 93.8622V89.8352L81.7727 85.9872L81.6435 86.196V85.6989L81.7727 85.9077L72.1875 82.0597V78.0327L86.1875 84.1974V87.6974ZM96.8342 96V92.8977L104.083 86.1861C104.699 85.5895 105.216 85.0526 105.634 84.5753C106.058 84.098 106.38 83.6307 106.598 83.1733C106.817 82.7093 106.926 82.2088 106.926 81.6719C106.926 81.0753 106.791 80.5616 106.519 80.1307C106.247 79.6932 105.876 79.3584 105.405 79.1264C104.935 78.8878 104.401 78.7685 103.804 78.7685C103.181 78.7685 102.638 78.8944 102.174 79.1463C101.71 79.3982 101.352 79.7595 101.1 80.2301C100.848 80.7008 100.722 81.2609 100.722 81.9105H96.6353C96.6353 80.5781 96.9369 79.4214 97.5401 78.4403C98.1433 77.4593 98.9885 76.7003 100.076 76.1634C101.163 75.6264 102.416 75.358 103.834 75.358C105.292 75.358 106.562 75.6165 107.642 76.1335C108.73 76.6439 109.575 77.3532 110.178 78.2614C110.781 79.1695 111.083 80.2102 111.083 81.3835C111.083 82.1525 110.93 82.9115 110.625 83.6605C110.327 84.4096 109.793 85.2415 109.025 86.1562C108.256 87.0644 107.172 88.1548 105.773 89.4276L102.8 92.3409V92.4801H111.351V96H96.8342ZM127.235 96.2983C125.83 96.2983 124.617 96.0464 123.596 95.5426C122.575 95.0388 121.79 94.3561 121.24 93.4943C120.696 92.6259 120.424 91.6581 120.424 90.5909C120.424 89.7955 120.583 89.0895 120.902 88.473C121.22 87.8565 121.664 87.2898 122.234 86.7727C122.804 86.2491 123.467 85.7287 124.223 85.2116L128.17 82.6165C128.681 82.2917 129.055 81.9503 129.294 81.5923C129.532 81.2277 129.652 80.8333 129.652 80.4091C129.652 80.0047 129.489 79.6302 129.164 79.2855C128.84 78.9408 128.379 78.7718 127.782 78.7784C127.385 78.7784 127.04 78.8679 126.748 79.0469C126.457 79.2192 126.228 79.4479 126.062 79.733C125.903 80.0114 125.824 80.3229 125.824 80.6676C125.824 81.0919 125.943 81.5227 126.181 81.9602C126.42 82.3977 126.738 82.8617 127.136 83.3523C127.534 83.8362 127.968 84.3598 128.439 84.9233L138.093 96H133.679L125.625 87.0312C125.094 86.428 124.564 85.7983 124.034 85.142C123.51 84.4792 123.073 83.7765 122.721 83.0341C122.37 82.285 122.194 81.473 122.194 80.598C122.194 79.6103 122.423 78.7221 122.88 77.9332C123.344 77.1444 123.994 76.5213 124.829 76.0639C125.664 75.5999 126.639 75.3679 127.752 75.3679C128.84 75.3679 129.778 75.59 130.566 76.0341C131.362 76.4716 131.972 77.0549 132.396 77.7841C132.827 78.5066 133.042 79.3021 133.042 80.1705C133.042 81.1316 132.804 82.0033 132.326 82.7855C131.856 83.5611 131.193 84.2571 130.338 84.8736L126.181 87.8665C125.618 88.2775 125.2 88.6984 124.929 89.1293C124.663 89.5535 124.531 89.9612 124.531 90.3523C124.531 90.8362 124.65 91.2704 124.889 91.6548C125.127 92.0393 125.466 92.3442 125.903 92.5696C126.341 92.7884 126.854 92.8977 127.444 92.8977C128.16 92.8977 128.866 92.7353 129.562 92.4105C130.265 92.0791 130.901 91.6117 131.471 91.0085C132.048 90.3987 132.509 89.6761 132.853 88.8409C133.198 88.0057 133.37 87.081 133.37 86.0668H136.88C136.88 87.313 136.744 88.4366 136.473 89.4375C136.201 90.4318 135.823 91.3002 135.339 92.0426C134.855 92.7784 134.302 93.3816 133.679 93.8523C133.48 93.9782 133.288 94.0975 133.102 94.2102C132.916 94.3229 132.724 94.4422 132.525 94.5682C131.77 95.178 130.924 95.6188 129.99 95.8906C129.062 96.1624 128.144 96.2983 127.235 96.2983ZM146.103 96.2983C144.697 96.2983 143.484 96.0464 142.463 95.5426C141.443 95.0388 140.657 94.3561 140.107 93.4943C139.563 92.6259 139.292 91.6581 139.292 90.5909C139.292 89.7955 139.451 89.0895 139.769 88.473C140.087 87.8565 140.531 87.2898 141.101 86.7727C141.671 86.2491 142.334 85.7287 143.09 85.2116L147.037 82.6165C147.548 82.2917 147.922 81.9503 148.161 81.5923C148.4 81.2277 148.519 80.8333 148.519 80.4091C148.519 80.0047 148.356 79.6302 148.032 79.2855C147.707 78.9408 147.246 78.7718 146.65 78.7784C146.252 78.7784 145.907 78.8679 145.615 79.0469C145.324 79.2192 145.095 79.4479 144.929 79.733C144.77 80.0114 144.691 80.3229 144.691 80.6676C144.691 81.0919 144.81 81.5227 145.049 81.9602C145.287 82.3977 145.605 82.8617 146.003 83.3523C146.401 83.8362 146.835 84.3598 147.306 84.9233L156.961 96H152.546L144.492 87.0312C143.962 86.428 143.431 85.7983 142.901 85.142C142.377 84.4792 141.94 83.7765 141.588 83.0341C141.237 82.285 141.061 81.473 141.061 80.598C141.061 79.6103 141.29 78.7221 141.748 77.9332C142.212 77.1444 142.861 76.5213 143.696 76.0639C144.532 75.5999 145.506 75.3679 146.62 75.3679C147.707 75.3679 148.645 75.59 149.434 76.0341C150.229 76.4716 150.839 77.0549 151.263 77.7841C151.694 78.5066 151.909 79.3021 151.909 80.1705C151.909 81.1316 151.671 82.0033 151.194 82.7855C150.723 83.5611 150.06 84.2571 149.205 84.8736L145.049 87.8665C144.485 88.2775 144.068 88.6984 143.796 89.1293C143.531 89.5535 143.398 89.9612 143.398 90.3523C143.398 90.8362 143.517 91.2704 143.756 91.6548C143.995 92.0393 144.333 92.3442 144.77 92.5696C145.208 92.7884 145.721 92.8977 146.311 92.8977C147.027 92.8977 147.733 92.7353 148.429 92.4105C149.132 92.0791 149.768 91.6117 150.338 91.0085C150.915 90.3987 151.376 89.6761 151.721 88.8409C152.065 88.0057 152.238 87.081 152.238 86.0668H155.748C155.748 87.313 155.612 88.4366 155.34 89.4375C155.068 90.4318 154.69 91.3002 154.206 92.0426C153.722 92.7784 153.169 93.3816 152.546 93.8523C152.347 93.9782 152.155 94.0975 151.969 94.2102C151.783 94.3229 151.591 94.4422 151.392 94.5682C150.637 95.178 149.792 95.6188 148.857 95.8906C147.929 96.1624 147.011 96.2983 146.103 96.2983ZM174.026 75.6364V96H169.72V79.723H169.601L164.938 82.6463V78.8281L169.979 75.6364H174.026ZM186.303 96.2784C184.898 96.2784 183.645 96.0199 182.544 95.5028C181.451 94.9858 180.582 94.2732 179.939 93.3651C179.296 92.4569 178.962 91.4162 178.935 90.2429H183.111C183.158 91.0317 183.489 91.6714 184.105 92.1619C184.722 92.6525 185.454 92.8977 186.303 92.8977C186.979 92.8977 187.576 92.7486 188.093 92.4503C188.616 92.1454 189.024 91.7244 189.316 91.1875C189.614 90.6439 189.763 90.0208 189.763 89.3182C189.763 88.6023 189.611 87.9725 189.306 87.429C189.007 86.8854 188.593 86.4612 188.063 86.1562C187.533 85.8513 186.926 85.6955 186.243 85.6889C185.647 85.6889 185.067 85.8116 184.503 86.0568C183.946 86.3021 183.512 86.6368 183.201 87.0611L179.373 86.375L180.337 75.6364H192.786V79.1562H183.887L183.36 84.2571H183.479C183.837 83.7533 184.377 83.3357 185.1 83.0043C185.822 82.6728 186.631 82.5071 187.526 82.5071C188.752 82.5071 189.846 82.7955 190.807 83.3722C191.768 83.9489 192.527 84.741 193.084 85.7486C193.641 86.7495 193.916 87.9029 193.909 89.2088C193.916 90.581 193.598 91.8007 192.955 92.8679C192.319 93.9285 191.427 94.7637 190.28 95.3736C189.14 95.9768 187.814 96.2784 186.303 96.2784ZM218.258 87.6974L204.258 93.8622V89.8352L213.843 85.9872L213.714 86.196V85.6989L213.843 85.9077L204.258 82.0597V78.0327L218.258 84.1974V87.6974ZM237.764 75.6364V96H233.458V79.723H233.339L228.676 82.6463V78.8281L233.717 75.6364H237.764ZM250.588 96.4474C248.878 96.4408 247.406 96.0199 246.173 95.1847C244.947 94.3494 244.002 93.1397 243.339 91.5554C242.683 89.9711 242.358 88.0653 242.365 85.8381C242.365 83.6174 242.693 81.7249 243.349 80.1605C244.012 78.5961 244.957 77.4062 246.183 76.5909C247.416 75.7689 248.884 75.358 250.588 75.358C252.292 75.358 253.757 75.7689 254.983 76.5909C256.216 77.4129 257.164 78.6061 257.827 80.1705C258.49 81.7282 258.818 83.6174 258.811 85.8381C258.811 88.072 258.48 89.9811 257.817 91.5653C257.161 93.1496 256.219 94.3594 254.993 95.1946C253.767 96.0298 252.298 96.4474 250.588 96.4474ZM250.588 92.8778C251.755 92.8778 252.686 92.2912 253.382 91.1179C254.078 89.9446 254.423 88.1847 254.416 85.8381C254.416 84.2936 254.257 83.0076 253.939 81.9801C253.627 80.9527 253.183 80.1804 252.607 79.6634C252.036 79.1463 251.364 78.8878 250.588 78.8878C249.428 78.8878 248.5 79.4678 247.804 80.6278C247.108 81.7879 246.757 83.5246 246.75 85.8381C246.75 87.4025 246.906 88.7083 247.217 89.7557C247.536 90.7964 247.983 91.5786 248.56 92.1023C249.136 92.6193 249.812 92.8778 250.588 92.8778ZM269.865 96.4474C268.155 96.4408 266.684 96.0199 265.451 95.1847C264.224 94.3494 263.28 93.1397 262.617 91.5554C261.961 89.9711 261.636 88.0653 261.642 85.8381C261.642 83.6174 261.971 81.7249 262.627 80.1605C263.29 78.5961 264.234 77.4062 265.461 76.5909C266.694 75.7689 268.162 75.358 269.865 75.358C271.569 75.358 273.034 75.7689 274.26 76.5909C275.493 77.4129 276.441 78.6061 277.104 80.1705C277.767 81.7282 278.095 83.6174 278.088 85.8381C278.088 88.072 277.757 89.9811 277.094 91.5653C276.438 93.1496 275.497 94.3594 274.27 95.1946C273.044 96.0298 271.576 96.4474 269.865 96.4474ZM269.865 92.8778C271.032 92.8778 271.963 92.2912 272.659 91.1179C273.355 89.9446 273.7 88.1847 273.694 85.8381C273.694 84.2936 273.534 83.0076 273.216 81.9801C272.905 80.9527 272.461 80.1804 271.884 79.6634C271.314 79.1463 270.641 78.8878 269.865 78.8878C268.705 78.8878 267.777 79.4678 267.081 80.6278C266.385 81.7879 266.034 83.5246 266.027 85.8381C266.027 87.4025 266.183 88.7083 266.495 89.7557C266.813 90.7964 267.26 91.5786 267.837 92.1023C268.414 92.6193 269.09 92.8778 269.865 92.8778Z" fill="#333333"/>
<path d="M65.4651 133.182V135.227H59.4055V133.182H65.4651ZM60.7925 143V132.472C60.7925 131.761 60.931 131.17 61.208 130.702C61.4893 130.233 61.8728 129.881 62.3586 129.647C62.8444 129.413 63.3962 129.295 64.0141 129.295C64.4317 129.295 64.8131 129.327 65.1583 129.391C65.5077 129.455 65.7677 129.513 65.9381 129.564L65.4523 131.609C65.3458 131.575 65.2137 131.543 65.056 131.513C64.9026 131.484 64.7449 131.469 64.583 131.469C64.1824 131.469 63.9033 131.562 63.7457 131.75C63.588 131.933 63.5091 132.191 63.5091 132.523V143H60.7925ZM69.5768 143.185C68.9504 143.185 68.3921 143.077 67.9021 142.859C67.412 142.638 67.0242 142.312 66.7387 141.881C66.4575 141.447 66.3169 140.906 66.3169 140.258C66.3169 139.712 66.417 139.254 66.6173 138.884C66.8176 138.513 67.0903 138.214 67.4355 137.989C67.7806 137.763 68.1727 137.592 68.6116 137.477C69.0548 137.362 69.5193 137.281 70.0051 137.234C70.5761 137.175 71.0363 137.119 71.3857 137.068C71.7352 137.013 71.9887 136.932 72.1464 136.825C72.3041 136.719 72.3829 136.561 72.3829 136.352V136.314C72.3829 135.909 72.2551 135.596 71.9994 135.374C71.748 135.153 71.39 135.042 70.9255 135.042C70.4355 135.042 70.0455 135.151 69.7558 135.368C69.466 135.581 69.2742 135.849 69.1805 136.173L66.662 135.969C66.7899 135.372 67.0413 134.857 67.4163 134.422C67.7913 133.983 68.2749 133.646 68.8673 133.412C69.4639 133.173 70.1542 133.054 70.9383 133.054C71.4838 133.054 72.0058 133.118 72.5044 133.246C73.0072 133.374 73.4525 133.572 73.8403 133.84C74.2323 134.109 74.5413 134.454 74.7671 134.876C74.993 135.293 75.1059 135.794 75.1059 136.378V143H72.5235V141.638H72.4468C72.2892 141.945 72.0782 142.216 71.814 142.45C71.5498 142.68 71.2323 142.862 70.8616 142.994C70.4909 143.121 70.0626 143.185 69.5768 143.185ZM70.3566 141.306C70.7572 141.306 71.1109 141.227 71.4177 141.07C71.7245 140.908 71.9653 140.69 72.14 140.418C72.3147 140.145 72.4021 139.836 72.4021 139.491V138.449C72.3169 138.504 72.1997 138.555 72.0505 138.602C71.9056 138.645 71.7416 138.685 71.5583 138.724C71.3751 138.758 71.1919 138.79 71.0086 138.82C70.8254 138.845 70.6592 138.869 70.51 138.89C70.1904 138.937 69.9113 139.011 69.6727 139.114C69.434 139.216 69.2487 139.354 69.1166 139.529C68.9845 139.7 68.9184 139.913 68.9184 140.168C68.9184 140.539 69.0526 140.822 69.3211 141.018C69.5938 141.21 69.939 141.306 70.3566 141.306ZM79.9415 129.909V143H77.2185V129.909H79.9415ZM90.2918 135.982L87.7989 136.135C87.7563 135.922 87.6647 135.73 87.5241 135.56C87.3834 135.385 87.1981 135.246 86.968 135.144C86.7421 135.038 86.4715 134.984 86.1562 134.984C85.7343 134.984 85.3785 135.074 85.0887 135.253C84.7989 135.428 84.654 135.662 84.654 135.956C84.654 136.19 84.7478 136.388 84.9353 136.55C85.1228 136.712 85.4445 136.842 85.9005 136.94L87.6775 137.298C88.632 137.494 89.3437 137.81 89.8124 138.244C90.2812 138.679 90.5155 139.25 90.5155 139.957C90.5155 140.601 90.3259 141.165 89.9466 141.651C89.5716 142.137 89.056 142.516 88.3998 142.789C87.7478 143.058 86.9957 143.192 86.1434 143.192C84.8437 143.192 83.8081 142.921 83.0368 142.38C82.2698 141.835 81.8202 141.093 81.6881 140.156L84.3664 140.015C84.4474 140.411 84.6434 140.714 84.9545 140.923C85.2655 141.127 85.664 141.229 86.1498 141.229C86.627 141.229 87.0106 141.138 87.3003 140.955C87.5944 140.767 87.7435 140.526 87.7478 140.232C87.7435 139.985 87.6391 139.783 87.4346 139.625C87.23 139.463 86.9147 139.339 86.4885 139.254L84.7883 138.915C83.8295 138.724 83.1157 138.391 82.6469 137.918C82.1824 137.445 81.9502 136.842 81.9502 136.109C81.9502 135.479 82.1206 134.935 82.4616 134.479C82.8067 134.023 83.2904 133.672 83.9126 133.425C84.539 133.178 85.2719 133.054 86.1114 133.054C87.3515 133.054 88.3273 133.316 89.039 133.84C89.7549 134.364 90.1725 135.078 90.2918 135.982ZM96.7046 143.192C95.6947 143.192 94.8254 142.987 94.0967 142.578C93.3722 142.165 92.814 141.581 92.422 140.827C92.0299 140.068 91.8339 139.171 91.8339 138.136C91.8339 137.126 92.0299 136.239 92.422 135.477C92.814 134.714 93.3659 134.119 94.0775 133.693C94.7934 133.267 95.6329 133.054 96.596 133.054C97.2437 133.054 97.8467 133.158 98.4049 133.367C98.9674 133.572 99.4575 133.881 99.8751 134.294C100.297 134.707 100.625 135.227 100.859 135.854C101.094 136.476 101.211 137.205 101.211 138.04V138.788H92.9205V137.1H98.6478C98.6478 136.708 98.5626 136.361 98.3921 136.058C98.2217 135.756 97.9852 135.519 97.6826 135.349C97.3843 135.174 97.037 135.087 96.6407 135.087C96.2274 135.087 95.8609 135.183 95.5413 135.374C95.2259 135.562 94.9788 135.815 94.7998 136.135C94.6208 136.45 94.5292 136.802 94.5249 137.19V138.794C94.5249 139.28 94.6144 139.7 94.7934 140.053C94.9767 140.407 95.2345 140.68 95.5669 140.871C95.8992 141.063 96.2934 141.159 96.7494 141.159C97.0519 141.159 97.3289 141.116 97.5803 141.031C97.8318 140.946 98.047 140.818 98.2259 140.648C98.4049 140.477 98.5413 140.268 98.635 140.021L101.153 140.188C101.026 140.793 100.764 141.321 100.367 141.773C99.9752 142.22 99.4681 142.57 98.846 142.821C98.2281 143.068 97.5143 143.192 96.7046 143.192Z" fill="#EA4040"/>
<path d="M148.465 187.182V189.227H142.405V187.182H148.465ZM143.793 197V186.472C143.793 185.761 143.931 185.17 144.208 184.702C144.489 184.233 144.873 183.881 145.359 183.647C145.844 183.413 146.396 183.295 147.014 183.295C147.432 183.295 147.813 183.327 148.158 183.391C148.508 183.455 148.768 183.513 148.938 183.564L148.452 185.609C148.346 185.575 148.214 185.543 148.056 185.513C147.903 185.484 147.745 185.469 147.583 185.469C147.182 185.469 146.903 185.562 146.746 185.75C146.588 185.933 146.509 186.191 146.509 186.523V197H143.793ZM152.577 197.185C151.95 197.185 151.392 197.077 150.902 196.859C150.412 196.638 150.024 196.312 149.739 195.881C149.457 195.447 149.317 194.906 149.317 194.258C149.317 193.712 149.417 193.254 149.617 192.884C149.818 192.513 150.09 192.214 150.435 191.989C150.781 191.763 151.173 191.592 151.612 191.477C152.055 191.362 152.519 191.281 153.005 191.234C153.576 191.175 154.036 191.119 154.386 191.068C154.735 191.013 154.989 190.932 155.146 190.825C155.304 190.719 155.383 190.561 155.383 190.352V190.314C155.383 189.909 155.255 189.596 154.999 189.374C154.748 189.153 154.39 189.042 153.926 189.042C153.435 189.042 153.046 189.151 152.756 189.368C152.466 189.581 152.274 189.849 152.18 190.173L149.662 189.969C149.79 189.372 150.041 188.857 150.416 188.422C150.791 187.983 151.275 187.646 151.867 187.412C152.464 187.173 153.154 187.054 153.938 187.054C154.484 187.054 155.006 187.118 155.504 187.246C156.007 187.374 156.453 187.572 156.84 187.84C157.232 188.109 157.541 188.454 157.767 188.876C157.993 189.293 158.106 189.794 158.106 190.378V197H155.524V195.638H155.447C155.289 195.945 155.078 196.216 154.814 196.45C154.55 196.68 154.232 196.862 153.862 196.994C153.491 197.121 153.063 197.185 152.577 197.185ZM153.357 195.306C153.757 195.306 154.111 195.227 154.418 195.07C154.725 194.908 154.965 194.69 155.14 194.418C155.315 194.145 155.402 193.836 155.402 193.491V192.449C155.317 192.504 155.2 192.555 155.051 192.602C154.906 192.645 154.742 192.685 154.558 192.724C154.375 192.758 154.192 192.79 154.009 192.82C153.825 192.845 153.659 192.869 153.51 192.89C153.19 192.937 152.911 193.011 152.673 193.114C152.434 193.216 152.249 193.354 152.117 193.529C151.984 193.7 151.918 193.913 151.918 194.168C151.918 194.539 152.053 194.822 152.321 195.018C152.594 195.21 152.939 195.306 153.357 195.306ZM162.941 183.909V197H160.218V183.909H162.941ZM173.292 189.982L170.799 190.135C170.756 189.922 170.665 189.73 170.524 189.56C170.383 189.385 170.198 189.246 169.968 189.144C169.742 189.038 169.472 188.984 169.156 188.984C168.734 188.984 168.378 189.074 168.089 189.253C167.799 189.428 167.654 189.662 167.654 189.956C167.654 190.19 167.748 190.388 167.935 190.55C168.123 190.712 168.445 190.842 168.9 190.94L170.677 191.298C171.632 191.494 172.344 191.81 172.812 192.244C173.281 192.679 173.516 193.25 173.516 193.957C173.516 194.601 173.326 195.165 172.947 195.651C172.572 196.137 172.056 196.516 171.4 196.789C170.748 197.058 169.996 197.192 169.143 197.192C167.844 197.192 166.808 196.921 166.037 196.38C165.27 195.835 164.82 195.093 164.688 194.156L167.366 194.015C167.447 194.411 167.643 194.714 167.954 194.923C168.266 195.127 168.664 195.229 169.15 195.229C169.627 195.229 170.011 195.138 170.3 194.955C170.594 194.767 170.744 194.526 170.748 194.232C170.744 193.985 170.639 193.783 170.435 193.625C170.23 193.463 169.915 193.339 169.489 193.254L167.788 192.915C166.829 192.724 166.116 192.391 165.647 191.918C165.182 191.445 164.95 190.842 164.95 190.109C164.95 189.479 165.121 188.935 165.462 188.479C165.807 188.023 166.29 187.672 166.913 187.425C167.539 187.178 168.272 187.054 169.111 187.054C170.351 187.054 171.327 187.316 172.039 187.84C172.755 188.364 173.172 189.078 173.292 189.982ZM179.705 197.192C178.695 197.192 177.825 196.987 177.097 196.578C176.372 196.165 175.814 195.581 175.422 194.827C175.03 194.068 174.834 193.171 174.834 192.136C174.834 191.126 175.03 190.239 175.422 189.477C175.814 188.714 176.366 188.119 177.078 187.693C177.793 187.267 178.633 187.054 179.596 187.054C180.244 187.054 180.847 187.158 181.405 187.367C181.967 187.572 182.457 187.881 182.875 188.294C183.297 188.707 183.625 189.227 183.859 189.854C184.094 190.476 184.211 191.205 184.211 192.04V192.788H175.921V191.1H181.648C181.648 190.708 181.563 190.361 181.392 190.058C181.222 189.756 180.985 189.519 180.683 189.349C180.384 189.174 180.037 189.087 179.641 189.087C179.227 189.087 178.861 189.183 178.541 189.374C178.226 189.562 177.979 189.815 177.8 190.135C177.621 190.45 177.529 190.802 177.525 191.19V192.794C177.525 193.28 177.614 193.7 177.793 194.053C177.977 194.407 178.234 194.68 178.567 194.871C178.899 195.063 179.293 195.159 179.749 195.159C180.052 195.159 180.329 195.116 180.58 195.031C180.832 194.946 181.047 194.818 181.226 194.648C181.405 194.477 181.541 194.268 181.635 194.021L184.153 194.188C184.026 194.793 183.764 195.321 183.367 195.773C182.975 196.22 182.468 196.57 181.846 196.821C181.228 197.068 180.514 197.192 179.705 197.192Z" fill="#EA4040"/>
<path d="M206.465 133.182V135.227H200.405V133.182H206.465ZM201.793 143V132.472C201.793 131.761 201.931 131.17 202.208 130.702C202.489 130.233 202.873 129.881 203.359 129.647C203.844 129.413 204.396 129.295 205.014 129.295C205.432 129.295 205.813 129.327 206.158 129.391C206.508 129.455 206.768 129.513 206.938 129.564L206.452 131.609C206.346 131.575 206.214 131.543 206.056 131.513C205.903 131.484 205.745 131.469 205.583 131.469C205.182 131.469 204.903 131.562 204.746 131.75C204.588 131.933 204.509 132.191 204.509 132.523V143H201.793ZM210.577 143.185C209.95 143.185 209.392 143.077 208.902 142.859C208.412 142.638 208.024 142.312 207.739 141.881C207.457 141.447 207.317 140.906 207.317 140.258C207.317 139.712 207.417 139.254 207.617 138.884C207.818 138.513 208.09 138.214 208.435 137.989C208.781 137.763 209.173 137.592 209.612 137.477C210.055 137.362 210.519 137.281 211.005 137.234C211.576 137.175 212.036 137.119 212.386 137.068C212.735 137.013 212.989 136.932 213.146 136.825C213.304 136.719 213.383 136.561 213.383 136.352V136.314C213.383 135.909 213.255 135.596 212.999 135.374C212.748 135.153 212.39 135.042 211.926 135.042C211.435 135.042 211.046 135.151 210.756 135.368C210.466 135.581 210.274 135.849 210.18 136.173L207.662 135.969C207.79 135.372 208.041 134.857 208.416 134.422C208.791 133.983 209.275 133.646 209.867 133.412C210.464 133.173 211.154 133.054 211.938 133.054C212.484 133.054 213.006 133.118 213.504 133.246C214.007 133.374 214.453 133.572 214.84 133.84C215.232 134.109 215.541 134.454 215.767 134.876C215.993 135.293 216.106 135.794 216.106 136.378V143H213.524V141.638H213.447C213.289 141.945 213.078 142.216 212.814 142.45C212.55 142.68 212.232 142.862 211.862 142.994C211.491 143.121 211.063 143.185 210.577 143.185ZM211.357 141.306C211.757 141.306 212.111 141.227 212.418 141.07C212.725 140.908 212.965 140.69 213.14 140.418C213.315 140.145 213.402 139.836 213.402 139.491V138.449C213.317 138.504 213.2 138.555 213.051 138.602C212.906 138.645 212.742 138.685 212.558 138.724C212.375 138.758 212.192 138.79 212.009 138.82C211.825 138.845 211.659 138.869 211.51 138.89C211.19 138.937 210.911 139.011 210.673 139.114C210.434 139.216 210.249 139.354 210.117 139.529C209.984 139.7 209.918 139.913 209.918 140.168C209.918 140.539 210.053 140.822 210.321 141.018C210.594 141.21 210.939 141.306 211.357 141.306ZM220.941 129.909V143H218.218V129.909H220.941ZM231.292 135.982L228.799 136.135C228.756 135.922 228.665 135.73 228.524 135.56C228.383 135.385 228.198 135.246 227.968 135.144C227.742 135.038 227.472 134.984 227.156 134.984C226.734 134.984 226.378 135.074 226.089 135.253C225.799 135.428 225.654 135.662 225.654 135.956C225.654 136.19 225.748 136.388 225.935 136.55C226.123 136.712 226.445 136.842 226.9 136.94L228.677 137.298C229.632 137.494 230.344 137.81 230.812 138.244C231.281 138.679 231.516 139.25 231.516 139.957C231.516 140.601 231.326 141.165 230.947 141.651C230.572 142.137 230.056 142.516 229.4 142.789C228.748 143.058 227.996 143.192 227.143 143.192C225.844 143.192 224.808 142.921 224.037 142.38C223.27 141.835 222.82 141.093 222.688 140.156L225.366 140.015C225.447 140.411 225.643 140.714 225.954 140.923C226.266 141.127 226.664 141.229 227.15 141.229C227.627 141.229 228.011 141.138 228.3 140.955C228.594 140.767 228.744 140.526 228.748 140.232C228.744 139.985 228.639 139.783 228.435 139.625C228.23 139.463 227.915 139.339 227.489 139.254L225.788 138.915C224.829 138.724 224.116 138.391 223.647 137.918C223.182 137.445 222.95 136.842 222.95 136.109C222.95 135.479 223.121 134.935 223.462 134.479C223.807 134.023 224.29 133.672 224.913 133.425C225.539 133.178 226.272 133.054 227.111 133.054C228.351 133.054 229.327 133.316 230.039 133.84C230.755 134.364 231.172 135.078 231.292 135.982ZM237.705 143.192C236.695 143.192 235.825 142.987 235.097 142.578C234.372 142.165 233.814 141.581 233.422 140.827C233.03 140.068 232.834 139.171 232.834 138.136C232.834 137.126 233.03 136.239 233.422 135.477C233.814 134.714 234.366 134.119 235.078 133.693C235.793 133.267 236.633 133.054 237.596 133.054C238.244 133.054 238.847 133.158 239.405 133.367C239.967 133.572 240.457 133.881 240.875 134.294C241.297 134.707 241.625 135.227 241.859 135.854C242.094 136.476 242.211 137.205 242.211 138.04V138.788H233.921V137.1H239.648C239.648 136.708 239.563 136.361 239.392 136.058C239.222 135.756 238.985 135.519 238.683 135.349C238.384 135.174 238.037 135.087 237.641 135.087C237.227 135.087 236.861 135.183 236.541 135.374C236.226 135.562 235.979 135.815 235.8 136.135C235.621 136.45 235.529 136.802 235.525 137.19V138.794C235.525 139.28 235.614 139.7 235.793 140.053C235.977 140.407 236.234 140.68 236.567 140.871C236.899 141.063 237.293 141.159 237.749 141.159C238.052 141.159 238.329 141.116 238.58 141.031C238.832 140.946 239.047 140.818 239.226 140.648C239.405 140.477 239.541 140.268 239.635 140.021L242.153 140.188C242.026 140.793 241.764 141.321 241.367 141.773C240.975 142.22 240.468 142.57 239.846 142.821C239.228 143.068 238.514 143.192 237.705 143.192Z" fill="#EA4040"/>
<rect x="40.5" y="40.5" width="247" height="124" stroke="black"/>
<line x1="164.5" y1="165" x2="164.5" y2="173" stroke="black"/>
<line x1="334.5" y1="103" x2="334.5" y2="111" stroke="black"/>
<line x1="369.5" y1="111" x2="369.5" y2="119" stroke="black"/>
<line x1="404.5" y1="103" x2="404.5" y2="111" stroke="black"/>
<line x1="334" y1="110.5" x2="404" y2="110.5" stroke="black"/>
<line x1="457.5" y1="103" x2="457.5" y2="111" stroke="black"/>
<line x1="511.5" y1="111" x2="511.5" y2="119" stroke="black"/>
<line x1="564.5" y1="103" x2="564.5" y2="111" stroke="black"/>
<line x1="457" y1="110.5" x2="564" y2="110.5" stroke="black"/>
<path d="M495.465 133.182V135.227H489.405V133.182H495.465ZM490.793 143V132.472C490.793 131.761 490.931 131.17 491.208 130.702C491.489 130.233 491.873 129.881 492.359 129.647C492.844 129.413 493.396 129.295 494.014 129.295C494.432 129.295 494.813 129.327 495.158 129.391C495.508 129.455 495.768 129.513 495.938 129.564L495.452 131.609C495.346 131.575 495.214 131.543 495.056 131.513C494.903 131.484 494.745 131.469 494.583 131.469C494.182 131.469 493.903 131.562 493.746 131.75C493.588 131.933 493.509 132.191 493.509 132.523V143H490.793ZM499.577 143.185C498.95 143.185 498.392 143.077 497.902 142.859C497.412 142.638 497.024 142.312 496.739 141.881C496.457 141.447 496.317 140.906 496.317 140.258C496.317 139.712 496.417 139.254 496.617 138.884C496.818 138.513 497.09 138.214 497.435 137.989C497.781 137.763 498.173 137.592 498.612 137.477C499.055 137.362 499.519 137.281 500.005 137.234C500.576 137.175 501.036 137.119 501.386 137.068C501.735 137.013 501.989 136.932 502.146 136.825C502.304 136.719 502.383 136.561 502.383 136.352V136.314C502.383 135.909 502.255 135.596 501.999 135.374C501.748 135.153 501.39 135.042 500.926 135.042C500.435 135.042 500.046 135.151 499.756 135.368C499.466 135.581 499.274 135.849 499.18 136.173L496.662 135.969C496.79 135.372 497.041 134.857 497.416 134.422C497.791 133.983 498.275 133.646 498.867 133.412C499.464 133.173 500.154 133.054 500.938 133.054C501.484 133.054 502.006 133.118 502.504 133.246C503.007 133.374 503.453 133.572 503.84 133.84C504.232 134.109 504.541 134.454 504.767 134.876C504.993 135.293 505.106 135.794 505.106 136.378V143H502.524V141.638H502.447C502.289 141.945 502.078 142.216 501.814 142.45C501.55 142.68 501.232 142.862 500.862 142.994C500.491 143.121 500.063 143.185 499.577 143.185ZM500.357 141.306C500.757 141.306 501.111 141.227 501.418 141.07C501.725 140.908 501.965 140.69 502.14 140.418C502.315 140.145 502.402 139.836 502.402 139.491V138.449C502.317 138.504 502.2 138.555 502.051 138.602C501.906 138.645 501.742 138.685 501.558 138.724C501.375 138.758 501.192 138.79 501.009 138.82C500.825 138.845 500.659 138.869 500.51 138.89C500.19 138.937 499.911 139.011 499.673 139.114C499.434 139.216 499.249 139.354 499.117 139.529C498.984 139.7 498.918 139.913 498.918 140.168C498.918 140.539 499.053 140.822 499.321 141.018C499.594 141.21 499.939 141.306 500.357 141.306ZM509.941 129.909V143H507.218V129.909H509.941ZM520.292 135.982L517.799 136.135C517.756 135.922 517.665 135.73 517.524 135.56C517.383 135.385 517.198 135.246 516.968 135.144C516.742 135.038 516.472 134.984 516.156 134.984C515.734 134.984 515.378 135.074 515.089 135.253C514.799 135.428 514.654 135.662 514.654 135.956C514.654 136.19 514.748 136.388 514.935 136.55C515.123 136.712 515.445 136.842 515.9 136.94L517.677 137.298C518.632 137.494 519.344 137.81 519.812 138.244C520.281 138.679 520.516 139.25 520.516 139.957C520.516 140.601 520.326 141.165 519.947 141.651C519.572 142.137 519.056 142.516 518.4 142.789C517.748 143.058 516.996 143.192 516.143 143.192C514.844 143.192 513.808 142.921 513.037 142.38C512.27 141.835 511.82 141.093 511.688 140.156L514.366 140.015C514.447 140.411 514.643 140.714 514.954 140.923C515.266 141.127 515.664 141.229 516.15 141.229C516.627 141.229 517.011 141.138 517.3 140.955C517.594 140.767 517.744 140.526 517.748 140.232C517.744 139.985 517.639 139.783 517.435 139.625C517.23 139.463 516.915 139.339 516.489 139.254L514.788 138.915C513.829 138.724 513.116 138.391 512.647 137.918C512.182 137.445 511.95 136.842 511.95 136.109C511.95 135.479 512.121 134.935 512.462 134.479C512.807 134.023 513.29 133.672 513.913 133.425C514.539 133.178 515.272 133.054 516.111 133.054C517.351 133.054 518.327 133.316 519.039 133.84C519.755 134.364 520.172 135.078 520.292 135.982ZM526.705 143.192C525.695 143.192 524.825 142.987 524.097 142.578C523.372 142.165 522.814 141.581 522.422 140.827C522.03 140.068 521.834 139.171 521.834 138.136C521.834 137.126 522.03 136.239 522.422 135.477C522.814 134.714 523.366 134.119 524.078 133.693C524.793 133.267 525.633 133.054 526.596 133.054C527.244 133.054 527.847 133.158 528.405 133.367C528.967 133.572 529.457 133.881 529.875 134.294C530.297 134.707 530.625 135.227 530.859 135.854C531.094 136.476 531.211 137.205 531.211 138.04V138.788H522.921V137.1H528.648C528.648 136.708 528.563 136.361 528.392 136.058C528.222 135.756 527.985 135.519 527.683 135.349C527.384 135.174 527.037 135.087 526.641 135.087C526.227 135.087 525.861 135.183 525.541 135.374C525.226 135.562 524.979 135.815 524.8 136.135C524.621 136.45 524.529 136.802 524.525 137.19V138.794C524.525 139.28 524.614 139.7 524.793 140.053C524.977 140.407 525.234 140.68 525.567 140.871C525.899 141.063 526.293 141.159 526.749 141.159C527.052 141.159 527.329 141.116 527.58 141.031C527.832 140.946 528.047 140.818 528.226 140.648C528.405 140.477 528.541 140.268 528.635 140.021L531.153 140.188C531.026 140.793 530.764 141.321 530.367 141.773C529.975 142.22 529.468 142.57 528.846 142.821C528.228 143.068 527.514 143.192 526.705 143.192Z" fill="#EA4040"/>
<path d="M359.651 133.182V135.227H353.738V133.182H359.651ZM355.08 130.83H357.803V139.983C357.803 140.234 357.842 140.43 357.919 140.571C357.995 140.707 358.102 140.803 358.238 140.859C358.379 140.914 358.541 140.942 358.724 140.942C358.852 140.942 358.98 140.931 359.107 140.91C359.235 140.884 359.333 140.865 359.401 140.852L359.83 142.879C359.693 142.921 359.502 142.97 359.254 143.026C359.007 143.085 358.707 143.121 358.353 143.134C357.697 143.16 357.122 143.072 356.627 142.872C356.137 142.672 355.756 142.361 355.483 141.939C355.21 141.517 355.076 140.984 355.08 140.341V130.83ZM361.425 143V133.182H364.064V134.895H364.167C364.346 134.286 364.646 133.825 365.068 133.514C365.49 133.199 365.976 133.041 366.525 133.041C366.662 133.041 366.809 133.05 366.966 133.067C367.124 133.084 367.263 133.107 367.382 133.137V135.553C367.254 135.515 367.077 135.481 366.851 135.451C366.626 135.421 366.419 135.406 366.231 135.406C365.831 135.406 365.473 135.494 365.157 135.668C364.846 135.839 364.599 136.077 364.416 136.384C364.237 136.691 364.148 137.045 364.148 137.445V143H361.425ZM375.086 138.82V133.182H377.809V143H375.195V141.217H375.092C374.871 141.792 374.502 142.254 373.987 142.604C373.475 142.953 372.851 143.128 372.114 143.128C371.457 143.128 370.88 142.979 370.381 142.68C369.883 142.382 369.493 141.958 369.212 141.408C368.935 140.859 368.794 140.2 368.79 139.433V133.182H371.513V138.947C371.517 139.527 371.673 139.985 371.979 140.322C372.286 140.658 372.697 140.827 373.213 140.827C373.541 140.827 373.848 140.752 374.134 140.603C374.419 140.45 374.649 140.224 374.824 139.925C375.003 139.627 375.09 139.259 375.086 138.82ZM384.461 143.192C383.452 143.192 382.582 142.987 381.854 142.578C381.129 142.165 380.571 141.581 380.179 140.827C379.787 140.068 379.591 139.171 379.591 138.136C379.591 137.126 379.787 136.239 380.179 135.477C380.571 134.714 381.123 134.119 381.834 133.693C382.55 133.267 383.39 133.054 384.353 133.054C385.001 133.054 385.604 133.158 386.162 133.367C386.724 133.572 387.214 133.881 387.632 134.294C388.054 134.707 388.382 135.227 388.616 135.854C388.851 136.476 388.968 137.205 388.968 138.04V138.788H380.677V137.1H386.405C386.405 136.708 386.319 136.361 386.149 136.058C385.979 135.756 385.742 135.519 385.439 135.349C385.141 135.174 384.794 135.087 384.398 135.087C383.984 135.087 383.618 135.183 383.298 135.374C382.983 135.562 382.736 135.815 382.557 136.135C382.378 136.45 382.286 136.802 382.282 137.19V138.794C382.282 139.28 382.371 139.7 382.55 140.053C382.733 140.407 382.991 140.68 383.324 140.871C383.656 141.063 384.05 141.159 384.506 141.159C384.809 141.159 385.086 141.116 385.337 141.031C385.589 140.946 385.804 140.818 385.983 140.648C386.162 140.477 386.298 140.268 386.392 140.021L388.91 140.188C388.782 140.793 388.52 141.321 388.124 141.773C387.732 142.22 387.225 142.57 386.603 142.821C385.985 143.068 385.271 143.192 384.461 143.192Z" fill="#00B43F"/>
<path d="M335.454 92.4205V89.0298L343.955 75.6364H346.878V80.3295H345.148L339.789 88.8111V88.9702H351.87V92.4205H335.454ZM345.228 96V91.3864L345.307 89.8849V75.6364H349.344V96H345.228ZM362.084 87.6974V84.1974L376.084 78.0327V82.0597L366.499 85.9077L366.628 85.6989V86.196L366.499 85.9872L376.084 89.8352V93.8622L362.084 87.6974ZM394.546 96.2784C393.499 96.2718 392.488 96.0961 391.513 95.7514C390.546 95.4067 389.677 94.8466 388.908 94.071C388.139 93.2955 387.529 92.268 387.079 90.9886C386.635 89.7093 386.412 88.1383 386.412 86.2756C386.419 84.5653 386.615 83.0374 386.999 81.6918C387.39 80.3395 387.947 79.1927 388.67 78.2514C389.399 77.3101 390.27 76.5942 391.285 76.1037C392.299 75.6065 393.436 75.358 394.695 75.358C396.054 75.358 397.254 75.6231 398.295 76.1534C399.335 76.6771 400.171 77.3897 400.8 78.2912C401.437 79.1927 401.821 80.2036 401.954 81.3239H397.708C397.542 80.6146 397.194 80.0578 396.664 79.6534C396.134 79.2491 395.477 79.0469 394.695 79.0469C393.369 79.0469 392.362 79.6236 391.672 80.777C390.99 81.9304 390.642 83.4981 390.628 85.4801H390.768C391.073 84.8769 391.483 84.3632 392.001 83.9389C392.524 83.508 393.117 83.1799 393.78 82.9545C394.45 82.7225 395.156 82.6065 395.898 82.6065C397.105 82.6065 398.179 82.8916 399.12 83.4616C400.061 84.0251 400.804 84.8007 401.347 85.7884C401.891 86.776 402.162 87.9062 402.162 89.179C402.162 90.5578 401.841 91.7841 401.198 92.858C400.562 93.9318 399.67 94.7737 398.523 95.3835C397.383 95.9867 396.057 96.285 394.546 96.2784ZM394.526 92.8977C395.189 92.8977 395.782 92.7386 396.306 92.4205C396.83 92.1023 397.241 91.6714 397.539 91.1278C397.837 90.5843 397.986 89.9744 397.986 89.2983C397.986 88.6222 397.837 88.0156 397.539 87.4787C397.247 86.9418 396.843 86.5142 396.326 86.196C395.809 85.8778 395.219 85.7188 394.556 85.7188C394.059 85.7188 393.598 85.8116 393.174 85.9972C392.756 86.1828 392.388 86.4413 392.07 86.7727C391.759 87.1042 391.513 87.4886 391.334 87.9261C391.155 88.357 391.066 88.8177 391.066 89.3082C391.066 89.9645 391.215 90.5644 391.513 91.108C391.818 91.6515 392.229 92.0857 392.746 92.4105C393.27 92.7353 393.863 92.8977 394.526 92.8977ZM417.98 96.2983C416.574 96.2983 415.361 96.0464 414.34 95.5426C413.32 95.0388 412.534 94.3561 411.984 93.4943C411.44 92.6259 411.169 91.6581 411.169 90.5909C411.169 89.7955 411.328 89.0895 411.646 88.473C411.964 87.8565 412.408 87.2898 412.978 86.7727C413.548 86.2491 414.211 85.7287 414.967 85.2116L418.914 82.6165C419.425 82.2917 419.799 81.9503 420.038 81.5923C420.276 81.2277 420.396 80.8333 420.396 80.4091C420.396 80.0047 420.233 79.6302 419.909 79.2855C419.584 78.9408 419.123 78.7718 418.526 78.7784C418.129 78.7784 417.784 78.8679 417.492 79.0469C417.201 79.2192 416.972 79.4479 416.806 79.733C416.647 80.0114 416.568 80.3229 416.568 80.6676C416.568 81.0919 416.687 81.5227 416.926 81.9602C417.164 82.3977 417.482 82.8617 417.88 83.3523C418.278 83.8362 418.712 84.3598 419.183 84.9233L428.838 96H424.423L416.369 87.0312C415.838 86.428 415.308 85.7983 414.778 85.142C414.254 84.4792 413.817 83.7765 413.465 83.0341C413.114 82.285 412.938 81.473 412.938 80.598C412.938 79.6103 413.167 78.7221 413.624 77.9332C414.088 77.1444 414.738 76.5213 415.573 76.0639C416.409 75.5999 417.383 75.3679 418.497 75.3679C419.584 75.3679 420.522 75.59 421.311 76.0341C422.106 76.4716 422.716 77.0549 423.14 77.7841C423.571 78.5066 423.786 79.3021 423.786 80.1705C423.786 81.1316 423.548 82.0033 423.07 82.7855C422.6 83.5611 421.937 84.2571 421.082 84.8736L416.926 87.8665C416.362 88.2775 415.945 88.6984 415.673 89.1293C415.408 89.5535 415.275 89.9612 415.275 90.3523C415.275 90.8362 415.394 91.2704 415.633 91.6548C415.872 92.0393 416.21 92.3442 416.647 92.5696C417.085 92.7884 417.598 92.8977 418.188 92.8977C418.904 92.8977 419.61 92.7353 420.306 92.4105C421.009 92.0791 421.645 91.6117 422.215 91.0085C422.792 90.3987 423.253 89.6761 423.597 88.8409C423.942 88.0057 424.115 87.081 424.115 86.0668H427.624C427.624 87.313 427.489 88.4366 427.217 89.4375C426.945 90.4318 426.567 91.3002 426.083 92.0426C425.599 92.7784 425.046 93.3816 424.423 93.8523C424.224 93.9782 424.032 94.0975 423.846 94.2102C423.66 94.3229 423.468 94.4422 423.269 94.5682C422.514 95.178 421.669 95.6188 420.734 95.8906C419.806 96.1624 418.888 96.2983 417.98 96.2983ZM436.847 96.2983C435.441 96.2983 434.228 96.0464 433.208 95.5426C432.187 95.0388 431.401 94.3561 430.851 93.4943C430.307 92.6259 430.036 91.6581 430.036 90.5909C430.036 89.7955 430.195 89.0895 430.513 88.473C430.831 87.8565 431.275 87.2898 431.845 86.7727C432.415 86.2491 433.078 85.7287 433.834 85.2116L437.781 82.6165C438.292 82.2917 438.666 81.9503 438.905 81.5923C439.144 81.2277 439.263 80.8333 439.263 80.4091C439.263 80.0047 439.101 79.6302 438.776 79.2855C438.451 78.9408 437.99 78.7718 437.394 78.7784C436.996 78.7784 436.651 78.8679 436.36 79.0469C436.068 79.2192 435.839 79.4479 435.673 79.733C435.514 80.0114 435.435 80.3229 435.435 80.6676C435.435 81.0919 435.554 81.5227 435.793 81.9602C436.031 82.3977 436.35 82.8617 436.747 83.3523C437.145 83.8362 437.579 84.3598 438.05 84.9233L447.705 96H443.29L435.236 87.0312C434.706 86.428 434.175 85.7983 433.645 85.142C433.121 84.4792 432.684 83.7765 432.333 83.0341C431.981 82.285 431.806 81.473 431.806 80.598C431.806 79.6103 432.034 78.7221 432.492 77.9332C432.956 77.1444 433.605 76.5213 434.441 76.0639C435.276 75.5999 436.25 75.3679 437.364 75.3679C438.451 75.3679 439.389 75.59 440.178 76.0341C440.973 76.4716 441.583 77.0549 442.007 77.7841C442.438 78.5066 442.654 79.3021 442.654 80.1705C442.654 81.1316 442.415 82.0033 441.938 82.7855C441.467 83.5611 440.804 84.2571 439.949 84.8736L435.793 87.8665C435.229 88.2775 434.812 88.6984 434.54 89.1293C434.275 89.5535 434.142 89.9612 434.142 90.3523C434.142 90.8362 434.262 91.2704 434.5 91.6548C434.739 92.0393 435.077 92.3442 435.514 92.5696C435.952 92.7884 436.466 92.8977 437.056 92.8977C437.771 92.8977 438.477 92.7353 439.173 92.4105C439.876 92.0791 440.512 91.6117 441.083 91.0085C441.659 90.3987 442.12 89.6761 442.465 88.8409C442.809 88.0057 442.982 87.081 442.982 86.0668H446.492C446.492 87.313 446.356 88.4366 446.084 89.4375C445.812 90.4318 445.434 91.3002 444.95 92.0426C444.467 92.7784 443.913 93.3816 443.29 93.8523C443.091 93.9782 442.899 94.0975 442.713 94.2102C442.528 94.3229 442.335 94.4422 442.137 94.5682C441.381 95.178 440.536 95.6188 439.601 95.8906C438.673 96.1624 437.755 96.2983 436.847 96.2983ZM455.602 92.4205V89.0298L464.104 75.6364H467.027V80.3295H465.297L459.937 88.8111V88.9702H472.018V92.4205H455.602ZM465.376 96V91.3864L465.456 89.8849V75.6364H469.493V96H465.376ZM474.887 96V92.8977L482.135 86.1861C482.752 85.5895 483.269 85.0526 483.687 84.5753C484.111 84.098 484.432 83.6307 484.651 83.1733C484.87 82.7093 484.979 82.2088 484.979 81.6719C484.979 81.0753 484.843 80.5616 484.572 80.1307C484.3 79.6932 483.929 79.3584 483.458 79.1264C482.987 78.8878 482.454 78.7685 481.857 78.7685C481.234 78.7685 480.69 78.8944 480.226 79.1463C479.762 79.3982 479.404 79.7595 479.153 80.2301C478.901 80.7008 478.775 81.2609 478.775 81.9105H474.688C474.688 80.5781 474.99 79.4214 475.593 78.4403C476.196 77.4593 477.041 76.7003 478.128 76.1634C479.215 75.6264 480.468 75.358 481.887 75.358C483.345 75.358 484.615 75.6165 485.695 76.1335C486.782 76.6439 487.627 77.3532 488.231 78.2614C488.834 79.1695 489.135 80.2102 489.135 81.3835C489.135 82.1525 488.983 82.9115 488.678 83.6605C488.38 84.4096 487.846 85.2415 487.077 86.1562C486.308 87.0644 485.224 88.1548 483.826 89.4276L480.853 92.3409V92.4801H489.404V96H474.887ZM513.869 87.6974L499.869 93.8622V89.8352L509.454 85.9872L509.325 86.196V85.6989L509.454 85.9077L499.869 82.0597V78.0327L513.869 84.1974V87.6974ZM524.208 92.4205V89.0298L532.709 75.6364H535.632V80.3295H533.902L528.543 88.8111V88.9702H540.624V92.4205H524.208ZM533.982 96V91.3864L534.061 89.8849V75.6364H538.098V96H533.982ZM550.93 96.2784C549.525 96.2784 548.272 96.0199 547.171 95.5028C546.078 94.9858 545.209 94.2732 544.566 93.3651C543.923 92.4569 543.588 91.4162 543.562 90.2429H547.738C547.785 91.0317 548.116 91.6714 548.732 92.1619C549.349 92.6525 550.081 92.8977 550.93 92.8977C551.606 92.8977 552.203 92.7486 552.72 92.4503C553.243 92.1454 553.651 91.7244 553.943 91.1875C554.241 90.6439 554.39 90.0208 554.39 89.3182C554.39 88.6023 554.238 87.9725 553.933 87.429C553.634 86.8854 553.22 86.4612 552.69 86.1562C552.16 85.8513 551.553 85.6955 550.87 85.6889C550.274 85.6889 549.694 85.8116 549.13 86.0568C548.573 86.3021 548.139 86.6368 547.828 87.0611L543.999 86.375L544.964 75.6364H557.413V79.1562H548.514L547.987 84.2571H548.106C548.464 83.7533 549.004 83.3357 549.727 83.0043C550.449 82.6728 551.258 82.5071 552.153 82.5071C553.379 82.5071 554.473 82.7955 555.434 83.3722C556.395 83.9489 557.154 84.741 557.711 85.7486C558.268 86.7495 558.543 87.9029 558.536 89.2088C558.543 90.581 558.225 91.8007 557.582 92.8679C556.945 93.9285 556.054 94.7637 554.907 95.3736C553.767 95.9768 552.441 96.2784 550.93 96.2784Z" fill="#333333"/>
<rect x="323.5" y="40.5" width="247" height="124" stroke="black"/>
<line x1="448.5" y1="165" x2="448.5" y2="173" stroke="black"/>
<path d="M436.465 187.182V189.227H430.405V187.182H436.465ZM431.793 197V186.472C431.793 185.761 431.931 185.17 432.208 184.702C432.489 184.233 432.873 183.881 433.359 183.647C433.844 183.413 434.396 183.295 435.014 183.295C435.432 183.295 435.813 183.327 436.158 183.391C436.508 183.455 436.768 183.513 436.938 183.564L436.452 185.609C436.346 185.575 436.214 185.543 436.056 185.513C435.903 185.484 435.745 185.469 435.583 185.469C435.182 185.469 434.903 185.562 434.746 185.75C434.588 185.933 434.509 186.191 434.509 186.523V197H431.793ZM440.577 197.185C439.95 197.185 439.392 197.077 438.902 196.859C438.412 196.638 438.024 196.312 437.739 195.881C437.457 195.447 437.317 194.906 437.317 194.258C437.317 193.712 437.417 193.254 437.617 192.884C437.818 192.513 438.09 192.214 438.435 191.989C438.781 191.763 439.173 191.592 439.612 191.477C440.055 191.362 440.519 191.281 441.005 191.234C441.576 191.175 442.036 191.119 442.386 191.068C442.735 191.013 442.989 190.932 443.146 190.825C443.304 190.719 443.383 190.561 443.383 190.352V190.314C443.383 189.909 443.255 189.596 442.999 189.374C442.748 189.153 442.39 189.042 441.926 189.042C441.435 189.042 441.046 189.151 440.756 189.368C440.466 189.581 440.274 189.849 440.18 190.173L437.662 189.969C437.79 189.372 438.041 188.857 438.416 188.422C438.791 187.983 439.275 187.646 439.867 187.412C440.464 187.173 441.154 187.054 441.938 187.054C442.484 187.054 443.006 187.118 443.504 187.246C444.007 187.374 444.453 187.572 444.84 187.84C445.232 188.109 445.541 188.454 445.767 188.876C445.993 189.293 446.106 189.794 446.106 190.378V197H443.524V195.638H443.447C443.289 195.945 443.078 196.216 442.814 196.45C442.55 196.68 442.232 196.862 441.862 196.994C441.491 197.121 441.063 197.185 440.577 197.185ZM441.357 195.306C441.757 195.306 442.111 195.227 442.418 195.07C442.725 194.908 442.965 194.69 443.14 194.418C443.315 194.145 443.402 193.836 443.402 193.491V192.449C443.317 192.504 443.2 192.555 443.051 192.602C442.906 192.645 442.742 192.685 442.558 192.724C442.375 192.758 442.192 192.79 442.009 192.82C441.825 192.845 441.659 192.869 441.51 192.89C441.19 192.937 440.911 193.011 440.673 193.114C440.434 193.216 440.249 193.354 440.117 193.529C439.984 193.7 439.918 193.913 439.918 194.168C439.918 194.539 440.053 194.822 440.321 195.018C440.594 195.21 440.939 195.306 441.357 195.306ZM450.941 183.909V197H448.218V183.909H450.941ZM461.292 189.982L458.799 190.135C458.756 189.922 458.665 189.73 458.524 189.56C458.383 189.385 458.198 189.246 457.968 189.144C457.742 189.038 457.472 188.984 457.156 188.984C456.734 188.984 456.378 189.074 456.089 189.253C455.799 189.428 455.654 189.662 455.654 189.956C455.654 190.19 455.748 190.388 455.935 190.55C456.123 190.712 456.445 190.842 456.9 190.94L458.677 191.298C459.632 191.494 460.344 191.81 460.812 192.244C461.281 192.679 461.516 193.25 461.516 193.957C461.516 194.601 461.326 195.165 460.947 195.651C460.572 196.137 460.056 196.516 459.4 196.789C458.748 197.058 457.996 197.192 457.143 197.192C455.844 197.192 454.808 196.921 454.037 196.38C453.27 195.835 452.82 195.093 452.688 194.156L455.366 194.015C455.447 194.411 455.643 194.714 455.954 194.923C456.266 195.127 456.664 195.229 457.15 195.229C457.627 195.229 458.011 195.138 458.3 194.955C458.594 194.767 458.744 194.526 458.748 194.232C458.744 193.985 458.639 193.783 458.435 193.625C458.23 193.463 457.915 193.339 457.489 193.254L455.788 192.915C454.829 192.724 454.116 192.391 453.647 191.918C453.182 191.445 452.95 190.842 452.95 190.109C452.95 189.479 453.121 188.935 453.462 188.479C453.807 188.023 454.29 187.672 454.913 187.425C455.539 187.178 456.272 187.054 457.111 187.054C458.351 187.054 459.327 187.316 460.039 187.84C460.755 188.364 461.172 189.078 461.292 189.982ZM467.705 197.192C466.695 197.192 465.825 196.987 465.097 196.578C464.372 196.165 463.814 195.581 463.422 194.827C463.03 194.068 462.834 193.171 462.834 192.136C462.834 191.126 463.03 190.239 463.422 189.477C463.814 188.714 464.366 188.119 465.078 187.693C465.793 187.267 466.633 187.054 467.596 187.054C468.244 187.054 468.847 187.158 469.405 187.367C469.967 187.572 470.457 187.881 470.875 188.294C471.297 188.707 471.625 189.227 471.859 189.854C472.094 190.476 472.211 191.205 472.211 192.04V192.788H463.921V191.1H469.648C469.648 190.708 469.563 190.361 469.392 190.058C469.222 189.756 468.985 189.519 468.683 189.349C468.384 189.174 468.037 189.087 467.641 189.087C467.227 189.087 466.861 189.183 466.541 189.374C466.226 189.562 465.979 189.815 465.8 190.135C465.621 190.45 465.529 190.802 465.525 191.19V192.794C465.525 193.28 465.614 193.7 465.793 194.053C465.977 194.407 466.234 194.68 466.567 194.871C466.899 195.063 467.293 195.159 467.749 195.159C468.052 195.159 468.329 195.116 468.58 195.031C468.832 194.946 469.047 194.818 469.226 194.648C469.405 194.477 469.541 194.268 469.635 194.021L472.153 194.188C472.026 194.793 471.764 195.321 471.367 195.773C470.975 196.22 470.468 196.57 469.846 196.821C469.228 197.068 468.514 197.192 467.705 197.192Z" fill="#EA4040"/>
<path d="M781.651 133.182V135.227H775.738V133.182H781.651ZM777.08 130.83H779.803V139.983C779.803 140.234 779.842 140.43 779.919 140.571C779.995 140.707 780.102 140.803 780.238 140.859C780.379 140.914 780.541 140.942 780.724 140.942C780.852 140.942 780.98 140.931 781.107 140.91C781.235 140.884 781.333 140.865 781.401 140.852L781.83 142.879C781.693 142.921 781.502 142.97 781.254 143.026C781.007 143.085 780.707 143.121 780.353 143.134C779.697 143.16 779.122 143.072 778.627 142.872C778.137 142.672 777.756 142.361 777.483 141.939C777.21 141.517 777.076 140.984 777.08 140.341V130.83ZM783.425 143V133.182H786.064V134.895H786.167C786.346 134.286 786.646 133.825 787.068 133.514C787.49 133.199 787.976 133.041 788.525 133.041C788.662 133.041 788.809 133.05 788.966 133.067C789.124 133.084 789.263 133.107 789.382 133.137V135.553C789.254 135.515 789.077 135.481 788.851 135.451C788.626 135.421 788.419 135.406 788.231 135.406C787.831 135.406 787.473 135.494 787.157 135.668C786.846 135.839 786.599 136.077 786.416 136.384C786.237 136.691 786.148 137.045 786.148 137.445V143H783.425ZM797.086 138.82V133.182H799.809V143H797.195V141.217H797.092C796.871 141.792 796.502 142.254 795.987 142.604C795.475 142.953 794.851 143.128 794.114 143.128C793.457 143.128 792.88 142.979 792.381 142.68C791.883 142.382 791.493 141.958 791.212 141.408C790.935 140.859 790.794 140.2 790.79 139.433V133.182H793.513V138.947C793.517 139.527 793.673 139.985 793.979 140.322C794.286 140.658 794.697 140.827 795.213 140.827C795.541 140.827 795.848 140.752 796.134 140.603C796.419 140.45 796.649 140.224 796.824 139.925C797.003 139.627 797.09 139.259 797.086 138.82ZM806.461 143.192C805.452 143.192 804.582 142.987 803.854 142.578C803.129 142.165 802.571 141.581 802.179 140.827C801.787 140.068 801.591 139.171 801.591 138.136C801.591 137.126 801.787 136.239 802.179 135.477C802.571 134.714 803.123 134.119 803.834 133.693C804.55 133.267 805.39 133.054 806.353 133.054C807.001 133.054 807.604 133.158 808.162 133.367C808.724 133.572 809.214 133.881 809.632 134.294C810.054 134.707 810.382 135.227 810.616 135.854C810.851 136.476 810.968 137.205 810.968 138.04V138.788H802.677V137.1H808.405C808.405 136.708 808.319 136.361 808.149 136.058C807.979 135.756 807.742 135.519 807.439 135.349C807.141 135.174 806.794 135.087 806.398 135.087C805.984 135.087 805.618 135.183 805.298 135.374C804.983 135.562 804.736 135.815 804.557 136.135C804.378 136.45 804.286 136.802 804.282 137.19V138.794C804.282 139.28 804.371 139.7 804.55 140.053C804.733 140.407 804.991 140.68 805.324 140.871C805.656 141.063 806.05 141.159 806.506 141.159C806.809 141.159 807.086 141.116 807.337 141.031C807.589 140.946 807.804 140.818 807.983 140.648C808.162 140.477 808.298 140.268 808.392 140.021L810.91 140.188C810.782 140.793 810.52 141.321 810.124 141.773C809.732 142.22 809.225 142.57 808.603 142.821C807.985 143.068 807.271 143.192 806.461 143.192Z" fill="#00B43F"/>
<path d="M617.5 103L617.5 111" stroke="black"/>
<line x1="653.5" y1="111" x2="653.5" y2="119" stroke="black"/>
<line x1="689.5" y1="103" x2="689.5" y2="111" stroke="black"/>
<line x1="617" y1="110.5" x2="689" y2="110.5" stroke="black"/>
<line x1="740.5" y1="103" x2="740.5" y2="111" stroke="black"/>
<line x1="794.5" y1="111" x2="794.5" y2="119" stroke="black"/>
<line x1="847.5" y1="103" x2="847.5" y2="111" stroke="black"/>
<line x1="740" y1="110.5" x2="847" y2="110.5" stroke="black"/>
<path d="M639.651 133.182V135.227H633.738V133.182H639.651ZM635.08 130.83H637.803V139.983C637.803 140.234 637.842 140.43 637.919 140.571C637.995 140.707 638.102 140.803 638.238 140.859C638.379 140.914 638.541 140.942 638.724 140.942C638.852 140.942 638.98 140.931 639.107 140.91C639.235 140.884 639.333 140.865 639.401 140.852L639.83 142.879C639.693 142.921 639.502 142.97 639.254 143.026C639.007 143.085 638.707 143.121 638.353 143.134C637.697 143.16 637.122 143.072 636.627 142.872C636.137 142.672 635.756 142.361 635.483 141.939C635.21 141.517 635.076 140.984 635.08 140.341V130.83ZM641.425 143V133.182H644.064V134.895H644.167C644.346 134.286 644.646 133.825 645.068 133.514C645.49 133.199 645.976 133.041 646.525 133.041C646.662 133.041 646.809 133.05 646.966 133.067C647.124 133.084 647.263 133.107 647.382 133.137V135.553C647.254 135.515 647.077 135.481 646.851 135.451C646.626 135.421 646.419 135.406 646.231 135.406C645.831 135.406 645.473 135.494 645.157 135.668C644.846 135.839 644.599 136.077 644.416 136.384C644.237 136.691 644.148 137.045 644.148 137.445V143H641.425ZM655.086 138.82V133.182H657.809V143H655.195V141.217H655.092C654.871 141.792 654.502 142.254 653.987 142.604C653.475 142.953 652.851 143.128 652.114 143.128C651.457 143.128 650.88 142.979 650.381 142.68C649.883 142.382 649.493 141.958 649.212 141.408C648.935 140.859 648.794 140.2 648.79 139.433V133.182H651.513V138.947C651.517 139.527 651.673 139.985 651.979 140.322C652.286 140.658 652.697 140.827 653.213 140.827C653.541 140.827 653.848 140.752 654.134 140.603C654.419 140.45 654.649 140.224 654.824 139.925C655.003 139.627 655.09 139.259 655.086 138.82ZM664.461 143.192C663.452 143.192 662.582 142.987 661.854 142.578C661.129 142.165 660.571 141.581 660.179 140.827C659.787 140.068 659.591 139.171 659.591 138.136C659.591 137.126 659.787 136.239 660.179 135.477C660.571 134.714 661.123 134.119 661.834 133.693C662.55 133.267 663.39 133.054 664.353 133.054C665.001 133.054 665.604 133.158 666.162 133.367C666.724 133.572 667.214 133.881 667.632 134.294C668.054 134.707 668.382 135.227 668.616 135.854C668.851 136.476 668.968 137.205 668.968 138.04V138.788H660.677V137.1H666.405C666.405 136.708 666.319 136.361 666.149 136.058C665.979 135.756 665.742 135.519 665.439 135.349C665.141 135.174 664.794 135.087 664.398 135.087C663.984 135.087 663.618 135.183 663.298 135.374C662.983 135.562 662.736 135.815 662.557 136.135C662.378 136.45 662.286 136.802 662.282 137.19V138.794C662.282 139.28 662.371 139.7 662.55 140.053C662.733 140.407 662.991 140.68 663.324 140.871C663.656 141.063 664.05 141.159 664.506 141.159C664.809 141.159 665.086 141.116 665.337 141.031C665.589 140.946 665.804 140.818 665.983 140.648C666.162 140.477 666.298 140.268 666.392 140.021L668.91 140.188C668.782 140.793 668.52 141.321 668.124 141.773C667.732 142.22 667.225 142.57 666.603 142.821C665.985 143.068 665.271 143.192 664.461 143.192Z" fill="#00B43F"/>
<path d="M718.651 187.182V189.227H712.738V187.182H718.651ZM714.08 184.83H716.803V193.983C716.803 194.234 716.842 194.43 716.919 194.571C716.995 194.707 717.102 194.803 717.238 194.859C717.379 194.914 717.541 194.942 717.724 194.942C717.852 194.942 717.98 194.931 718.107 194.91C718.235 194.884 718.333 194.865 718.401 194.852L718.83 196.879C718.693 196.921 718.502 196.97 718.254 197.026C718.007 197.085 717.707 197.121 717.353 197.134C716.697 197.16 716.122 197.072 715.627 196.872C715.137 196.672 714.756 196.361 714.483 195.939C714.21 195.517 714.076 194.984 714.08 194.341V184.83ZM720.425 197V187.182H723.064V188.895H723.167C723.346 188.286 723.646 187.825 724.068 187.514C724.49 187.199 724.976 187.041 725.525 187.041C725.662 187.041 725.809 187.05 725.966 187.067C726.124 187.084 726.263 187.107 726.382 187.137V189.553C726.254 189.515 726.077 189.481 725.851 189.451C725.626 189.421 725.419 189.406 725.231 189.406C724.831 189.406 724.473 189.494 724.157 189.668C723.846 189.839 723.599 190.077 723.416 190.384C723.237 190.691 723.148 191.045 723.148 191.445V197H720.425ZM734.086 192.82V187.182H736.809V197H734.195V195.217H734.092C733.871 195.792 733.502 196.254 732.987 196.604C732.475 196.953 731.851 197.128 731.114 197.128C730.457 197.128 729.88 196.979 729.381 196.68C728.883 196.382 728.493 195.958 728.212 195.408C727.935 194.859 727.794 194.2 727.79 193.433V187.182H730.513V192.947C730.517 193.527 730.673 193.985 730.979 194.322C731.286 194.658 731.697 194.827 732.213 194.827C732.541 194.827 732.848 194.752 733.134 194.603C733.419 194.45 733.649 194.224 733.824 193.925C734.003 193.627 734.09 193.259 734.086 192.82ZM743.461 197.192C742.452 197.192 741.582 196.987 740.854 196.578C740.129 196.165 739.571 195.581 739.179 194.827C738.787 194.068 738.591 193.171 738.591 192.136C738.591 191.126 738.787 190.239 739.179 189.477C739.571 188.714 740.123 188.119 740.834 187.693C741.55 187.267 742.39 187.054 743.353 187.054C744.001 187.054 744.604 187.158 745.162 187.367C745.724 187.572 746.214 187.881 746.632 188.294C747.054 188.707 747.382 189.227 747.616 189.854C747.851 190.476 747.968 191.205 747.968 192.04V192.788H739.677V191.1H745.405C745.405 190.708 745.319 190.361 745.149 190.058C744.979 189.756 744.742 189.519 744.439 189.349C744.141 189.174 743.794 189.087 743.398 189.087C742.984 189.087 742.618 189.183 742.298 189.374C741.983 189.562 741.736 189.815 741.557 190.135C741.378 190.45 741.286 190.802 741.282 191.19V192.794C741.282 193.28 741.371 193.7 741.55 194.053C741.733 194.407 741.991 194.68 742.324 194.871C742.656 195.063 743.05 195.159 743.506 195.159C743.809 195.159 744.086 195.116 744.337 195.031C744.589 194.946 744.804 194.818 744.983 194.648C745.162 194.477 745.298 194.268 745.392 194.021L747.91 194.188C747.782 194.793 747.52 195.321 747.124 195.773C746.732 196.22 746.225 196.57 745.603 196.821C744.985 197.068 744.271 197.192 743.461 197.192Z" fill="#00B43F"/>
<path d="M618.454 92.4205V89.0298L626.955 75.6364H629.878V80.3295H628.148L622.789 88.8111V88.9702H634.87V92.4205H618.454ZM628.228 96V91.3864L628.307 89.8849V75.6364H632.344V96H628.228ZM645.084 87.6974V84.1974L659.084 78.0327V82.0597L649.499 85.9077L649.628 85.6989V86.196L649.499 85.9872L659.084 89.8352V93.8622L645.084 87.6974ZM677.546 96.2784C676.499 96.2718 675.488 96.0961 674.513 95.7514C673.546 95.4067 672.677 94.8466 671.908 94.071C671.139 93.2955 670.529 92.268 670.079 90.9886C669.635 89.7093 669.412 88.1383 669.412 86.2756C669.419 84.5653 669.615 83.0374 669.999 81.6918C670.39 80.3395 670.947 79.1927 671.67 78.2514C672.399 77.3101 673.27 76.5942 674.285 76.1037C675.299 75.6065 676.436 75.358 677.695 75.358C679.054 75.358 680.254 75.6231 681.295 76.1534C682.335 76.6771 683.171 77.3897 683.8 78.2912C684.437 79.1927 684.821 80.2036 684.954 81.3239H680.708C680.542 80.6146 680.194 80.0578 679.664 79.6534C679.134 79.2491 678.477 79.0469 677.695 79.0469C676.369 79.0469 675.362 79.6236 674.672 80.777C673.99 81.9304 673.642 83.4981 673.628 85.4801H673.768C674.073 84.8769 674.483 84.3632 675.001 83.9389C675.524 83.508 676.117 83.1799 676.78 82.9545C677.45 82.7225 678.156 82.6065 678.898 82.6065C680.105 82.6065 681.179 82.8916 682.12 83.4616C683.061 84.0251 683.804 84.8007 684.347 85.7884C684.891 86.776 685.162 87.9062 685.162 89.179C685.162 90.5578 684.841 91.7841 684.198 92.858C683.562 93.9318 682.67 94.7737 681.523 95.3835C680.383 95.9867 679.057 96.285 677.546 96.2784ZM677.526 92.8977C678.189 92.8977 678.782 92.7386 679.306 92.4205C679.83 92.1023 680.241 91.6714 680.539 91.1278C680.837 90.5843 680.986 89.9744 680.986 89.2983C680.986 88.6222 680.837 88.0156 680.539 87.4787C680.247 86.9418 679.843 86.5142 679.326 86.196C678.809 85.8778 678.219 85.7188 677.556 85.7188C677.059 85.7188 676.598 85.8116 676.174 85.9972C675.756 86.1828 675.388 86.4413 675.07 86.7727C674.759 87.1042 674.513 87.4886 674.334 87.9261C674.155 88.357 674.066 88.8177 674.066 89.3082C674.066 89.9645 674.215 90.5644 674.513 91.108C674.818 91.6515 675.229 92.0857 675.746 92.4105C676.27 92.7353 676.863 92.8977 677.526 92.8977ZM700.98 96.2983C699.574 96.2983 698.361 96.0464 697.34 95.5426C696.32 95.0388 695.534 94.3561 694.984 93.4943C694.44 92.6259 694.169 91.6581 694.169 90.5909C694.169 89.7955 694.328 89.0895 694.646 88.473C694.964 87.8565 695.408 87.2898 695.978 86.7727C696.548 86.2491 697.211 85.7287 697.967 85.2116L701.914 82.6165C702.425 82.2917 702.799 81.9503 703.038 81.5923C703.276 81.2277 703.396 80.8333 703.396 80.4091C703.396 80.0047 703.233 79.6302 702.909 79.2855C702.584 78.9408 702.123 78.7718 701.526 78.7784C701.129 78.7784 700.784 78.8679 700.492 79.0469C700.201 79.2192 699.972 79.4479 699.806 79.733C699.647 80.0114 699.568 80.3229 699.568 80.6676C699.568 81.0919 699.687 81.5227 699.926 81.9602C700.164 82.3977 700.482 82.8617 700.88 83.3523C701.278 83.8362 701.712 84.3598 702.183 84.9233L711.838 96H707.423L699.369 87.0312C698.838 86.428 698.308 85.7983 697.778 85.142C697.254 84.4792 696.817 83.7765 696.465 83.0341C696.114 82.285 695.938 81.473 695.938 80.598C695.938 79.6103 696.167 78.7221 696.624 77.9332C697.088 77.1444 697.738 76.5213 698.573 76.0639C699.409 75.5999 700.383 75.3679 701.497 75.3679C702.584 75.3679 703.522 75.59 704.311 76.0341C705.106 76.4716 705.716 77.0549 706.14 77.7841C706.571 78.5066 706.786 79.3021 706.786 80.1705C706.786 81.1316 706.548 82.0033 706.07 82.7855C705.6 83.5611 704.937 84.2571 704.082 84.8736L699.926 87.8665C699.362 88.2775 698.945 88.6984 698.673 89.1293C698.408 89.5535 698.275 89.9612 698.275 90.3523C698.275 90.8362 698.394 91.2704 698.633 91.6548C698.872 92.0393 699.21 92.3442 699.647 92.5696C700.085 92.7884 700.598 92.8977 701.188 92.8977C701.904 92.8977 702.61 92.7353 703.306 92.4105C704.009 92.0791 704.645 91.6117 705.215 91.0085C705.792 90.3987 706.253 89.6761 706.597 88.8409C706.942 88.0057 707.115 87.081 707.115 86.0668H710.624C710.624 87.313 710.489 88.4366 710.217 89.4375C709.945 90.4318 709.567 91.3002 709.083 92.0426C708.599 92.7784 708.046 93.3816 707.423 93.8523C707.224 93.9782 707.032 94.0975 706.846 94.2102C706.66 94.3229 706.468 94.4422 706.269 94.5682C705.514 95.178 704.669 95.6188 703.734 95.8906C702.806 96.1624 701.888 96.2983 700.98 96.2983ZM719.847 96.2983C718.441 96.2983 717.228 96.0464 716.208 95.5426C715.187 95.0388 714.401 94.3561 713.851 93.4943C713.307 92.6259 713.036 91.6581 713.036 90.5909C713.036 89.7955 713.195 89.0895 713.513 88.473C713.831 87.8565 714.275 87.2898 714.845 86.7727C715.415 86.2491 716.078 85.7287 716.834 85.2116L720.781 82.6165C721.292 82.2917 721.666 81.9503 721.905 81.5923C722.144 81.2277 722.263 80.8333 722.263 80.4091C722.263 80.0047 722.101 79.6302 721.776 79.2855C721.451 78.9408 720.99 78.7718 720.394 78.7784C719.996 78.7784 719.651 78.8679 719.36 79.0469C719.068 79.2192 718.839 79.4479 718.673 79.733C718.514 80.0114 718.435 80.3229 718.435 80.6676C718.435 81.0919 718.554 81.5227 718.793 81.9602C719.031 82.3977 719.35 82.8617 719.747 83.3523C720.145 83.8362 720.579 84.3598 721.05 84.9233L730.705 96H726.29L718.236 87.0312C717.706 86.428 717.175 85.7983 716.645 85.142C716.121 84.4792 715.684 83.7765 715.333 83.0341C714.981 82.285 714.806 81.473 714.806 80.598C714.806 79.6103 715.034 78.7221 715.492 77.9332C715.956 77.1444 716.605 76.5213 717.441 76.0639C718.276 75.5999 719.25 75.3679 720.364 75.3679C721.451 75.3679 722.389 75.59 723.178 76.0341C723.973 76.4716 724.583 77.0549 725.007 77.7841C725.438 78.5066 725.654 79.3021 725.654 80.1705C725.654 81.1316 725.415 82.0033 724.938 82.7855C724.467 83.5611 723.804 84.2571 722.949 84.8736L718.793 87.8665C718.229 88.2775 717.812 88.6984 717.54 89.1293C717.275 89.5535 717.142 89.9612 717.142 90.3523C717.142 90.8362 717.262 91.2704 717.5 91.6548C717.739 92.0393 718.077 92.3442 718.514 92.5696C718.952 92.7884 719.466 92.8977 720.056 92.8977C720.771 92.8977 721.477 92.7353 722.173 92.4105C722.876 92.0791 723.512 91.6117 724.083 91.0085C724.659 90.3987 725.12 89.6761 725.465 88.8409C725.809 88.0057 725.982 87.081 725.982 86.0668H729.492C729.492 87.313 729.356 88.4366 729.084 89.4375C728.812 90.4318 728.434 91.3002 727.95 92.0426C727.467 92.7784 726.913 93.3816 726.29 93.8523C726.091 93.9782 725.899 94.0975 725.713 94.2102C725.528 94.3229 725.335 94.4422 725.137 94.5682C724.381 95.178 723.536 95.6188 722.601 95.8906C721.673 96.1624 720.755 96.2983 719.847 96.2983ZM738.602 92.4205V89.0298L747.104 75.6364H750.027V80.3295H748.297L742.937 88.8111V88.9702H755.018V92.4205H738.602ZM748.376 96V91.3864L748.456 89.8849V75.6364H752.493V96H748.376ZM757.887 96V92.8977L765.135 86.1861C765.752 85.5895 766.269 85.0526 766.687 84.5753C767.111 84.098 767.432 83.6307 767.651 83.1733C767.87 82.7093 767.979 82.2088 767.979 81.6719C767.979 81.0753 767.843 80.5616 767.572 80.1307C767.3 79.6932 766.929 79.3584 766.458 79.1264C765.987 78.8878 765.454 78.7685 764.857 78.7685C764.234 78.7685 763.69 78.8944 763.226 79.1463C762.762 79.3982 762.404 79.7595 762.153 80.2301C761.901 80.7008 761.775 81.2609 761.775 81.9105H757.688C757.688 80.5781 757.99 79.4214 758.593 78.4403C759.196 77.4593 760.041 76.7003 761.128 76.1634C762.215 75.6264 763.468 75.358 764.887 75.358C766.345 75.358 767.615 75.6165 768.695 76.1335C769.782 76.6439 770.627 77.3532 771.231 78.2614C771.834 79.1695 772.135 80.2102 772.135 81.3835C772.135 82.1525 771.983 82.9115 771.678 83.6605C771.38 84.4096 770.846 85.2415 770.077 86.1562C769.308 87.0644 768.224 88.1548 766.826 89.4276L763.853 92.3409V92.4801H772.404V96H757.887ZM782.869 87.6974V84.1974L796.869 78.0327V82.0597L787.284 85.9077L787.413 85.6989V86.196L787.284 85.9872L796.869 89.8352V93.8622L782.869 87.6974ZM807.208 92.4205V89.0298L815.709 75.6364H818.632V80.3295H816.902L811.543 88.8111V88.9702H823.624V92.4205H807.208ZM816.982 96V91.3864L817.061 89.8849V75.6364H821.098V96H816.982ZM833.93 96.2784C832.525 96.2784 831.272 96.0199 830.171 95.5028C829.078 94.9858 828.209 94.2732 827.566 93.3651C826.923 92.4569 826.588 91.4162 826.562 90.2429H830.738C830.785 91.0317 831.116 91.6714 831.732 92.1619C832.349 92.6525 833.081 92.8977 833.93 92.8977C834.606 92.8977 835.203 92.7486 835.72 92.4503C836.243 92.1454 836.651 91.7244 836.943 91.1875C837.241 90.6439 837.39 90.0208 837.39 89.3182C837.39 88.6023 837.238 87.9725 836.933 87.429C836.634 86.8854 836.22 86.4612 835.69 86.1562C835.16 85.8513 834.553 85.6955 833.87 85.6889C833.274 85.6889 832.694 85.8116 832.13 86.0568C831.573 86.3021 831.139 86.6368 830.828 87.0611L826.999 86.375L827.964 75.6364H840.413V79.1562H831.514L830.987 84.2571H831.106C831.464 83.7533 832.004 83.3357 832.727 83.0043C833.449 82.6728 834.258 82.5071 835.153 82.5071C836.379 82.5071 837.473 82.7955 838.434 83.3722C839.395 83.9489 840.154 84.741 840.711 85.7486C841.268 86.7495 841.543 87.9029 841.536 89.2088C841.543 90.581 841.225 91.8007 840.582 92.8679C839.945 93.9285 839.054 94.7637 837.907 95.3736C836.767 95.9768 835.441 96.2784 833.93 96.2784Z" fill="#333333"/>
<rect x="606.5" y="40.5" width="247" height="124" stroke="black"/>
<line x1="731.5" y1="165" x2="731.5" y2="173" stroke="black"/>
</svg>
