<svg width="603" height="241" viewBox="0 0 603 241" fill="none" xmlns="http://www.w3.org/2000/svg">
<rect width="603" height="241" fill="white"/>
<line x1="57.5" y1="103" x2="57.5" y2="111" stroke="black"/>
<line x1="89.5" y1="111" x2="89.5" y2="119" stroke="black"/>
<line x1="121.5" y1="103" x2="121.5" y2="111" stroke="black"/>
<line x1="57" y1="110.5" x2="121" y2="110.5" stroke="black"/>
<line x1="155.5" y1="103" x2="155.5" y2="111" stroke="black"/>
<line x1="213.5" y1="111" x2="213.5" y2="119" stroke="black"/>
<line x1="271.5" y1="103" x2="271.5" y2="111" stroke="black"/>
<line x1="155" y1="110.5" x2="271" y2="110.5" stroke="black"/>
<line x1="335.5" y1="103" x2="335.5" y2="111" stroke="black"/>
<line x1="369.5" y1="111" x2="369.5" y2="119" stroke="black"/>
<line x1="406.5" y1="103" x2="406.5" y2="111" stroke="black"/>
<line x1="335" y1="110.5" x2="406" y2="110.5" stroke="black"/>
<line x1="440.5" y1="103" x2="440.5" y2="111" stroke="black"/>
<line x1="494.5" y1="111" x2="494.5" y2="119" stroke="black"/>
<line x1="547.5" y1="103" x2="547.5" y2="111" stroke="black"/>
<line x1="440" y1="110.5" x2="547" y2="110.5" stroke="black"/>
<path d="M67.8967 75.6364V96H63.5913V79.723H63.4719L58.8086 82.6463V78.8281L63.8498 75.6364H67.8967ZM94.082 87.6974L80.082 93.8622V89.8352L89.6673 85.9872L89.538 86.196V85.6989L89.6673 85.9077L80.082 82.0597V78.0327L94.082 84.1974V87.6974ZM104.729 96V92.8977L111.977 86.1861C112.594 85.5895 113.111 85.0526 113.528 84.5753C113.953 84.098 114.274 83.6307 114.493 83.1733C114.712 82.7093 114.821 82.2088 114.821 81.6719C114.821 81.0753 114.685 80.5616 114.413 80.1307C114.142 79.6932 113.77 79.3584 113.3 79.1264C112.829 78.8878 112.295 78.7685 111.699 78.7685C111.076 78.7685 110.532 78.8944 110.068 79.1463C109.604 79.3982 109.246 79.7595 108.994 80.2301C108.742 80.7008 108.616 81.2609 108.616 81.9105H104.53C104.53 80.5781 104.831 79.4214 105.435 78.4403C106.038 77.4593 106.883 76.7003 107.97 76.1634C109.057 75.6264 110.31 75.358 111.729 75.358C113.187 75.358 114.456 75.6165 115.537 76.1335C116.624 76.6439 117.469 77.3532 118.072 78.2614C118.676 79.1695 118.977 80.2102 118.977 81.3835C118.977 82.1525 118.825 82.9115 118.52 83.6605C118.222 84.4096 117.688 85.2415 116.919 86.1562C116.15 87.0644 115.066 88.1548 113.668 89.4276L110.695 92.3409V92.4801H119.246V96H104.729ZM134.434 69.0739V102.562H130.417V69.0739H134.434ZM144.907 69.0739V102.562H140.89V69.0739H144.907ZM165.131 75.6364V96H160.826V79.723H160.706L156.043 82.6463V78.8281L161.084 75.6364H165.131ZM177.408 96.2784C176.003 96.2784 174.75 96.0199 173.65 95.5028C172.556 94.9858 171.688 94.2732 171.045 93.3651C170.402 92.4569 170.067 91.4162 170.04 90.2429H174.217C174.263 91.0317 174.594 91.6714 175.211 92.1619C175.827 92.6525 176.56 92.8977 177.408 92.8977C178.085 92.8977 178.681 92.7486 179.198 92.4503C179.722 92.1454 180.129 91.7244 180.421 91.1875C180.719 90.6439 180.869 90.0208 180.869 89.3182C180.869 88.6023 180.716 87.9725 180.411 87.429C180.113 86.8854 179.699 86.4612 179.168 86.1562C178.638 85.8513 178.031 85.6955 177.349 85.6889C176.752 85.6889 176.172 85.8116 175.609 86.0568C175.052 86.3021 174.618 86.6368 174.306 87.0611L170.478 86.375L171.442 75.6364H183.891V79.1562H174.992L174.465 84.2571H174.585C174.942 83.7533 175.483 83.3357 176.205 83.0043C176.928 82.6728 177.737 82.5071 178.631 82.5071C179.858 82.5071 180.951 82.7955 181.913 83.3722C182.874 83.9489 183.633 84.741 184.19 85.7486C184.746 86.7495 185.022 87.9029 185.015 89.2088C185.022 90.581 184.703 91.8007 184.06 92.8679C183.424 93.9285 182.532 94.7637 181.386 95.3736C180.246 95.9768 178.92 96.2784 177.408 96.2784ZM209.363 87.6974L195.363 93.8622V89.8352L204.949 85.9872L204.819 86.196V85.6989L204.949 85.9077L195.363 82.0597V78.0327L209.363 84.1974V87.6974ZM228.869 75.6364V96H224.564V79.723H224.445L219.781 82.6463V78.8281L224.822 75.6364H228.869ZM241.694 96.4474C239.983 96.4408 238.512 96.0199 237.279 95.1847C236.052 94.3494 235.108 93.1397 234.445 91.5554C233.789 89.9711 233.464 88.0653 233.471 85.8381C233.471 83.6174 233.799 81.7249 234.455 80.1605C235.118 78.5961 236.062 77.4062 237.289 76.5909C238.522 75.7689 239.99 75.358 241.694 75.358C243.397 75.358 244.862 75.7689 246.088 76.5909C247.321 77.4129 248.269 78.6061 248.932 80.1705C249.595 81.7282 249.923 83.6174 249.917 85.8381C249.917 88.072 249.585 89.9811 248.922 91.5653C248.266 93.1496 247.325 94.3594 246.098 95.1946C244.872 96.0298 243.404 96.4474 241.694 96.4474ZM241.694 92.8778C242.86 92.8778 243.792 92.2912 244.488 91.1179C245.184 89.9446 245.528 88.1847 245.522 85.8381C245.522 84.2936 245.363 83.0076 245.044 81.9801C244.733 80.9527 244.289 80.1804 243.712 79.6634C243.142 79.1463 242.469 78.8878 241.694 78.8878C240.533 78.8878 239.605 79.4678 238.909 80.6278C238.213 81.7879 237.862 83.5246 237.855 85.8381C237.855 87.4025 238.011 88.7083 238.323 89.7557C238.641 90.7964 239.088 91.5786 239.665 92.1023C240.242 92.6193 240.918 92.8778 241.694 92.8778ZM260.971 96.4474C259.261 96.4408 257.789 96.0199 256.556 95.1847C255.33 94.3494 254.385 93.1397 253.722 91.5554C253.066 89.9711 252.741 88.0653 252.748 85.8381C252.748 83.6174 253.076 81.7249 253.732 80.1605C254.395 78.5961 255.34 77.4062 256.566 76.5909C257.799 75.7689 259.267 75.358 260.971 75.358C262.674 75.358 264.139 75.7689 265.366 76.5909C266.599 77.4129 267.547 78.6061 268.21 80.1705C268.872 81.7282 269.201 83.6174 269.194 85.8381C269.194 88.072 268.862 89.9811 268.2 91.5653C267.543 93.1496 266.602 94.3594 265.376 95.1946C264.149 96.0298 262.681 96.4474 260.971 96.4474ZM260.971 92.8778C262.138 92.8778 263.069 92.2912 263.765 91.1179C264.461 89.9446 264.806 88.1847 264.799 85.8381C264.799 84.2936 264.64 83.0076 264.322 81.9801C264.01 80.9527 263.566 80.1804 262.989 79.6634C262.419 79.1463 261.746 78.8878 260.971 78.8878C259.811 78.8878 258.883 79.4678 258.187 80.6278C257.491 81.7879 257.139 83.5246 257.133 85.8381C257.133 87.4025 257.289 88.7083 257.6 89.7557C257.918 90.7964 258.366 91.5786 258.942 92.1023C259.519 92.6193 260.195 92.8778 260.971 92.8778Z" fill="#333333"/>
<path d="M73.4651 133.182V135.227H67.4055V133.182H73.4651ZM68.7925 143V132.472C68.7925 131.761 68.931 131.17 69.208 130.702C69.4893 130.233 69.8728 129.881 70.3586 129.647C70.8444 129.413 71.3962 129.295 72.0141 129.295C72.4317 129.295 72.8131 129.327 73.1583 129.391C73.5077 129.455 73.7677 129.513 73.9381 129.564L73.4523 131.609C73.3458 131.575 73.2137 131.543 73.056 131.513C72.9026 131.484 72.7449 131.469 72.583 131.469C72.1824 131.469 71.9033 131.562 71.7457 131.75C71.588 131.933 71.5091 132.191 71.5091 132.523V143H68.7925ZM77.5768 143.185C76.9504 143.185 76.3921 143.077 75.9021 142.859C75.412 142.638 75.0242 142.312 74.7387 141.881C74.4575 141.447 74.3169 140.906 74.3169 140.258C74.3169 139.712 74.417 139.254 74.6173 138.884C74.8176 138.513 75.0903 138.214 75.4355 137.989C75.7806 137.763 76.1727 137.592 76.6116 137.477C77.0548 137.362 77.5193 137.281 78.0051 137.234C78.5761 137.175 79.0363 137.119 79.3857 137.068C79.7352 137.013 79.9887 136.932 80.1464 136.825C80.3041 136.719 80.3829 136.561 80.3829 136.352V136.314C80.3829 135.909 80.2551 135.596 79.9994 135.374C79.748 135.153 79.39 135.042 78.9255 135.042C78.4355 135.042 78.0455 135.151 77.7558 135.368C77.466 135.581 77.2742 135.849 77.1805 136.173L74.662 135.969C74.7899 135.372 75.0413 134.857 75.4163 134.422C75.7913 133.983 76.2749 133.646 76.8673 133.412C77.4639 133.173 78.1542 133.054 78.9383 133.054C79.4838 133.054 80.0058 133.118 80.5044 133.246C81.0072 133.374 81.4525 133.572 81.8403 133.84C82.2323 134.109 82.5413 134.454 82.7671 134.876C82.993 135.293 83.1059 135.794 83.1059 136.378V143H80.5235V141.638H80.4468C80.2892 141.945 80.0782 142.216 79.814 142.45C79.5498 142.68 79.2323 142.862 78.8616 142.994C78.4909 143.121 78.0626 143.185 77.5768 143.185ZM78.3566 141.306C78.7572 141.306 79.1109 141.227 79.4177 141.07C79.7245 140.908 79.9653 140.69 80.14 140.418C80.3147 140.145 80.4021 139.836 80.4021 139.491V138.449C80.3169 138.504 80.1997 138.555 80.0505 138.602C79.9056 138.645 79.7416 138.685 79.5583 138.724C79.3751 138.758 79.1919 138.79 79.0086 138.82C78.8254 138.845 78.6592 138.869 78.51 138.89C78.1904 138.937 77.9113 139.011 77.6727 139.114C77.434 139.216 77.2487 139.354 77.1166 139.529C76.9845 139.7 76.9184 139.913 76.9184 140.168C76.9184 140.539 77.0526 140.822 77.3211 141.018C77.5938 141.21 77.939 141.306 78.3566 141.306ZM87.9415 129.909V143H85.2185V129.909H87.9415ZM98.2918 135.982L95.7989 136.135C95.7563 135.922 95.6647 135.73 95.5241 135.56C95.3834 135.385 95.1981 135.246 94.968 135.144C94.7421 135.038 94.4715 134.984 94.1562 134.984C93.7343 134.984 93.3785 135.074 93.0887 135.253C92.7989 135.428 92.654 135.662 92.654 135.956C92.654 136.19 92.7478 136.388 92.9353 136.55C93.1228 136.712 93.4445 136.842 93.9005 136.94L95.6775 137.298C96.632 137.494 97.3437 137.81 97.8124 138.244C98.2812 138.679 98.5155 139.25 98.5155 139.957C98.5155 140.601 98.3259 141.165 97.9466 141.651C97.5716 142.137 97.056 142.516 96.3998 142.789C95.7478 143.058 94.9957 143.192 94.1434 143.192C92.8437 143.192 91.8081 142.921 91.0368 142.38C90.2698 141.835 89.8202 141.093 89.6881 140.156L92.3664 140.015C92.4474 140.411 92.6434 140.714 92.9545 140.923C93.2655 141.127 93.664 141.229 94.1498 141.229C94.627 141.229 95.0106 141.138 95.3003 140.955C95.5944 140.767 95.7435 140.526 95.7478 140.232C95.7435 139.985 95.6391 139.783 95.4346 139.625C95.23 139.463 94.9147 139.339 94.4885 139.254L92.7883 138.915C91.8295 138.724 91.1157 138.391 90.6469 137.918C90.1824 137.445 89.9502 136.842 89.9502 136.109C89.9502 135.479 90.1206 134.935 90.4616 134.479C90.8067 134.023 91.2904 133.672 91.9126 133.425C92.539 133.178 93.2719 133.054 94.1114 133.054C95.3515 133.054 96.3273 133.316 97.039 133.84C97.7549 134.364 98.1725 135.078 98.2918 135.982ZM104.705 143.192C103.695 143.192 102.825 142.987 102.097 142.578C101.372 142.165 100.814 141.581 100.422 140.827C100.03 140.068 99.8339 139.171 99.8339 138.136C99.8339 137.126 100.03 136.239 100.422 135.477C100.814 134.714 101.366 134.119 102.078 133.693C102.793 133.267 103.633 133.054 104.596 133.054C105.244 133.054 105.847 133.158 106.405 133.367C106.967 133.572 107.457 133.881 107.875 134.294C108.297 134.707 108.625 135.227 108.859 135.854C109.094 136.476 109.211 137.205 109.211 138.04V138.788H100.921V137.1H106.648C106.648 136.708 106.563 136.361 106.392 136.058C106.222 135.756 105.985 135.519 105.683 135.349C105.384 135.174 105.037 135.087 104.641 135.087C104.227 135.087 103.861 135.183 103.541 135.374C103.226 135.562 102.979 135.815 102.8 136.135C102.621 136.45 102.529 136.802 102.525 137.19V138.794C102.525 139.28 102.614 139.7 102.793 140.053C102.977 140.407 103.234 140.68 103.567 140.871C103.899 141.063 104.293 141.159 104.749 141.159C105.052 141.159 105.329 141.116 105.58 141.031C105.832 140.946 106.047 140.818 106.226 140.648C106.405 140.477 106.541 140.268 106.635 140.021L109.153 140.188C109.026 140.793 108.764 141.321 108.367 141.773C107.975 142.22 107.468 142.57 106.846 142.821C106.228 143.068 105.514 143.192 104.705 143.192Z" fill="#EA4040"/>
<path d="M148.465 187.182V189.227H142.405V187.182H148.465ZM143.793 197V186.472C143.793 185.761 143.931 185.17 144.208 184.702C144.489 184.233 144.873 183.881 145.359 183.647C145.844 183.413 146.396 183.295 147.014 183.295C147.432 183.295 147.813 183.327 148.158 183.391C148.508 183.455 148.768 183.513 148.938 183.564L148.452 185.609C148.346 185.575 148.214 185.543 148.056 185.513C147.903 185.484 147.745 185.469 147.583 185.469C147.182 185.469 146.903 185.562 146.746 185.75C146.588 185.933 146.509 186.191 146.509 186.523V197H143.793ZM152.577 197.185C151.95 197.185 151.392 197.077 150.902 196.859C150.412 196.638 150.024 196.312 149.739 195.881C149.457 195.447 149.317 194.906 149.317 194.258C149.317 193.712 149.417 193.254 149.617 192.884C149.818 192.513 150.09 192.214 150.435 191.989C150.781 191.763 151.173 191.592 151.612 191.477C152.055 191.362 152.519 191.281 153.005 191.234C153.576 191.175 154.036 191.119 154.386 191.068C154.735 191.013 154.989 190.932 155.146 190.825C155.304 190.719 155.383 190.561 155.383 190.352V190.314C155.383 189.909 155.255 189.596 154.999 189.374C154.748 189.153 154.39 189.042 153.926 189.042C153.435 189.042 153.046 189.151 152.756 189.368C152.466 189.581 152.274 189.849 152.18 190.173L149.662 189.969C149.79 189.372 150.041 188.857 150.416 188.422C150.791 187.983 151.275 187.646 151.867 187.412C152.464 187.173 153.154 187.054 153.938 187.054C154.484 187.054 155.006 187.118 155.504 187.246C156.007 187.374 156.453 187.572 156.84 187.84C157.232 188.109 157.541 188.454 157.767 188.876C157.993 189.293 158.106 189.794 158.106 190.378V197H155.524V195.638H155.447C155.289 195.945 155.078 196.216 154.814 196.45C154.55 196.68 154.232 196.862 153.862 196.994C153.491 197.121 153.063 197.185 152.577 197.185ZM153.357 195.306C153.757 195.306 154.111 195.227 154.418 195.07C154.725 194.908 154.965 194.69 155.14 194.418C155.315 194.145 155.402 193.836 155.402 193.491V192.449C155.317 192.504 155.2 192.555 155.051 192.602C154.906 192.645 154.742 192.685 154.558 192.724C154.375 192.758 154.192 192.79 154.009 192.82C153.825 192.845 153.659 192.869 153.51 192.89C153.19 192.937 152.911 193.011 152.673 193.114C152.434 193.216 152.249 193.354 152.117 193.529C151.984 193.7 151.918 193.913 151.918 194.168C151.918 194.539 152.053 194.822 152.321 195.018C152.594 195.21 152.939 195.306 153.357 195.306ZM162.941 183.909V197H160.218V183.909H162.941ZM173.292 189.982L170.799 190.135C170.756 189.922 170.665 189.73 170.524 189.56C170.383 189.385 170.198 189.246 169.968 189.144C169.742 189.038 169.472 188.984 169.156 188.984C168.734 188.984 168.378 189.074 168.089 189.253C167.799 189.428 167.654 189.662 167.654 189.956C167.654 190.19 167.748 190.388 167.935 190.55C168.123 190.712 168.445 190.842 168.9 190.94L170.677 191.298C171.632 191.494 172.344 191.81 172.812 192.244C173.281 192.679 173.516 193.25 173.516 193.957C173.516 194.601 173.326 195.165 172.947 195.651C172.572 196.137 172.056 196.516 171.4 196.789C170.748 197.058 169.996 197.192 169.143 197.192C167.844 197.192 166.808 196.921 166.037 196.38C165.27 195.835 164.82 195.093 164.688 194.156L167.366 194.015C167.447 194.411 167.643 194.714 167.954 194.923C168.266 195.127 168.664 195.229 169.15 195.229C169.627 195.229 170.011 195.138 170.3 194.955C170.594 194.767 170.744 194.526 170.748 194.232C170.744 193.985 170.639 193.783 170.435 193.625C170.23 193.463 169.915 193.339 169.489 193.254L167.788 192.915C166.829 192.724 166.116 192.391 165.647 191.918C165.182 191.445 164.95 190.842 164.95 190.109C164.95 189.479 165.121 188.935 165.462 188.479C165.807 188.023 166.29 187.672 166.913 187.425C167.539 187.178 168.272 187.054 169.111 187.054C170.351 187.054 171.327 187.316 172.039 187.84C172.755 188.364 173.172 189.078 173.292 189.982ZM179.705 197.192C178.695 197.192 177.825 196.987 177.097 196.578C176.372 196.165 175.814 195.581 175.422 194.827C175.03 194.068 174.834 193.171 174.834 192.136C174.834 191.126 175.03 190.239 175.422 189.477C175.814 188.714 176.366 188.119 177.078 187.693C177.793 187.267 178.633 187.054 179.596 187.054C180.244 187.054 180.847 187.158 181.405 187.367C181.967 187.572 182.457 187.881 182.875 188.294C183.297 188.707 183.625 189.227 183.859 189.854C184.094 190.476 184.211 191.205 184.211 192.04V192.788H175.921V191.1H181.648C181.648 190.708 181.563 190.361 181.392 190.058C181.222 189.756 180.985 189.519 180.683 189.349C180.384 189.174 180.037 189.087 179.641 189.087C179.227 189.087 178.861 189.183 178.541 189.374C178.226 189.562 177.979 189.815 177.8 190.135C177.621 190.45 177.529 190.802 177.525 191.19V192.794C177.525 193.28 177.614 193.7 177.793 194.053C177.977 194.407 178.234 194.68 178.567 194.871C178.899 195.063 179.293 195.159 179.749 195.159C180.052 195.159 180.329 195.116 180.58 195.031C180.832 194.946 181.047 194.818 181.226 194.648C181.405 194.477 181.541 194.268 181.635 194.021L184.153 194.188C184.026 194.793 183.764 195.321 183.367 195.773C182.975 196.22 182.468 196.57 181.846 196.821C181.228 197.068 180.514 197.192 179.705 197.192Z" fill="#EA4040"/>
<path d="M197.465 133.182V135.227H191.405V133.182H197.465ZM192.793 143V132.472C192.793 131.761 192.931 131.17 193.208 130.702C193.489 130.233 193.873 129.881 194.359 129.647C194.844 129.413 195.396 129.295 196.014 129.295C196.432 129.295 196.813 129.327 197.158 129.391C197.508 129.455 197.768 129.513 197.938 129.564L197.452 131.609C197.346 131.575 197.214 131.543 197.056 131.513C196.903 131.484 196.745 131.469 196.583 131.469C196.182 131.469 195.903 131.562 195.746 131.75C195.588 131.933 195.509 132.191 195.509 132.523V143H192.793ZM201.577 143.185C200.95 143.185 200.392 143.077 199.902 142.859C199.412 142.638 199.024 142.312 198.739 141.881C198.457 141.447 198.317 140.906 198.317 140.258C198.317 139.712 198.417 139.254 198.617 138.884C198.818 138.513 199.09 138.214 199.435 137.989C199.781 137.763 200.173 137.592 200.612 137.477C201.055 137.362 201.519 137.281 202.005 137.234C202.576 137.175 203.036 137.119 203.386 137.068C203.735 137.013 203.989 136.932 204.146 136.825C204.304 136.719 204.383 136.561 204.383 136.352V136.314C204.383 135.909 204.255 135.596 203.999 135.374C203.748 135.153 203.39 135.042 202.926 135.042C202.435 135.042 202.046 135.151 201.756 135.368C201.466 135.581 201.274 135.849 201.18 136.173L198.662 135.969C198.79 135.372 199.041 134.857 199.416 134.422C199.791 133.983 200.275 133.646 200.867 133.412C201.464 133.173 202.154 133.054 202.938 133.054C203.484 133.054 204.006 133.118 204.504 133.246C205.007 133.374 205.453 133.572 205.84 133.84C206.232 134.109 206.541 134.454 206.767 134.876C206.993 135.293 207.106 135.794 207.106 136.378V143H204.524V141.638H204.447C204.289 141.945 204.078 142.216 203.814 142.45C203.55 142.68 203.232 142.862 202.862 142.994C202.491 143.121 202.063 143.185 201.577 143.185ZM202.357 141.306C202.757 141.306 203.111 141.227 203.418 141.07C203.725 140.908 203.965 140.69 204.14 140.418C204.315 140.145 204.402 139.836 204.402 139.491V138.449C204.317 138.504 204.2 138.555 204.051 138.602C203.906 138.645 203.742 138.685 203.558 138.724C203.375 138.758 203.192 138.79 203.009 138.82C202.825 138.845 202.659 138.869 202.51 138.89C202.19 138.937 201.911 139.011 201.673 139.114C201.434 139.216 201.249 139.354 201.117 139.529C200.984 139.7 200.918 139.913 200.918 140.168C200.918 140.539 201.053 140.822 201.321 141.018C201.594 141.21 201.939 141.306 202.357 141.306ZM211.941 129.909V143H209.218V129.909H211.941ZM222.292 135.982L219.799 136.135C219.756 135.922 219.665 135.73 219.524 135.56C219.383 135.385 219.198 135.246 218.968 135.144C218.742 135.038 218.472 134.984 218.156 134.984C217.734 134.984 217.378 135.074 217.089 135.253C216.799 135.428 216.654 135.662 216.654 135.956C216.654 136.19 216.748 136.388 216.935 136.55C217.123 136.712 217.445 136.842 217.9 136.94L219.677 137.298C220.632 137.494 221.344 137.81 221.812 138.244C222.281 138.679 222.516 139.25 222.516 139.957C222.516 140.601 222.326 141.165 221.947 141.651C221.572 142.137 221.056 142.516 220.4 142.789C219.748 143.058 218.996 143.192 218.143 143.192C216.844 143.192 215.808 142.921 215.037 142.38C214.27 141.835 213.82 141.093 213.688 140.156L216.366 140.015C216.447 140.411 216.643 140.714 216.954 140.923C217.266 141.127 217.664 141.229 218.15 141.229C218.627 141.229 219.011 141.138 219.3 140.955C219.594 140.767 219.744 140.526 219.748 140.232C219.744 139.985 219.639 139.783 219.435 139.625C219.23 139.463 218.915 139.339 218.489 139.254L216.788 138.915C215.829 138.724 215.116 138.391 214.647 137.918C214.182 137.445 213.95 136.842 213.95 136.109C213.95 135.479 214.121 134.935 214.462 134.479C214.807 134.023 215.29 133.672 215.913 133.425C216.539 133.178 217.272 133.054 218.111 133.054C219.351 133.054 220.327 133.316 221.039 133.84C221.755 134.364 222.172 135.078 222.292 135.982ZM228.705 143.192C227.695 143.192 226.825 142.987 226.097 142.578C225.372 142.165 224.814 141.581 224.422 140.827C224.03 140.068 223.834 139.171 223.834 138.136C223.834 137.126 224.03 136.239 224.422 135.477C224.814 134.714 225.366 134.119 226.078 133.693C226.793 133.267 227.633 133.054 228.596 133.054C229.244 133.054 229.847 133.158 230.405 133.367C230.967 133.572 231.457 133.881 231.875 134.294C232.297 134.707 232.625 135.227 232.859 135.854C233.094 136.476 233.211 137.205 233.211 138.04V138.788H224.921V137.1H230.648C230.648 136.708 230.563 136.361 230.392 136.058C230.222 135.756 229.985 135.519 229.683 135.349C229.384 135.174 229.037 135.087 228.641 135.087C228.227 135.087 227.861 135.183 227.541 135.374C227.226 135.562 226.979 135.815 226.8 136.135C226.621 136.45 226.529 136.802 226.525 137.19V138.794C226.525 139.28 226.614 139.7 226.793 140.053C226.977 140.407 227.234 140.68 227.567 140.871C227.899 141.063 228.293 141.159 228.749 141.159C229.052 141.159 229.329 141.116 229.58 141.031C229.832 140.946 230.047 140.818 230.226 140.648C230.405 140.477 230.541 140.268 230.635 140.021L233.153 140.188C233.026 140.793 232.764 141.321 232.367 141.773C231.975 142.22 231.468 142.57 230.846 142.821C230.228 143.068 229.514 143.192 228.705 143.192Z" fill="#EA4040"/>
<path d="M478.465 133.182V135.227H472.405V133.182H478.465ZM473.793 143V132.472C473.793 131.761 473.931 131.17 474.208 130.702C474.489 130.233 474.873 129.881 475.359 129.647C475.844 129.413 476.396 129.295 477.014 129.295C477.432 129.295 477.813 129.327 478.158 129.391C478.508 129.455 478.768 129.513 478.938 129.564L478.452 131.609C478.346 131.575 478.214 131.543 478.056 131.513C477.903 131.484 477.745 131.469 477.583 131.469C477.182 131.469 476.903 131.562 476.746 131.75C476.588 131.933 476.509 132.191 476.509 132.523V143H473.793ZM482.577 143.185C481.95 143.185 481.392 143.077 480.902 142.859C480.412 142.638 480.024 142.312 479.739 141.881C479.457 141.447 479.317 140.906 479.317 140.258C479.317 139.712 479.417 139.254 479.617 138.884C479.818 138.513 480.09 138.214 480.435 137.989C480.781 137.763 481.173 137.592 481.612 137.477C482.055 137.362 482.519 137.281 483.005 137.234C483.576 137.175 484.036 137.119 484.386 137.068C484.735 137.013 484.989 136.932 485.146 136.825C485.304 136.719 485.383 136.561 485.383 136.352V136.314C485.383 135.909 485.255 135.596 484.999 135.374C484.748 135.153 484.39 135.042 483.926 135.042C483.435 135.042 483.046 135.151 482.756 135.368C482.466 135.581 482.274 135.849 482.18 136.173L479.662 135.969C479.79 135.372 480.041 134.857 480.416 134.422C480.791 133.983 481.275 133.646 481.867 133.412C482.464 133.173 483.154 133.054 483.938 133.054C484.484 133.054 485.006 133.118 485.504 133.246C486.007 133.374 486.453 133.572 486.84 133.84C487.232 134.109 487.541 134.454 487.767 134.876C487.993 135.293 488.106 135.794 488.106 136.378V143H485.524V141.638H485.447C485.289 141.945 485.078 142.216 484.814 142.45C484.55 142.68 484.232 142.862 483.862 142.994C483.491 143.121 483.063 143.185 482.577 143.185ZM483.357 141.306C483.757 141.306 484.111 141.227 484.418 141.07C484.725 140.908 484.965 140.69 485.14 140.418C485.315 140.145 485.402 139.836 485.402 139.491V138.449C485.317 138.504 485.2 138.555 485.051 138.602C484.906 138.645 484.742 138.685 484.558 138.724C484.375 138.758 484.192 138.79 484.009 138.82C483.825 138.845 483.659 138.869 483.51 138.89C483.19 138.937 482.911 139.011 482.673 139.114C482.434 139.216 482.249 139.354 482.117 139.529C481.984 139.7 481.918 139.913 481.918 140.168C481.918 140.539 482.053 140.822 482.321 141.018C482.594 141.21 482.939 141.306 483.357 141.306ZM492.941 129.909V143H490.218V129.909H492.941ZM503.292 135.982L500.799 136.135C500.756 135.922 500.665 135.73 500.524 135.56C500.383 135.385 500.198 135.246 499.968 135.144C499.742 135.038 499.472 134.984 499.156 134.984C498.734 134.984 498.378 135.074 498.089 135.253C497.799 135.428 497.654 135.662 497.654 135.956C497.654 136.19 497.748 136.388 497.935 136.55C498.123 136.712 498.445 136.842 498.9 136.94L500.677 137.298C501.632 137.494 502.344 137.81 502.812 138.244C503.281 138.679 503.516 139.25 503.516 139.957C503.516 140.601 503.326 141.165 502.947 141.651C502.572 142.137 502.056 142.516 501.4 142.789C500.748 143.058 499.996 143.192 499.143 143.192C497.844 143.192 496.808 142.921 496.037 142.38C495.27 141.835 494.82 141.093 494.688 140.156L497.366 140.015C497.447 140.411 497.643 140.714 497.954 140.923C498.266 141.127 498.664 141.229 499.15 141.229C499.627 141.229 500.011 141.138 500.3 140.955C500.594 140.767 500.744 140.526 500.748 140.232C500.744 139.985 500.639 139.783 500.435 139.625C500.23 139.463 499.915 139.339 499.489 139.254L497.788 138.915C496.829 138.724 496.116 138.391 495.647 137.918C495.182 137.445 494.95 136.842 494.95 136.109C494.95 135.479 495.121 134.935 495.462 134.479C495.807 134.023 496.29 133.672 496.913 133.425C497.539 133.178 498.272 133.054 499.111 133.054C500.351 133.054 501.327 133.316 502.039 133.84C502.755 134.364 503.172 135.078 503.292 135.982ZM509.705 143.192C508.695 143.192 507.825 142.987 507.097 142.578C506.372 142.165 505.814 141.581 505.422 140.827C505.03 140.068 504.834 139.171 504.834 138.136C504.834 137.126 505.03 136.239 505.422 135.477C505.814 134.714 506.366 134.119 507.078 133.693C507.793 133.267 508.633 133.054 509.596 133.054C510.244 133.054 510.847 133.158 511.405 133.367C511.967 133.572 512.457 133.881 512.875 134.294C513.297 134.707 513.625 135.227 513.859 135.854C514.094 136.476 514.211 137.205 514.211 138.04V138.788H505.921V137.1H511.648C511.648 136.708 511.563 136.361 511.392 136.058C511.222 135.756 510.985 135.519 510.683 135.349C510.384 135.174 510.037 135.087 509.641 135.087C509.227 135.087 508.861 135.183 508.541 135.374C508.226 135.562 507.979 135.815 507.8 136.135C507.621 136.45 507.529 136.802 507.525 137.19V138.794C507.525 139.28 507.614 139.7 507.793 140.053C507.977 140.407 508.234 140.68 508.567 140.871C508.899 141.063 509.293 141.159 509.749 141.159C510.052 141.159 510.329 141.116 510.58 141.031C510.832 140.946 511.047 140.818 511.226 140.648C511.405 140.477 511.541 140.268 511.635 140.021L514.153 140.188C514.026 140.793 513.764 141.321 513.367 141.773C512.975 142.22 512.468 142.57 511.846 142.821C511.228 143.068 510.514 143.192 509.705 143.192Z" fill="#EA4040"/>
<path d="M356.651 133.182V135.227H350.738V133.182H356.651ZM352.08 130.83H354.803V139.983C354.803 140.234 354.842 140.43 354.919 140.571C354.995 140.707 355.102 140.803 355.238 140.859C355.379 140.914 355.541 140.942 355.724 140.942C355.852 140.942 355.98 140.931 356.107 140.91C356.235 140.884 356.333 140.865 356.401 140.852L356.83 142.879C356.693 142.921 356.502 142.97 356.254 143.026C356.007 143.085 355.707 143.121 355.353 143.134C354.697 143.16 354.122 143.072 353.627 142.872C353.137 142.672 352.756 142.361 352.483 141.939C352.21 141.517 352.076 140.984 352.08 140.341V130.83ZM358.425 143V133.182H361.064V134.895H361.167C361.346 134.286 361.646 133.825 362.068 133.514C362.49 133.199 362.976 133.041 363.525 133.041C363.662 133.041 363.809 133.05 363.966 133.067C364.124 133.084 364.263 133.107 364.382 133.137V135.553C364.254 135.515 364.077 135.481 363.851 135.451C363.626 135.421 363.419 135.406 363.231 135.406C362.831 135.406 362.473 135.494 362.157 135.668C361.846 135.839 361.599 136.077 361.416 136.384C361.237 136.691 361.148 137.045 361.148 137.445V143H358.425ZM372.086 138.82V133.182H374.809V143H372.195V141.217H372.092C371.871 141.792 371.502 142.254 370.987 142.604C370.475 142.953 369.851 143.128 369.114 143.128C368.457 143.128 367.88 142.979 367.381 142.68C366.883 142.382 366.493 141.958 366.212 141.408C365.935 140.859 365.794 140.2 365.79 139.433V133.182H368.513V138.947C368.517 139.527 368.673 139.985 368.979 140.322C369.286 140.658 369.697 140.827 370.213 140.827C370.541 140.827 370.848 140.752 371.134 140.603C371.419 140.45 371.649 140.224 371.824 139.925C372.003 139.627 372.09 139.259 372.086 138.82ZM381.461 143.192C380.452 143.192 379.582 142.987 378.854 142.578C378.129 142.165 377.571 141.581 377.179 140.827C376.787 140.068 376.591 139.171 376.591 138.136C376.591 137.126 376.787 136.239 377.179 135.477C377.571 134.714 378.123 134.119 378.834 133.693C379.55 133.267 380.39 133.054 381.353 133.054C382.001 133.054 382.604 133.158 383.162 133.367C383.724 133.572 384.214 133.881 384.632 134.294C385.054 134.707 385.382 135.227 385.616 135.854C385.851 136.476 385.968 137.205 385.968 138.04V138.788H377.677V137.1H383.405C383.405 136.708 383.319 136.361 383.149 136.058C382.979 135.756 382.742 135.519 382.439 135.349C382.141 135.174 381.794 135.087 381.398 135.087C380.984 135.087 380.618 135.183 380.298 135.374C379.983 135.562 379.736 135.815 379.557 136.135C379.378 136.45 379.286 136.802 379.282 137.19V138.794C379.282 139.28 379.371 139.7 379.55 140.053C379.733 140.407 379.991 140.68 380.324 140.871C380.656 141.063 381.05 141.159 381.506 141.159C381.809 141.159 382.086 141.116 382.337 141.031C382.589 140.946 382.804 140.818 382.983 140.648C383.162 140.477 383.298 140.268 383.392 140.021L385.91 140.188C385.782 140.793 385.52 141.321 385.124 141.773C384.732 142.22 384.225 142.57 383.603 142.821C382.985 143.068 382.271 143.192 381.461 143.192Z" fill="#00B43F"/>
<path d="M427.651 187.182V189.227H421.738V187.182H427.651ZM423.08 184.83H425.803V193.983C425.803 194.234 425.842 194.43 425.919 194.571C425.995 194.707 426.102 194.803 426.238 194.859C426.379 194.914 426.541 194.942 426.724 194.942C426.852 194.942 426.98 194.931 427.107 194.91C427.235 194.884 427.333 194.865 427.401 194.852L427.83 196.879C427.693 196.921 427.502 196.97 427.254 197.026C427.007 197.085 426.707 197.121 426.353 197.134C425.697 197.16 425.122 197.072 424.627 196.872C424.137 196.672 423.756 196.361 423.483 195.939C423.21 195.517 423.076 194.984 423.08 194.341V184.83ZM429.425 197V187.182H432.064V188.895H432.167C432.346 188.286 432.646 187.825 433.068 187.514C433.49 187.199 433.976 187.041 434.525 187.041C434.662 187.041 434.809 187.05 434.966 187.067C435.124 187.084 435.263 187.107 435.382 187.137V189.553C435.254 189.515 435.077 189.481 434.851 189.451C434.626 189.421 434.419 189.406 434.231 189.406C433.831 189.406 433.473 189.494 433.157 189.668C432.846 189.839 432.599 190.077 432.416 190.384C432.237 190.691 432.148 191.045 432.148 191.445V197H429.425ZM443.086 192.82V187.182H445.809V197H443.195V195.217H443.092C442.871 195.792 442.502 196.254 441.987 196.604C441.475 196.953 440.851 197.128 440.114 197.128C439.457 197.128 438.88 196.979 438.381 196.68C437.883 196.382 437.493 195.958 437.212 195.408C436.935 194.859 436.794 194.2 436.79 193.433V187.182H439.513V192.947C439.517 193.527 439.673 193.985 439.979 194.322C440.286 194.658 440.697 194.827 441.213 194.827C441.541 194.827 441.848 194.752 442.134 194.603C442.419 194.45 442.649 194.224 442.824 193.925C443.003 193.627 443.09 193.259 443.086 192.82ZM452.461 197.192C451.452 197.192 450.582 196.987 449.854 196.578C449.129 196.165 448.571 195.581 448.179 194.827C447.787 194.068 447.591 193.171 447.591 192.136C447.591 191.126 447.787 190.239 448.179 189.477C448.571 188.714 449.123 188.119 449.834 187.693C450.55 187.267 451.39 187.054 452.353 187.054C453.001 187.054 453.604 187.158 454.162 187.367C454.724 187.572 455.214 187.881 455.632 188.294C456.054 188.707 456.382 189.227 456.616 189.854C456.851 190.476 456.968 191.205 456.968 192.04V192.788H448.677V191.1H454.405C454.405 190.708 454.319 190.361 454.149 190.058C453.979 189.756 453.742 189.519 453.439 189.349C453.141 189.174 452.794 189.087 452.398 189.087C451.984 189.087 451.618 189.183 451.298 189.374C450.983 189.562 450.736 189.815 450.557 190.135C450.378 190.45 450.286 190.802 450.282 191.19V192.794C450.282 193.28 450.371 193.7 450.55 194.053C450.733 194.407 450.991 194.68 451.324 194.871C451.656 195.063 452.05 195.159 452.506 195.159C452.809 195.159 453.086 195.116 453.337 195.031C453.589 194.946 453.804 194.818 453.983 194.648C454.162 194.477 454.298 194.268 454.392 194.021L456.91 194.188C456.782 194.793 456.52 195.321 456.124 195.773C455.732 196.22 455.225 196.57 454.603 196.821C453.985 197.068 453.271 197.192 452.461 197.192Z" fill="#00B43F"/>
<path d="M336.348 92.4205V89.0298L344.85 75.6364H347.773V80.3295H346.043L340.683 88.8111V88.9702H352.764V92.4205H336.348ZM346.122 96V91.3864L346.202 89.8849V75.6364H350.239V96H346.122ZM362.979 87.6974V84.1974L376.979 78.0327V82.0597L367.393 85.9077L367.523 85.6989V86.196L367.393 85.9872L376.979 89.8352V93.8622L362.979 87.6974ZM395.441 96.2784C394.393 96.2718 393.382 96.0961 392.408 95.7514C391.44 95.4067 390.572 94.8466 389.803 94.071C389.034 93.2955 388.424 92.268 387.973 90.9886C387.529 89.7093 387.307 88.1383 387.307 86.2756C387.314 84.5653 387.509 83.0374 387.894 81.6918C388.285 80.3395 388.842 79.1927 389.564 78.2514C390.293 77.3101 391.165 76.5942 392.179 76.1037C393.193 75.6065 394.33 75.358 395.59 75.358C396.949 75.358 398.148 75.6231 399.189 76.1534C400.23 76.6771 401.065 77.3897 401.695 78.2912C402.331 79.1927 402.716 80.2036 402.848 81.3239H398.602C398.437 80.6146 398.089 80.0578 397.558 79.6534C397.028 79.2491 396.372 79.0469 395.59 79.0469C394.264 79.0469 393.256 79.6236 392.567 80.777C391.884 81.9304 391.536 83.4981 391.523 85.4801H391.662C391.967 84.8769 392.378 84.3632 392.895 83.9389C393.419 83.508 394.012 83.1799 394.675 82.9545C395.344 82.7225 396.05 82.6065 396.793 82.6065C397.999 82.6065 399.073 82.8916 400.014 83.4616C400.956 84.0251 401.698 84.8007 402.242 85.7884C402.785 86.776 403.057 87.9062 403.057 89.179C403.057 90.5578 402.736 91.7841 402.093 92.858C401.456 93.9318 400.565 94.7737 399.418 95.3835C398.278 95.9867 396.952 96.285 395.441 96.2784ZM395.421 92.8977C396.084 92.8977 396.677 92.7386 397.2 92.4205C397.724 92.1023 398.135 91.6714 398.433 91.1278C398.732 90.5843 398.881 89.9744 398.881 89.2983C398.881 88.6222 398.732 88.0156 398.433 87.4787C398.142 86.9418 397.737 86.5142 397.22 86.196C396.703 85.8778 396.113 85.7188 395.45 85.7188C394.953 85.7188 394.493 85.8116 394.068 85.9972C393.651 86.1828 393.283 86.4413 392.965 86.7727C392.653 87.1042 392.408 87.4886 392.229 87.9261C392.05 88.357 391.96 88.8177 391.96 89.3082C391.96 89.9645 392.11 90.5644 392.408 91.108C392.713 91.6515 393.124 92.0857 393.641 92.4105C394.164 92.7353 394.758 92.8977 395.421 92.8977ZM418.178 69.0739V102.562H414.161V69.0739H418.178ZM428.651 69.0739V102.562H424.634V69.0739H428.651ZM439.708 92.4205V89.0298L448.209 75.6364H451.132V80.3295H449.402L444.043 88.8111V88.9702H456.124V92.4205H439.708ZM449.482 96V91.3864L449.561 89.8849V75.6364H453.598V96H449.482ZM458.992 96V92.8977L466.241 86.1861C466.857 85.5895 467.374 85.0526 467.792 84.5753C468.216 84.098 468.538 83.6307 468.757 83.1733C468.975 82.7093 469.085 82.2088 469.085 81.6719C469.085 81.0753 468.949 80.5616 468.677 80.1307C468.405 79.6932 468.034 79.3584 467.563 79.1264C467.093 78.8878 466.559 78.7685 465.963 78.7685C465.339 78.7685 464.796 78.8944 464.332 79.1463C463.868 79.3982 463.51 79.7595 463.258 80.2301C463.006 80.7008 462.88 81.2609 462.88 81.9105H458.794C458.794 80.5781 459.095 79.4214 459.698 78.4403C460.302 77.4593 461.147 76.7003 462.234 76.1634C463.321 75.6264 464.574 75.358 465.992 75.358C467.451 75.358 468.72 75.6165 469.801 76.1335C470.888 76.6439 471.733 77.3532 472.336 78.2614C472.939 79.1695 473.241 80.2102 473.241 81.3835C473.241 82.1525 473.088 82.9115 472.784 83.6605C472.485 84.4096 471.952 85.2415 471.183 86.1562C470.414 87.0644 469.33 88.1548 467.931 89.4276L464.958 92.3409V92.4801H473.509V96H458.992ZM497.975 87.6974L483.975 93.8622V89.8352L493.56 85.9872L493.431 86.196V85.6989L493.56 85.9077L483.975 82.0597V78.0327L497.975 84.1974V87.6974ZM508.313 92.4205V89.0298L516.814 75.6364H519.738V80.3295H518.008L512.648 88.8111V88.9702H524.729V92.4205H508.313ZM518.087 96V91.3864L518.167 89.8849V75.6364H522.204V96H518.087ZM535.035 96.2784C533.63 96.2784 532.377 96.0199 531.277 95.5028C530.183 94.9858 529.315 94.2732 528.672 93.3651C528.029 92.4569 527.694 91.4162 527.667 90.2429H531.844C531.89 91.0317 532.221 91.6714 532.838 92.1619C533.454 92.6525 534.187 92.8977 535.035 92.8977C535.711 92.8977 536.308 92.7486 536.825 92.4503C537.349 92.1454 537.756 91.7244 538.048 91.1875C538.346 90.6439 538.496 90.0208 538.496 89.3182C538.496 88.6023 538.343 87.9725 538.038 87.429C537.74 86.8854 537.326 86.4612 536.795 86.1562C536.265 85.8513 535.658 85.6955 534.976 85.6889C534.379 85.6889 533.799 85.8116 533.236 86.0568C532.679 86.3021 532.245 86.6368 531.933 87.0611L528.105 86.375L529.069 75.6364H541.518V79.1562H532.619L532.092 84.2571H532.211C532.569 83.7533 533.11 83.3357 533.832 83.0043C534.555 82.6728 535.363 82.5071 536.258 82.5071C537.485 82.5071 538.578 82.7955 539.54 83.3722C540.501 83.9489 541.26 84.741 541.817 85.7486C542.373 86.7495 542.648 87.9029 542.642 89.2088C542.648 90.581 542.33 91.8007 541.687 92.8679C541.051 93.9285 540.159 94.7637 539.013 95.3736C537.872 95.9768 536.547 96.2784 535.035 96.2784Z" fill="#333333"/>
<rect x="40.5" y="40.5" width="247" height="124" stroke="black"/>
<rect x="315.5" y="40.5" width="247" height="124" stroke="black"/>
<line x1="164.5" y1="165" x2="164.5" y2="173" stroke="black"/>
<line x1="440.5" y1="165" x2="440.5" y2="173" stroke="black"/>
</svg>
