<svg width="623" height="161" viewBox="0 0 623 161" fill="none" xmlns="http://www.w3.org/2000/svg">
<rect width="623" height="161" fill="white"/>
<rect x="40" y="40" width="141" height="81" rx="20" fill="#00B43F"/>
<rect x="241" y="40" width="141" height="81" rx="20" fill="#85E2A6"/>
<rect x="442" y="40" width="141" height="81" rx="20" fill="#00B43F"/>
<path d="M225.427 81.2049C223.598 81.1151 221.902 81.0253 220.206 80.9516C219.907 80.939 219.605 80.9821 219.305 81.0073C219.029 81.0307 218.75 81.0486 218.475 81.0917C218.098 81.1492 217.728 81.2535 217.349 81.2912C216.991 81.3271 216.626 81.2858 216.267 81.3074C215.266 81.3685 214.267 81.4637 213.266 81.4996C212.99 81.5104 212.709 81.3128 212.427 81.3002C211.529 81.2588 210.614 81.1654 209.73 81.2768C209.048 81.3613 208.636 81.3703 208.643 80.5509C208.643 80.4934 208.46 80.4359 208.275 80.3281C208.352 81.0846 207.847 81.0432 207.396 81.2948C206.455 81.823 205.777 81.4475 204.962 81.187C204.62 81.0774 204.175 81.3235 203.772 81.3756C203.262 81.4439 202.748 81.4781 202.234 81.532C202.053 81.5517 201.873 81.6038 201.691 81.6074C201.384 81.6146 201.077 81.6074 200.771 81.5823C200.524 81.5625 200.277 81.4655 200.033 81.4745C198.897 81.5194 197.76 81.5607 196.628 81.6613C195.415 81.7709 194.206 81.5948 192.973 81.8176C192.389 81.9237 191.653 81.2391 191.013 80.8636C190.963 80.8348 191.063 80.3048 191.214 80.2203C192.255 79.6363 193.288 78.9446 194.589 79.4818C194.697 79.5267 194.914 79.3686 195.052 79.268C196.109 78.49 197.279 78.5026 198.499 78.7074C198.772 78.7541 199.196 78.7451 199.336 78.5798C199.843 77.9869 200.349 78.2744 200.939 78.3552C201.652 78.4541 202.412 78.3858 203.131 78.26C205.391 77.8665 207.648 77.8827 209.917 78.1216C210.356 78.1684 210.898 77.8845 211.243 78.057C212.014 78.4433 212.738 78.0372 213.482 78.1181C214.138 78.1899 214.817 78.0462 215.487 77.9977C215.604 77.9887 215.733 77.9528 215.834 77.9905C216.98 78.4289 218.116 77.9779 219.255 77.9905C220.348 78.0013 221.433 78.039 222.536 78.3732C223.844 78.7703 225.265 78.7954 226.636 78.9823L226.692 78.7092C225.826 78.4019 224.958 78.1019 224.099 77.7785C223.957 77.7246 223.866 77.5467 223.731 77.4586C223.339 77.2017 222.942 76.9555 222.54 76.7166C222.34 76.598 222.13 76.4973 221.92 76.4003C221.557 76.2332 221.201 76.0481 220.824 75.9206C219.437 75.448 218.217 74.6538 217.05 73.8111C216.714 73.5668 216.236 73.3619 216.059 73.0834C215.759 72.6145 215.654 71.9533 215.683 71.3837C215.69 71.2292 216.499 70.9381 216.882 71.0117C217.746 71.1788 218.606 71.4627 219.406 71.8311C220.389 72.2839 221.309 72.8732 222.258 73.3997C222.414 73.4859 222.572 73.5991 222.741 73.6279C223.713 73.7896 224.489 74.228 225.316 74.8155C226.866 75.917 228.622 76.7345 230.313 77.6293C230.99 77.9869 231.177 78.4397 230.828 79.1404C230.699 79.401 230.686 79.7208 230.548 79.9723C230.273 80.4665 229.946 80.9318 229.642 81.4098C229.204 82.1015 228.778 82.8023 228.322 83.4815C228.142 83.7492 227.939 84.0403 227.677 84.2038C226.525 84.9225 225.945 86.0707 225.255 87.1667C224.929 87.6842 224.29 87.9932 223.826 88.4334C223.303 88.9312 222.874 89.5439 222.299 89.9625C221.857 90.2859 221.253 90.5393 220.719 90.5447C220.107 90.5501 219.9 89.9661 220.053 89.4109C220.339 88.3616 220.597 87.3356 221.591 86.5953C222.081 86.2306 222.27 85.449 223.034 85.3214C223.073 85.3142 223.124 85.2298 223.125 85.1795C223.201 83.6558 224.399 82.8023 225.188 81.7045C225.285 81.5679 225.337 81.399 225.429 81.2049H225.427Z" fill="#00B43F"/>
<path d="M426.427 81.2049C424.598 81.1151 422.902 81.0253 421.206 80.9516C420.907 80.939 420.605 80.9821 420.305 81.0073C420.029 81.0307 419.75 81.0486 419.475 81.0917C419.098 81.1492 418.728 81.2535 418.349 81.2912C417.991 81.3271 417.626 81.2858 417.267 81.3074C416.266 81.3685 415.267 81.4637 414.266 81.4996C413.99 81.5104 413.709 81.3128 413.427 81.3002C412.529 81.2588 411.614 81.1654 410.73 81.2768C410.048 81.3613 409.636 81.3703 409.643 80.5509C409.643 80.4934 409.46 80.4359 409.275 80.3281C409.352 81.0846 408.847 81.0432 408.396 81.2948C407.455 81.823 406.777 81.4475 405.962 81.187C405.62 81.0774 405.175 81.3235 404.772 81.3756C404.262 81.4439 403.748 81.4781 403.234 81.532C403.053 81.5517 402.873 81.6038 402.691 81.6074C402.384 81.6146 402.077 81.6074 401.771 81.5823C401.524 81.5625 401.277 81.4655 401.033 81.4745C399.897 81.5194 398.76 81.5607 397.628 81.6613C396.415 81.7709 395.206 81.5948 393.973 81.8176C393.389 81.9237 392.653 81.2391 392.013 80.8636C391.963 80.8348 392.063 80.3048 392.214 80.2203C393.255 79.6363 394.288 78.9446 395.589 79.4818C395.697 79.5267 395.914 79.3686 396.052 79.268C397.109 78.49 398.279 78.5026 399.499 78.7074C399.772 78.7541 400.196 78.7451 400.336 78.5798C400.843 77.9869 401.349 78.2744 401.939 78.3552C402.652 78.4541 403.412 78.3858 404.131 78.26C406.391 77.8665 408.648 77.8827 410.917 78.1216C411.356 78.1684 411.898 77.8845 412.243 78.057C413.014 78.4433 413.738 78.0372 414.482 78.1181C415.138 78.1899 415.817 78.0462 416.487 77.9977C416.604 77.9887 416.733 77.9528 416.834 77.9905C417.98 78.4289 419.116 77.9779 420.255 77.9905C421.348 78.0013 422.433 78.039 423.536 78.3732C424.844 78.7703 426.265 78.7954 427.636 78.9823L427.692 78.7092C426.826 78.4019 425.958 78.1019 425.099 77.7785C424.957 77.7246 424.866 77.5467 424.731 77.4586C424.339 77.2017 423.942 76.9555 423.54 76.7166C423.34 76.598 423.13 76.4973 422.92 76.4003C422.557 76.2332 422.201 76.0481 421.824 75.9206C420.437 75.448 419.217 74.6538 418.05 73.8111C417.714 73.5668 417.236 73.3619 417.059 73.0834C416.759 72.6145 416.654 71.9533 416.683 71.3837C416.69 71.2292 417.499 70.9381 417.882 71.0117C418.746 71.1788 419.606 71.4627 420.406 71.8311C421.389 72.2839 422.309 72.8732 423.258 73.3997C423.414 73.4859 423.572 73.5991 423.741 73.6279C424.713 73.7896 425.489 74.228 426.316 74.8155C427.866 75.917 429.622 76.7345 431.313 77.6293C431.99 77.9869 432.177 78.4397 431.828 79.1404C431.699 79.401 431.686 79.7208 431.548 79.9723C431.273 80.4665 430.946 80.9318 430.642 81.4098C430.204 82.1015 429.778 82.8023 429.322 83.4815C429.142 83.7492 428.939 84.0403 428.677 84.2038C427.525 84.9225 426.945 86.0707 426.255 87.1667C425.929 87.6842 425.29 87.9932 424.826 88.4334C424.303 88.9312 423.874 89.5439 423.299 89.9625C422.857 90.2859 422.253 90.5393 421.719 90.5447C421.107 90.5501 420.9 89.9661 421.053 89.4109C421.339 88.3616 421.597 87.3356 422.591 86.5953C423.081 86.2306 423.27 85.449 424.034 85.3214C424.073 85.3142 424.124 85.2298 424.125 85.1795C424.201 83.6558 425.399 82.8023 426.188 81.7045C426.285 81.5679 426.337 81.399 426.429 81.2049H426.427Z" fill="#00B43F"/>
<path d="M52.9411 74.3636H55.3956V81.6818H55.4922L60.5206 74.3636H62.674V86H60.2138V78.6761H60.1286L55.0717 86H52.9411V74.3636ZM68.6044 86.1705C67.7105 86.1705 66.9415 85.9811 66.2976 85.6023C65.6574 85.2197 65.165 84.6894 64.8203 84.0114C64.4794 83.3333 64.3089 82.553 64.3089 81.6705C64.3089 80.7765 64.4813 79.9924 64.826 79.3182C65.1745 78.6402 65.6688 78.1117 66.3089 77.733C66.9491 77.3504 67.7105 77.1591 68.593 77.1591C69.3544 77.1591 70.0211 77.2973 70.593 77.5739C71.165 77.8504 71.6177 78.2386 71.951 78.7386C72.2843 79.2386 72.468 79.8258 72.5021 80.5H70.218C70.1536 80.0644 69.9832 79.714 69.7067 79.4489C69.4339 79.1799 69.076 79.0455 68.6328 79.0455C68.2578 79.0455 67.9302 79.1477 67.6499 79.3523C67.3733 79.553 67.1574 79.8466 67.0021 80.233C66.8468 80.6193 66.7692 81.0871 66.7692 81.6364C66.7692 82.1932 66.8449 82.6667 66.9964 83.0568C67.1518 83.447 67.3696 83.7443 67.6499 83.9489C67.9302 84.1534 68.2578 84.2557 68.6328 84.2557C68.9093 84.2557 69.1574 84.1989 69.3771 84.0852C69.6006 83.9716 69.7843 83.8068 69.9283 83.5909C70.076 83.3712 70.1726 83.108 70.218 82.8011H72.5021C72.4643 83.4678 72.2824 84.0549 71.9567 84.5625C71.6347 85.0663 71.1896 85.4602 70.6214 85.7443C70.0533 86.0284 69.3809 86.1705 68.6044 86.1705ZM76.0277 77.2727L77.63 80.3239L79.272 77.2727H81.755L79.2266 81.6364L81.8232 86H79.3516L77.63 82.983L75.9368 86H73.4368L76.0277 81.6364L73.5277 77.2727H76.0277ZM86.8232 86.1705C85.9406 86.1705 85.1773 85.983 84.5334 85.608C83.8932 85.2292 83.3989 84.7027 83.0504 84.0284C82.7019 83.3504 82.5277 82.5644 82.5277 81.6705C82.5277 80.7689 82.7019 79.9811 83.0504 79.3068C83.3989 78.6288 83.8932 78.1023 84.5334 77.7273C85.1773 77.3485 85.9406 77.1591 86.8232 77.1591C87.7057 77.1591 88.4671 77.3485 89.1072 77.7273C89.7512 78.1023 90.2474 78.6288 90.5959 79.3068C90.9444 79.9811 91.1186 80.7689 91.1186 81.6705C91.1186 82.5644 90.9444 83.3504 90.5959 84.0284C90.2474 84.7027 89.7512 85.2292 89.1072 85.608C88.4671 85.983 87.7057 86.1705 86.8232 86.1705ZM86.8345 84.2955C87.236 84.2955 87.5713 84.1818 87.8402 83.9545C88.1091 83.7235 88.3118 83.4091 88.4482 83.0114C88.5883 82.6136 88.6584 82.161 88.6584 81.6534C88.6584 81.1458 88.5883 80.6932 88.4482 80.2955C88.3118 79.8977 88.1091 79.5833 87.8402 79.3523C87.5713 79.1212 87.236 79.0057 86.8345 79.0057C86.4292 79.0057 86.0883 79.1212 85.8118 79.3523C85.5391 79.5833 85.3326 79.8977 85.1925 80.2955C85.0561 80.6932 84.9879 81.1458 84.9879 81.6534C84.9879 82.161 85.0561 82.6136 85.1925 83.0114C85.3326 83.4091 85.5391 83.7235 85.8118 83.9545C86.0883 84.1818 86.4292 84.2955 86.8345 84.2955ZM92.0107 88.5568V84.0795H92.6811C92.8743 83.9583 93.0296 83.7652 93.147 83.5C93.2682 83.2348 93.3667 82.9223 93.4425 82.5625C93.522 82.2027 93.5826 81.8144 93.6243 81.3977C93.6697 80.9773 93.7095 80.553 93.7436 80.125L93.9709 77.2727H100.664V84.0795H102.016V88.5568H99.7095V86H94.3743V88.5568H92.0107ZM95.0902 84.0795H98.38V79.1364H96.0277L95.9368 80.125C95.8724 81.0568 95.7796 81.8485 95.6584 82.5C95.5372 83.1477 95.3478 83.6742 95.0902 84.0795ZM109.501 80.6705V82.5739H104.944V80.6705H109.501ZM105.739 77.2727V86H103.427V77.2727H105.739ZM111.018 77.2727V86H108.722V77.2727H111.018ZM114.413 79.9545H117.021C118.176 79.9545 119.077 80.2311 119.725 80.7841C120.373 81.3333 120.697 82.0682 120.697 82.9886C120.697 83.5871 120.551 84.1136 120.259 84.5682C119.968 85.0189 119.547 85.3712 118.998 85.625C118.449 85.875 117.79 86 117.021 86H112.896V77.2727H115.208V84.0966H117.021C117.426 84.0966 117.759 83.9943 118.021 83.7898C118.282 83.5852 118.415 83.3239 118.418 83.0057C118.415 82.6686 118.282 82.3939 118.021 82.1818C117.759 81.9659 117.426 81.858 117.021 81.858H114.413V79.9545ZM121.634 86V77.2727H124.055V86H121.634ZM128.302 82.8068L131.444 77.2727H133.83V86H131.523V80.4489L128.393 86H125.989V77.2727H128.302V82.8068ZM131.029 74.2273H132.717C132.713 74.9167 132.457 75.4716 131.95 75.892C131.446 76.3125 130.764 76.5227 129.904 76.5227C129.04 76.5227 128.357 76.3125 127.853 75.892C127.349 75.4716 127.097 74.9167 127.097 74.2273H128.773C128.77 74.4886 128.853 74.7235 129.023 74.9318C129.198 75.1402 129.491 75.2443 129.904 75.2443C130.306 75.2443 130.594 75.142 130.768 74.9375C130.942 74.733 131.029 74.4962 131.029 74.2273ZM139.474 86V77.2727H141.894V80.6591H142.576L144.951 77.2727H147.792L144.707 81.6023L147.826 86H144.951L142.798 82.9034H141.894V86H139.474ZM152.433 86.1705C151.55 86.1705 150.787 85.983 150.143 85.608C149.503 85.2292 149.008 84.7027 148.66 84.0284C148.311 83.3504 148.137 82.5644 148.137 81.6705C148.137 80.7689 148.311 79.9811 148.66 79.3068C149.008 78.6288 149.503 78.1023 150.143 77.7273C150.787 77.3485 151.55 77.1591 152.433 77.1591C153.315 77.1591 154.076 77.3485 154.717 77.7273C155.361 78.1023 155.857 78.6288 156.205 79.3068C156.554 79.9811 156.728 80.7689 156.728 81.6705C156.728 82.5644 156.554 83.3504 156.205 84.0284C155.857 84.7027 155.361 85.2292 154.717 85.608C154.076 85.983 153.315 86.1705 152.433 86.1705ZM152.444 84.2955C152.845 84.2955 153.181 84.1818 153.45 83.9545C153.719 83.7235 153.921 83.4091 154.058 83.0114C154.198 82.6136 154.268 82.161 154.268 81.6534C154.268 81.1458 154.198 80.6932 154.058 80.2955C153.921 79.8977 153.719 79.5833 153.45 79.3523C153.181 79.1212 152.845 79.0057 152.444 79.0057C152.039 79.0057 151.698 79.1212 151.421 79.3523C151.148 79.5833 150.942 79.8977 150.802 80.2955C150.665 80.6932 150.597 81.1458 150.597 81.6534C150.597 82.161 150.665 82.6136 150.802 83.0114C150.942 83.4091 151.148 83.7235 151.421 83.9545C151.698 84.1818 152.039 84.2955 152.444 84.2955ZM157.62 88.5568V84.0795H158.29C158.484 83.9583 158.639 83.7652 158.756 83.5C158.878 83.2348 158.976 82.9223 159.052 82.5625C159.131 82.2027 159.192 81.8144 159.234 81.3977C159.279 80.9773 159.319 80.553 159.353 80.125L159.58 77.2727H166.273V84.0795H167.626V88.5568H165.319V86H159.984V88.5568H157.62ZM160.7 84.0795H163.989V79.1364H161.637L161.546 80.125C161.482 81.0568 161.389 81.8485 161.268 82.5C161.147 83.1477 160.957 83.6742 160.7 84.0795Z" fill="white"/>
<path d="M250.933 74.3636H253.388V81.6818H253.484L258.513 74.3636H260.666V86H258.206V78.6761H258.121L253.064 86H250.933V74.3636ZM268.727 80.6705V82.5739H264.17V80.6705H268.727ZM264.966 77.2727V86H262.653V77.2727H264.966ZM270.244 77.2727V86H267.949V77.2727H270.244ZM271.246 79.1761V77.2727H279.155V79.1761H276.342V86H274.036V79.1761H271.246ZM284.287 86.1705C283.389 86.1705 282.616 85.9886 281.969 85.625C281.325 85.2576 280.829 84.7386 280.48 84.0682C280.132 83.3939 279.957 82.5966 279.957 81.6761C279.957 80.7784 280.132 79.9905 280.48 79.3125C280.829 78.6345 281.319 78.1061 281.952 77.7273C282.588 77.3485 283.334 77.1591 284.19 77.1591C284.766 77.1591 285.302 77.2519 285.798 77.4375C286.298 77.6193 286.734 77.8939 287.105 78.2614C287.48 78.6288 287.772 79.0909 287.98 79.6477C288.188 80.2008 288.293 80.8485 288.293 81.5909V82.2557H280.923V80.7557H286.014C286.014 80.4072 285.938 80.0985 285.787 79.8295C285.635 79.5606 285.425 79.3504 285.156 79.1989C284.891 79.0436 284.582 78.9659 284.23 78.9659C283.863 78.9659 283.537 79.0511 283.253 79.2216C282.973 79.3883 282.753 79.6136 282.594 79.8977C282.435 80.178 282.353 80.4905 282.349 80.8352V82.2614C282.349 82.6932 282.429 83.0663 282.588 83.3807C282.751 83.6951 282.98 83.9375 283.276 84.108C283.571 84.2784 283.921 84.3636 284.327 84.3636C284.596 84.3636 284.842 84.3258 285.065 84.25C285.289 84.1742 285.48 84.0606 285.639 83.9091C285.798 83.7576 285.92 83.572 286.003 83.3523L288.241 83.5C288.128 84.0379 287.895 84.5076 287.543 84.9091C287.194 85.3068 286.743 85.6174 286.19 85.8409C285.641 86.0606 285.007 86.1705 284.287 86.1705ZM289.872 89.2727V77.2727H292.259V78.7386H292.366C292.473 78.5038 292.626 78.2652 292.827 78.0227C293.031 77.7765 293.296 77.572 293.622 77.4091C293.952 77.2424 294.361 77.1591 294.849 77.1591C295.486 77.1591 296.073 77.3258 296.611 77.6591C297.149 77.9886 297.579 78.4867 297.901 79.1534C298.223 79.8163 298.384 80.6477 298.384 81.6477C298.384 82.6212 298.226 83.4432 297.912 84.1136C297.601 84.7803 297.177 85.286 296.639 85.6307C296.105 85.9716 295.507 86.142 294.844 86.142C294.374 86.142 293.974 86.0644 293.645 85.9091C293.319 85.7538 293.052 85.5587 292.844 85.3239C292.635 85.0852 292.476 84.8447 292.366 84.6023H292.293V89.2727H289.872ZM292.241 81.6364C292.241 82.1553 292.313 82.608 292.457 82.9943C292.601 83.3807 292.81 83.6818 293.082 83.8977C293.355 84.1098 293.687 84.2159 294.077 84.2159C294.471 84.2159 294.804 84.108 295.077 83.892C295.349 83.6723 295.556 83.3693 295.696 82.983C295.84 82.5928 295.912 82.1439 295.912 81.6364C295.912 81.1326 295.842 80.6894 295.702 80.3068C295.562 79.9242 295.355 79.625 295.082 79.4091C294.81 79.1932 294.474 79.0852 294.077 79.0852C293.683 79.0852 293.349 79.1894 293.077 79.3977C292.808 79.6061 292.601 79.9015 292.457 80.2841C292.313 80.6667 292.241 81.1174 292.241 81.6364ZM299.997 86V77.2727H307.628V86H305.315V79.1761H302.281V86H299.997ZM309.56 89.2727V77.2727H311.946V78.7386H312.054C312.16 78.5038 312.313 78.2652 312.514 78.0227C312.719 77.7765 312.984 77.572 313.31 77.4091C313.639 77.2424 314.048 77.1591 314.537 77.1591C315.173 77.1591 315.76 77.3258 316.298 77.6591C316.836 77.9886 317.266 78.4867 317.588 79.1534C317.91 79.8163 318.071 80.6477 318.071 81.6477C318.071 82.6212 317.914 83.4432 317.599 84.1136C317.289 84.7803 316.865 85.286 316.327 85.6307C315.793 85.9716 315.194 86.142 314.531 86.142C314.062 86.142 313.662 86.0644 313.332 85.9091C313.007 85.7538 312.74 85.5587 312.531 85.3239C312.323 85.0852 312.164 84.8447 312.054 84.6023H311.98V89.2727H309.56ZM311.929 81.6364C311.929 82.1553 312.001 82.608 312.145 82.9943C312.289 83.3807 312.497 83.6818 312.77 83.8977C313.043 84.1098 313.374 84.2159 313.764 84.2159C314.158 84.2159 314.491 84.108 314.764 83.892C315.037 83.6723 315.243 83.3693 315.384 82.983C315.527 82.5928 315.599 82.1439 315.599 81.6364C315.599 81.1326 315.529 80.6894 315.389 80.3068C315.249 79.9242 315.043 79.625 314.77 79.4091C314.497 79.1932 314.162 79.0852 313.764 79.0852C313.37 79.0852 313.037 79.1894 312.764 79.3977C312.495 79.6061 312.289 79.9015 312.145 80.2841C312.001 80.6667 311.929 81.1174 311.929 81.6364ZM323.662 86.1705C322.764 86.1705 321.991 85.9886 321.344 85.625C320.7 85.2576 320.204 84.7386 319.855 84.0682C319.507 83.3939 319.332 82.5966 319.332 81.6761C319.332 80.7784 319.507 79.9905 319.855 79.3125C320.204 78.6345 320.694 78.1061 321.327 77.7273C321.963 77.3485 322.709 77.1591 323.565 77.1591C324.141 77.1591 324.677 77.2519 325.173 77.4375C325.673 77.6193 326.109 77.8939 326.48 78.2614C326.855 78.6288 327.147 79.0909 327.355 79.6477C327.563 80.2008 327.668 80.8485 327.668 81.5909V82.2557H320.298V80.7557H325.389C325.389 80.4072 325.313 80.0985 325.162 79.8295C325.01 79.5606 324.8 79.3504 324.531 79.1989C324.266 79.0436 323.957 78.9659 323.605 78.9659C323.238 78.9659 322.912 79.0511 322.628 79.2216C322.348 79.3883 322.128 79.6136 321.969 79.8977C321.81 80.178 321.728 80.4905 321.724 80.8352V82.2614C321.724 82.6932 321.804 83.0663 321.963 83.3807C322.126 83.6951 322.355 83.9375 322.651 84.108C322.946 84.2784 323.296 84.3636 323.702 84.3636C323.971 84.3636 324.217 84.3258 324.44 84.25C324.664 84.1742 324.855 84.0606 325.014 83.9091C325.173 83.7576 325.295 83.572 325.378 83.3523L327.616 83.5C327.503 84.0379 327.27 84.5076 326.918 84.9091C326.569 85.3068 326.118 85.6174 325.565 85.8409C325.016 86.0606 324.382 86.1705 323.662 86.1705ZM328.574 79.1761V77.2727H336.483V79.1761H333.67V86H331.364V79.1761H328.574ZM340.126 86.1648C339.57 86.1648 339.073 86.0682 338.638 85.875C338.202 85.678 337.857 85.3883 337.604 85.0057C337.354 84.6193 337.229 84.1383 337.229 83.5625C337.229 83.0777 337.318 82.6705 337.496 82.3409C337.674 82.0114 337.916 81.7462 338.223 81.5455C338.53 81.3447 338.878 81.1932 339.268 81.0909C339.662 80.9886 340.075 80.9167 340.507 80.875C341.015 80.822 341.424 80.7727 341.734 80.7273C342.045 80.678 342.27 80.6061 342.411 80.5114C342.551 80.4167 342.621 80.2765 342.621 80.0909V80.0568C342.621 79.697 342.507 79.4186 342.28 79.2216C342.056 79.0246 341.738 78.9261 341.325 78.9261C340.89 78.9261 340.543 79.0227 340.286 79.2159C340.028 79.4053 339.857 79.6439 339.774 79.9318L337.536 79.75C337.649 79.2197 337.873 78.7614 338.206 78.375C338.539 77.9848 338.969 77.6856 339.496 77.4773C340.026 77.2652 340.64 77.1591 341.337 77.1591C341.821 77.1591 342.286 77.2159 342.729 77.3295C343.176 77.4432 343.571 77.6193 343.916 77.858C344.265 78.0966 344.539 78.4034 344.74 78.7784C344.941 79.1496 345.041 79.5947 345.041 80.1136V86H342.746V84.7898H342.678C342.537 85.0625 342.35 85.303 342.115 85.5114C341.88 85.7159 341.598 85.8769 341.268 85.9943C340.939 86.108 340.558 86.1648 340.126 86.1648ZM340.82 84.4943C341.176 84.4943 341.49 84.4242 341.763 84.2841C342.036 84.1402 342.25 83.947 342.405 83.7045C342.56 83.4621 342.638 83.1875 342.638 82.8807V81.9545C342.562 82.0038 342.458 82.0492 342.325 82.0909C342.196 82.1288 342.051 82.1648 341.888 82.1989C341.725 82.2292 341.562 82.2576 341.399 82.2841C341.236 82.3068 341.089 82.3277 340.956 82.3466C340.672 82.3883 340.424 82.4545 340.212 82.5455C340 82.6364 339.835 82.7595 339.717 82.9148C339.6 83.0663 339.541 83.2557 339.541 83.483C339.541 83.8125 339.661 84.0644 339.899 84.2386C340.142 84.4091 340.448 84.4943 340.82 84.4943ZM346.043 79.1761V77.2727H353.952V79.1761H351.139V86H348.832V79.1761H346.043ZM359.05 86.1705C358.167 86.1705 357.404 85.983 356.76 85.608C356.12 85.2292 355.625 84.7027 355.277 84.0284C354.929 83.3504 354.754 82.5644 354.754 81.6705C354.754 80.7689 354.929 79.9811 355.277 79.3068C355.625 78.6288 356.12 78.1023 356.76 77.7273C357.404 77.3485 358.167 77.1591 359.05 77.1591C359.932 77.1591 360.694 77.3485 361.334 77.7273C361.978 78.1023 362.474 78.6288 362.822 79.3068C363.171 79.9811 363.345 80.7689 363.345 81.6705C363.345 82.5644 363.171 83.3504 362.822 84.0284C362.474 84.7027 361.978 85.2292 361.334 85.608C360.694 85.983 359.932 86.1705 359.05 86.1705ZM359.061 84.2955C359.463 84.2955 359.798 84.1818 360.067 83.9545C360.336 83.7235 360.538 83.4091 360.675 83.0114C360.815 82.6136 360.885 82.161 360.885 81.6534C360.885 81.1458 360.815 80.6932 360.675 80.2955C360.538 79.8977 360.336 79.5833 360.067 79.3523C359.798 79.1212 359.463 79.0057 359.061 79.0057C358.656 79.0057 358.315 79.1212 358.038 79.3523C357.766 79.5833 357.559 79.8977 357.419 80.2955C357.283 80.6932 357.214 81.1458 357.214 81.6534C357.214 82.161 357.283 82.6136 357.419 83.0114C357.559 83.4091 357.766 83.7235 358.038 83.9545C358.315 84.1818 358.656 84.2955 359.061 84.2955ZM364.919 89.2727V77.2727H367.305V78.7386H367.413C367.519 78.5038 367.673 78.2652 367.874 78.0227C368.078 77.7765 368.343 77.572 368.669 77.4091C368.999 77.2424 369.408 77.1591 369.896 77.1591C370.533 77.1591 371.12 77.3258 371.658 77.6591C372.196 77.9886 372.625 78.4867 372.947 79.1534C373.269 79.8163 373.43 80.6477 373.43 81.6477C373.43 82.6212 373.273 83.4432 372.959 84.1136C372.648 84.7803 372.224 85.286 371.686 85.6307C371.152 85.9716 370.554 86.142 369.891 86.142C369.421 86.142 369.021 86.0644 368.692 85.9091C368.366 85.7538 368.099 85.5587 367.891 85.3239C367.682 85.0852 367.523 84.8447 367.413 84.6023H367.339V89.2727H364.919ZM367.288 81.6364C367.288 82.1553 367.36 82.608 367.504 82.9943C367.648 83.3807 367.857 83.6818 368.129 83.8977C368.402 84.1098 368.733 84.2159 369.124 84.2159C369.518 84.2159 369.851 84.108 370.124 83.892C370.396 83.6723 370.603 83.3693 370.743 82.983C370.887 82.5928 370.959 82.1439 370.959 81.6364C370.959 81.1326 370.889 80.6894 370.749 80.3068C370.608 79.9242 370.402 79.625 370.129 79.4091C369.857 79.1932 369.521 79.0852 369.124 79.0852C368.73 79.0852 368.396 79.1894 368.124 79.3977C367.855 79.6061 367.648 79.9015 367.504 80.2841C367.36 80.6667 367.288 81.1174 367.288 81.6364Z" fill="white"/>
<path d="M471.402 80V68.3636H476.061C476.917 68.3636 477.631 68.4905 478.203 68.7443C478.775 68.9981 479.205 69.3504 479.493 69.8011C479.781 70.2481 479.925 70.7633 479.925 71.3466C479.925 71.8011 479.834 72.2008 479.652 72.5455C479.47 72.8864 479.22 73.1667 478.902 73.3864C478.588 73.6023 478.228 73.7557 477.822 73.8466V73.9602C478.266 73.9792 478.68 74.1042 479.067 74.3352C479.457 74.5663 479.773 74.8902 480.016 75.3068C480.258 75.7197 480.379 76.2121 480.379 76.7841C480.379 77.4015 480.226 77.9527 479.919 78.4375C479.616 78.9186 479.167 79.2992 478.572 79.5795C477.978 79.8598 477.245 80 476.374 80H471.402ZM473.862 77.9886H475.868C476.554 77.9886 477.054 77.858 477.368 77.5966C477.682 77.3314 477.839 76.9792 477.839 76.5398C477.839 76.2178 477.762 75.9337 477.607 75.6875C477.451 75.4413 477.23 75.2481 476.942 75.108C476.658 74.9678 476.319 74.8977 475.925 74.8977H473.862V77.9886ZM473.862 73.233H475.686C476.023 73.233 476.322 73.1742 476.584 73.0568C476.849 72.9356 477.057 72.7652 477.209 72.5455C477.364 72.3258 477.442 72.0625 477.442 71.7557C477.442 71.3352 477.292 70.9962 476.993 70.7386C476.697 70.4811 476.277 70.3523 475.732 70.3523H473.862V73.233ZM483.452 73.9545H486.06C487.215 73.9545 488.116 74.2311 488.764 74.7841C489.412 75.3333 489.736 76.0682 489.736 76.9886C489.736 77.5871 489.59 78.1136 489.298 78.5682C489.007 79.0189 488.586 79.3712 488.037 79.625C487.488 79.875 486.829 80 486.06 80H481.935V71.2727H484.247V78.0966H486.06C486.465 78.0966 486.798 77.9943 487.06 77.7898C487.321 77.5852 487.454 77.3239 487.457 77.0057C487.454 76.6686 487.321 76.3939 487.06 76.1818C486.798 75.9659 486.465 75.858 486.06 75.858H483.452V73.9545ZM490.673 80V71.2727H493.094V80H490.673ZM497.051 71.2727L498.653 74.3239L500.295 71.2727H502.778L500.25 75.6364L502.847 80H500.375L498.653 76.983L496.96 80H494.46L497.051 75.6364L494.551 71.2727H497.051ZM507.847 80.1705C506.964 80.1705 506.201 79.983 505.557 79.608C504.917 79.2292 504.422 78.7027 504.074 78.0284C503.725 77.3504 503.551 76.5644 503.551 75.6705C503.551 74.7689 503.725 73.9811 504.074 73.3068C504.422 72.6288 504.917 72.1023 505.557 71.7273C506.201 71.3485 506.964 71.1591 507.847 71.1591C508.729 71.1591 509.491 71.3485 510.131 71.7273C510.775 72.1023 511.271 72.6288 511.619 73.3068C511.968 73.9811 512.142 74.7689 512.142 75.6705C512.142 76.5644 511.968 77.3504 511.619 78.0284C511.271 78.7027 510.775 79.2292 510.131 79.608C509.491 79.983 508.729 80.1705 507.847 80.1705ZM507.858 78.2955C508.259 78.2955 508.595 78.1818 508.864 77.9545C509.133 77.7235 509.335 77.4091 509.472 77.0114C509.612 76.6136 509.682 76.161 509.682 75.6534C509.682 75.1458 509.612 74.6932 509.472 74.2955C509.335 73.8977 509.133 73.5833 508.864 73.3523C508.595 73.1212 508.259 73.0057 507.858 73.0057C507.453 73.0057 507.112 73.1212 506.835 73.3523C506.563 73.5833 506.356 73.8977 506.216 74.2955C506.08 74.6932 506.011 75.1458 506.011 75.6534C506.011 76.161 506.08 76.6136 506.216 77.0114C506.356 77.4091 506.563 77.7235 506.835 77.9545C507.112 78.1818 507.453 78.2955 507.858 78.2955ZM513.034 82.5568V78.0795H513.705C513.898 77.9583 514.053 77.7652 514.17 77.5C514.292 77.2348 514.39 76.9223 514.466 76.5625C514.545 76.2027 514.606 75.8144 514.648 75.3977C514.693 74.9773 514.733 74.553 514.767 74.125L514.994 71.2727H521.688V78.0795H523.04V82.5568H520.733V80H515.398V82.5568H513.034ZM516.114 78.0795H519.403V73.1364H517.051L516.96 74.125C516.896 75.0568 516.803 75.8485 516.682 76.5C516.561 77.1477 516.371 77.6742 516.114 78.0795ZM530.524 74.6705V76.5739H525.967V74.6705H530.524ZM526.763 71.2727V80H524.45V71.2727H526.763ZM532.041 71.2727V80H529.746V71.2727H532.041ZM535.436 73.9545H538.044C539.199 73.9545 540.101 74.2311 540.749 74.7841C541.396 75.3333 541.72 76.0682 541.72 76.9886C541.72 77.5871 541.574 78.1136 541.283 78.5682C540.991 79.0189 540.571 79.3712 540.021 79.625C539.472 79.875 538.813 80 538.044 80H533.919V71.2727H536.232V78.0966H538.044C538.449 78.0966 538.783 77.9943 539.044 77.7898C539.305 77.5852 539.438 77.3239 539.442 77.0057C539.438 76.6686 539.305 76.3939 539.044 76.1818C538.783 75.9659 538.449 75.858 538.044 75.858H535.436V73.9545ZM542.658 80V71.2727H545.078V80H542.658ZM550.99 80.1705C550.092 80.1705 549.32 79.9886 548.672 79.625C548.028 79.2576 547.532 78.7386 547.183 78.0682C546.835 77.3939 546.661 76.5966 546.661 75.6761C546.661 74.7784 546.835 73.9905 547.183 73.3125C547.532 72.6345 548.022 72.1061 548.655 71.7273C549.291 71.3485 550.037 71.1591 550.893 71.1591C551.469 71.1591 552.005 71.2519 552.501 71.4375C553.001 71.6193 553.437 71.8939 553.808 72.2614C554.183 72.6288 554.475 73.0909 554.683 73.6477C554.892 74.2008 554.996 74.8485 554.996 75.5909V76.2557H547.626V74.7557H552.717C552.717 74.4072 552.642 74.0985 552.49 73.8295C552.339 73.5606 552.128 73.3504 551.859 73.1989C551.594 73.0436 551.286 72.9659 550.933 72.9659C550.566 72.9659 550.24 73.0511 549.956 73.2216C549.676 73.3883 549.456 73.6136 549.297 73.8977C549.138 74.178 549.056 74.4905 549.053 74.8352V76.2614C549.053 76.6932 549.132 77.0663 549.291 77.3807C549.454 77.6951 549.683 77.9375 549.979 78.108C550.274 78.2784 550.625 78.3636 551.03 78.3636C551.299 78.3636 551.545 78.3258 551.768 78.25C551.992 78.1742 552.183 78.0606 552.342 77.9091C552.501 77.7576 552.623 77.572 552.706 77.3523L554.945 77.5C554.831 78.0379 554.598 78.5076 554.246 78.9091C553.897 79.3068 553.446 79.6174 552.893 79.8409C552.344 80.0606 551.71 80.1705 550.99 80.1705ZM482.479 101.557V97.0795H483.15C483.343 96.9583 483.498 96.7652 483.616 96.5C483.737 96.2348 483.835 95.9223 483.911 95.5625C483.991 95.2027 484.051 94.8144 484.093 94.3977C484.138 93.9773 484.178 93.553 484.212 93.125L484.44 90.2727H491.133V97.0795H492.485V101.557H490.178V99H484.843V101.557H482.479ZM485.559 97.0795H488.849V92.1364H486.496L486.406 93.125C486.341 94.0568 486.248 94.8485 486.127 95.5C486.006 96.1477 485.817 96.6742 485.559 97.0795ZM496.384 99.1648C495.827 99.1648 495.331 99.0682 494.896 98.875C494.46 98.678 494.115 98.3883 493.862 98.0057C493.612 97.6193 493.487 97.1383 493.487 96.5625C493.487 96.0777 493.576 95.6705 493.754 95.3409C493.932 95.0114 494.174 94.7462 494.481 94.5455C494.788 94.3447 495.136 94.1932 495.526 94.0909C495.92 93.9886 496.333 93.9167 496.765 93.875C497.272 93.822 497.682 93.7727 497.992 93.7273C498.303 93.678 498.528 93.6061 498.668 93.5114C498.808 93.4167 498.879 93.2765 498.879 93.0909V93.0568C498.879 92.697 498.765 92.4186 498.538 92.2216C498.314 92.0246 497.996 91.9261 497.583 91.9261C497.147 91.9261 496.801 92.0227 496.543 92.2159C496.286 92.4053 496.115 92.6439 496.032 92.9318L493.793 92.75C493.907 92.2197 494.13 91.7614 494.464 91.375C494.797 90.9848 495.227 90.6856 495.754 90.4773C496.284 90.2652 496.897 90.1591 497.594 90.1591C498.079 90.1591 498.543 90.2159 498.987 90.3295C499.433 90.4432 499.829 90.6193 500.174 90.858C500.522 91.0966 500.797 91.4034 500.998 91.7784C501.199 92.1496 501.299 92.5947 501.299 93.1136V99H499.004V97.7898H498.935C498.795 98.0625 498.608 98.303 498.373 98.5114C498.138 98.7159 497.856 98.8769 497.526 98.9943C497.197 99.108 496.816 99.1648 496.384 99.1648ZM497.077 97.4943C497.433 97.4943 497.748 97.4242 498.021 97.2841C498.293 97.1402 498.507 96.947 498.663 96.7045C498.818 96.4621 498.896 96.1875 498.896 95.8807V94.9545C498.82 95.0038 498.716 95.0492 498.583 95.0909C498.454 95.1288 498.308 95.1648 498.146 95.1989C497.983 95.2292 497.82 95.2576 497.657 95.2841C497.494 95.3068 497.346 95.3277 497.214 95.3466C496.93 95.3883 496.682 95.4545 496.469 95.5455C496.257 95.6364 496.093 95.7595 495.975 95.9148C495.858 96.0663 495.799 96.2557 495.799 96.483C495.799 96.8125 495.918 97.0644 496.157 97.2386C496.399 97.4091 496.706 97.4943 497.077 97.4943ZM509.251 93.6705V95.5739H504.694V93.6705H509.251ZM505.489 90.2727V99H503.177V90.2727H505.489ZM510.768 90.2727V99H508.472V90.2727H510.768ZM518.719 93.6705V95.5739H514.163V93.6705H518.719ZM514.958 90.2727V99H512.646V90.2727H514.958ZM520.237 90.2727V99H517.941V90.2727H520.237ZM523.631 92.9545H526.239C527.395 92.9545 528.296 93.2311 528.944 93.7841C529.592 94.3333 529.915 95.0682 529.915 95.9886C529.915 96.5871 529.77 97.1136 529.478 97.5682C529.186 98.0189 528.766 98.3712 528.217 98.625C527.667 98.875 527.008 99 526.239 99H522.114V90.2727H524.427V97.0966H526.239C526.645 97.0966 526.978 96.9943 527.239 96.7898C527.501 96.5852 527.633 96.3239 527.637 96.0057C527.633 95.6686 527.501 95.3939 527.239 95.1818C526.978 94.9659 526.645 94.858 526.239 94.858H523.631V92.9545ZM530.853 99V90.2727H533.273V99H530.853ZM539.185 99.1705C538.288 99.1705 537.515 98.9886 536.867 98.625C536.223 98.2576 535.727 97.7386 535.379 97.0682C535.03 96.3939 534.856 95.5966 534.856 94.6761C534.856 93.7784 535.03 92.9905 535.379 92.3125C535.727 91.6345 536.218 91.1061 536.85 90.7273C537.487 90.3485 538.233 90.1591 539.089 90.1591C539.665 90.1591 540.201 90.2519 540.697 90.4375C541.197 90.6193 541.632 90.8939 542.004 91.2614C542.379 91.6288 542.67 92.0909 542.879 92.6477C543.087 93.2008 543.191 93.8485 543.191 94.5909V95.2557H535.822V93.7557H540.913C540.913 93.4072 540.837 93.0985 540.685 92.8295C540.534 92.5606 540.324 92.3504 540.055 92.1989C539.79 92.0436 539.481 91.9659 539.129 91.9659C538.761 91.9659 538.435 92.0511 538.151 92.2216C537.871 92.3883 537.651 92.6136 537.492 92.8977C537.333 93.178 537.252 93.4905 537.248 93.8352V95.2614C537.248 95.6932 537.327 96.0663 537.487 96.3807C537.649 96.6951 537.879 96.9375 538.174 97.108C538.469 97.2784 538.82 97.3636 539.225 97.3636C539.494 97.3636 539.74 97.3258 539.964 97.25C540.187 97.1742 540.379 97.0606 540.538 96.9091C540.697 96.7576 540.818 96.572 540.901 96.3523L543.14 96.5C543.026 97.0379 542.793 97.5076 542.441 97.9091C542.093 98.3068 541.642 98.6174 541.089 98.8409C540.54 99.0606 539.905 99.1705 539.185 99.1705Z" fill="white"/>
</svg>
