<svg width="435" height="178" viewBox="0 0 435 178" fill="none" xmlns="http://www.w3.org/2000/svg">
<rect width="435" height="178" fill="white"/>
<path d="M76.0082 77.6364V98H71.7724V77.6364H76.0082ZM86.3615 98.2983C84.7905 98.2983 83.4382 97.9801 82.3047 97.3438C81.1778 96.7008 80.3094 95.7926 79.6996 94.6193C79.0897 93.4394 78.7848 92.044 78.7848 90.4332C78.7848 88.8622 79.0897 87.4834 79.6996 86.2969C80.3094 85.1103 81.1679 84.1856 82.2749 83.5227C83.3885 82.8598 84.6944 82.5284 86.1925 82.5284C87.2 82.5284 88.138 82.6908 89.0064 83.0156C89.8814 83.3338 90.6437 83.8144 91.2933 84.4574C91.9496 85.1004 92.46 85.9091 92.8246 86.8835C93.1892 87.8513 93.3714 88.9848 93.3714 90.2841V91.4474H80.4751V88.8224H89.3842C89.3842 88.2126 89.2517 87.6723 88.9865 87.2017C88.7214 86.7311 88.3535 86.3632 87.8828 86.098C87.4188 85.8262 86.8786 85.6903 86.2621 85.6903C85.6191 85.6903 85.049 85.8395 84.5518 86.1378C84.0613 86.4295 83.6768 86.8239 83.3984 87.321C83.12 87.8116 82.9775 88.3584 82.9709 88.9616V91.4574C82.9709 92.2131 83.1101 92.866 83.3885 93.4162C83.6735 93.9664 84.0746 94.3906 84.5916 94.6889C85.1087 94.9872 85.7218 95.1364 86.4311 95.1364C86.9018 95.1364 87.3326 95.0701 87.7237 94.9375C88.1148 94.8049 88.4496 94.6061 88.728 94.3409C89.0064 94.0758 89.2185 93.7509 89.3643 93.3665L93.282 93.625C93.0831 94.5663 92.6754 95.3883 92.0589 96.0909C91.4491 96.7869 90.6603 97.3305 89.6925 97.7216C88.7313 98.1061 87.621 98.2983 86.3615 98.2983ZM104.259 82.7273V85.9091H95.0618V82.7273H104.259ZM97.1499 79.0682H101.386V93.3068C101.386 93.6979 101.445 94.0028 101.565 94.2216C101.684 94.4337 101.85 94.5829 102.062 94.669C102.281 94.7552 102.532 94.7983 102.817 94.7983C103.016 94.7983 103.215 94.7817 103.414 94.7486C103.613 94.7088 103.765 94.679 103.871 94.6591L104.538 97.8111C104.326 97.8774 104.027 97.9536 103.643 98.0398C103.258 98.1326 102.791 98.1889 102.241 98.2088C101.22 98.2486 100.325 98.1127 99.5561 97.8011C98.7938 97.4896 98.2005 97.0057 97.7763 96.3494C97.352 95.6932 97.1432 94.8646 97.1499 93.8636V79.0682ZM261.371 88.3153V84.7855H275.103V88.3153H261.371ZM261.371 94.9176V91.3878H275.103V94.9176H261.371ZM382.735 95.2159L382.626 96.3097C382.54 97.1847 382.374 98.0563 382.129 98.9247C381.89 99.7997 381.638 100.592 381.373 101.301C381.115 102.01 380.906 102.567 380.747 102.972H378.002C378.102 102.58 378.238 102.034 378.41 101.331C378.583 100.635 378.745 99.8527 378.897 98.9844C379.05 98.116 379.146 97.2311 379.186 96.3295L379.235 95.2159H382.735ZM380.966 87.5597C380.309 87.5597 379.746 87.3277 379.275 86.8636C378.811 86.3996 378.579 85.8362 378.579 85.1733C378.579 84.5237 378.811 83.9702 379.275 83.5128C379.746 83.0488 380.309 82.8168 380.966 82.8168C381.602 82.8168 382.159 83.0488 382.636 83.5128C383.113 83.9702 383.352 84.5237 383.352 85.1733C383.352 85.6174 383.239 86.0218 383.014 86.3864C382.795 86.7443 382.507 87.0294 382.149 87.2415C381.791 87.4536 381.396 87.5597 380.966 87.5597Z" fill="black"/>
<path d="M123.293 91.4972V82.7273H127.529V98H123.462V95.2259H123.303C122.958 96.1207 122.385 96.84 121.583 97.3835C120.787 97.9271 119.816 98.1989 118.669 98.1989C117.649 98.1989 116.75 97.9669 115.975 97.5028C115.199 97.0388 114.593 96.3793 114.155 95.5241C113.724 94.669 113.506 93.6449 113.499 92.4517V82.7273H117.735V91.696C117.741 92.5975 117.983 93.3101 118.461 93.8338C118.938 94.3575 119.578 94.6193 120.38 94.6193C120.89 94.6193 121.367 94.5033 121.811 94.2713C122.256 94.0327 122.614 93.6813 122.885 93.2173C123.164 92.7533 123.3 92.1799 123.293 91.4972ZM143.624 87.0824L139.746 87.321C139.68 86.9896 139.538 86.6913 139.319 86.4261C139.1 86.1544 138.812 85.9389 138.454 85.7798C138.103 85.6141 137.682 85.5312 137.191 85.5312C136.535 85.5312 135.981 85.6705 135.531 85.9489C135.08 86.2206 134.854 86.5852 134.854 87.0426C134.854 87.4072 135 87.7154 135.292 87.9673C135.584 88.2192 136.084 88.4214 136.793 88.5739L139.558 89.1307C141.042 89.4356 142.149 89.9261 142.879 90.6023C143.608 91.2784 143.972 92.1667 143.972 93.267C143.972 94.268 143.677 95.1463 143.087 95.902C142.504 96.6577 141.702 97.2476 140.681 97.6719C139.667 98.0895 138.497 98.2983 137.171 98.2983C135.149 98.2983 133.539 97.8774 132.339 97.0355C131.146 96.187 130.446 95.0336 130.241 93.5753L134.407 93.3565C134.533 93.973 134.838 94.4437 135.322 94.7685C135.806 95.0866 136.425 95.2457 137.181 95.2457C137.924 95.2457 138.52 95.1032 138.971 94.8182C139.428 94.5265 139.66 94.152 139.667 93.6946C139.66 93.3101 139.498 92.9953 139.18 92.75C138.862 92.4981 138.371 92.3059 137.708 92.1733L135.063 91.6463C133.572 91.348 132.461 90.831 131.732 90.0952C131.01 89.3594 130.648 88.4214 130.648 87.2812C130.648 86.3002 130.914 85.455 131.444 84.7457C131.981 84.0365 132.733 83.4896 133.701 83.1051C134.675 82.7206 135.816 82.5284 137.121 82.5284C139.05 82.5284 140.568 82.9361 141.675 83.7514C142.789 84.5668 143.439 85.6771 143.624 87.0824ZM153.6 98.2983C152.029 98.2983 150.676 97.9801 149.543 97.3438C148.416 96.7008 147.548 95.7926 146.938 94.6193C146.328 93.4394 146.023 92.044 146.023 90.4332C146.023 88.8622 146.328 87.4834 146.938 86.2969C147.548 85.1103 148.406 84.1856 149.513 83.5227C150.627 82.8598 151.933 82.5284 153.431 82.5284C154.438 82.5284 155.376 82.6908 156.245 83.0156C157.12 83.3338 157.882 83.8144 158.532 84.4574C159.188 85.1004 159.698 85.9091 160.063 86.8835C160.427 87.8513 160.61 88.9848 160.61 90.2841V91.4474H147.713V88.8224H156.623C156.623 88.2126 156.49 87.6723 156.225 87.2017C155.96 86.7311 155.592 86.3632 155.121 86.098C154.657 85.8262 154.117 85.6903 153.5 85.6903C152.857 85.6903 152.287 85.8395 151.79 86.1378C151.3 86.4295 150.915 86.8239 150.637 87.321C150.358 87.8116 150.216 88.3584 150.209 88.9616V91.4574C150.209 92.2131 150.348 92.866 150.627 93.4162C150.912 93.9664 151.313 94.3906 151.83 94.6889C152.347 94.9872 152.96 95.1364 153.669 95.1364C154.14 95.1364 154.571 95.0701 154.962 94.9375C155.353 94.8049 155.688 94.6061 155.966 94.3409C156.245 94.0758 156.457 93.7509 156.603 93.3665L160.52 93.625C160.321 94.5663 159.914 95.3883 159.297 96.0909C158.687 96.7869 157.899 97.3305 156.931 97.7216C155.97 98.1061 154.859 98.2983 153.6 98.2983ZM163.374 98V82.7273H167.48V85.392H167.64C167.918 84.4441 168.385 83.7282 169.042 83.2443C169.698 82.7538 170.453 82.5085 171.309 82.5085C171.521 82.5085 171.749 82.5218 171.995 82.5483C172.24 82.5748 172.455 82.6113 172.641 82.6577V86.4162C172.442 86.3565 172.167 86.3035 171.816 86.2571C171.464 86.2107 171.143 86.1875 170.851 86.1875C170.228 86.1875 169.671 86.3234 169.181 86.5952C168.697 86.8603 168.312 87.2315 168.027 87.7088C167.749 88.1861 167.61 88.7363 167.61 89.3594V98H163.374ZM191.943 77.6364V98H188.224L179.365 85.1832H179.216V98H174.911V77.6364H178.689L187.479 90.4432H187.658V77.6364H191.943ZM199.776 98.2884C198.801 98.2884 197.933 98.1193 197.171 97.7812C196.408 97.4366 195.805 96.9295 195.361 96.2599C194.924 95.5838 194.705 94.742 194.705 93.7344C194.705 92.8859 194.861 92.1733 195.172 91.5966C195.484 91.0199 195.908 90.5559 196.445 90.2045C196.982 89.8532 197.592 89.5881 198.275 89.4091C198.964 89.2301 199.686 89.1042 200.442 89.0312C201.33 88.9384 202.046 88.8523 202.59 88.7727C203.133 88.6866 203.528 88.5606 203.773 88.3949C204.018 88.2292 204.141 87.9839 204.141 87.6591V87.5994C204.141 86.9697 203.942 86.4825 203.544 86.1378C203.153 85.7931 202.596 85.6207 201.874 85.6207C201.112 85.6207 200.505 85.7898 200.054 86.1278C199.604 86.4593 199.305 86.8769 199.159 87.3807L195.242 87.0625C195.441 86.1345 195.832 85.3324 196.415 84.6562C196.998 83.9735 197.751 83.4498 198.672 83.0852C199.6 82.714 200.674 82.5284 201.894 82.5284C202.742 82.5284 203.554 82.6278 204.33 82.8267C205.112 83.0256 205.805 83.3338 206.408 83.7514C207.018 84.169 207.498 84.706 207.85 85.3622C208.201 86.0118 208.377 86.7907 208.377 87.6989V98H204.36V95.8821H204.24C203.995 96.3594 203.667 96.7803 203.256 97.1449C202.845 97.5028 202.351 97.7846 201.775 97.9901C201.198 98.1889 200.532 98.2884 199.776 98.2884ZM200.989 95.3651C201.612 95.3651 202.162 95.2424 202.64 94.9972C203.117 94.7453 203.491 94.4072 203.763 93.983C204.035 93.5587 204.171 93.0781 204.171 92.5412V90.9205C204.038 91.0066 203.856 91.0862 203.624 91.1591C203.399 91.2254 203.143 91.2884 202.858 91.348C202.573 91.401 202.288 91.4508 202.003 91.4972C201.718 91.5369 201.46 91.5734 201.228 91.6065C200.73 91.6795 200.296 91.7955 199.925 91.9545C199.554 92.1136 199.266 92.3291 199.06 92.6009C198.855 92.866 198.752 93.1974 198.752 93.5952C198.752 94.1719 198.961 94.6127 199.378 94.9176C199.802 95.2159 200.339 95.3651 200.989 95.3651ZM211.663 98V82.7273H215.7V85.4219H215.879C216.197 84.527 216.727 83.821 217.47 83.304C218.212 82.7869 219.1 82.5284 220.135 82.5284C221.182 82.5284 222.074 82.7902 222.809 83.3139C223.545 83.831 224.036 84.5336 224.281 85.4219H224.44C224.752 84.5469 225.315 83.8475 226.13 83.3239C226.952 82.7936 227.923 82.5284 229.044 82.5284C230.469 82.5284 231.626 82.9825 232.514 83.8906C233.409 84.7921 233.856 86.0715 233.856 87.7287V98H229.63V88.5639C229.63 87.7154 229.405 87.0791 228.954 86.6548C228.503 86.2306 227.94 86.0185 227.264 86.0185C226.495 86.0185 225.895 86.2637 225.464 86.7543C225.033 87.2382 224.818 87.8778 224.818 88.6733V98H220.711V88.4744C220.711 87.7254 220.496 87.1288 220.065 86.6847C219.641 86.2405 219.081 86.0185 218.385 86.0185C217.914 86.0185 217.49 86.1378 217.112 86.3764C216.741 86.6084 216.446 86.9366 216.227 87.3608C216.008 87.7784 215.899 88.2689 215.899 88.8324V98H211.663ZM244.162 98.2983C242.591 98.2983 241.239 97.9801 240.105 97.3438C238.979 96.7008 238.11 95.7926 237.5 94.6193C236.891 93.4394 236.586 92.044 236.586 90.4332C236.586 88.8622 236.891 87.4834 237.5 86.2969C238.11 85.1103 238.969 84.1856 240.076 83.5227C241.189 82.8598 242.495 82.5284 243.993 82.5284C245.001 82.5284 245.939 82.6908 246.807 83.0156C247.682 83.3338 248.444 83.8144 249.094 84.4574C249.75 85.1004 250.261 85.9091 250.625 86.8835C250.99 87.8513 251.172 88.9848 251.172 90.2841V91.4474H238.276V88.8224H247.185C247.185 88.2126 247.052 87.6723 246.787 87.2017C246.522 86.7311 246.154 86.3632 245.684 86.098C245.22 85.8262 244.679 85.6903 244.063 85.6903C243.42 85.6903 242.85 85.8395 242.353 86.1378C241.862 86.4295 241.478 86.8239 241.199 87.321C240.921 87.8116 240.778 88.3584 240.772 88.9616V91.4574C240.772 92.2131 240.911 92.866 241.189 93.4162C241.474 93.9664 241.875 94.3906 242.392 94.6889C242.909 94.9872 243.523 95.1364 244.232 95.1364C244.703 95.1364 245.133 95.0701 245.525 94.9375C245.916 94.8049 246.25 94.6061 246.529 94.3409C246.807 94.0758 247.019 93.7509 247.165 93.3665L251.083 93.625C250.884 94.5663 250.476 95.3883 249.86 96.0909C249.25 96.7869 248.461 97.3305 247.493 97.7216C246.532 98.1061 245.422 98.2983 244.162 98.2983Z" fill="#00B43F"/>
<path d="M285.779 84V81.8523C285.779 81.2424 285.899 80.6193 286.137 79.983C286.376 79.3466 286.691 78.7467 287.082 78.1832C287.473 77.6198 287.897 77.1491 288.355 76.7713L290.224 77.875C289.853 78.4583 289.548 79.0682 289.309 79.7045C289.077 80.3409 288.961 81.0502 288.961 81.8324V84H285.779ZM290.801 84V81.8523C290.801 81.2424 290.92 80.6193 291.159 79.983C291.397 79.3466 291.712 78.7467 292.103 78.1832C292.494 77.6198 292.919 77.1491 293.376 76.7713L295.245 77.875C294.874 78.4583 294.569 79.0682 294.331 79.7045C294.099 80.3409 293.983 81.0502 293.983 81.8324V84H290.801ZM316.534 87.8182C316.534 90.0388 316.113 91.928 315.271 93.4858C314.436 95.0436 313.296 96.2334 311.85 97.0554C310.412 97.8707 308.795 98.2784 306.998 98.2784C305.189 98.2784 303.565 97.8674 302.126 97.0455C300.688 96.2235 299.551 95.0336 298.716 93.4759C297.88 91.9181 297.463 90.0322 297.463 87.8182C297.463 85.5975 297.88 83.7083 298.716 82.1506C299.551 80.5928 300.688 79.4062 302.126 78.5909C303.565 77.7689 305.189 77.358 306.998 77.358C308.795 77.358 310.412 77.7689 311.85 78.5909C313.296 79.4062 314.436 80.5928 315.271 82.1506C316.113 83.7083 316.534 85.5975 316.534 87.8182ZM312.169 87.8182C312.169 86.3797 311.953 85.1667 311.522 84.179C311.098 83.1913 310.498 82.4422 309.723 81.9318C308.947 81.4214 308.039 81.1662 306.998 81.1662C305.958 81.1662 305.049 81.4214 304.274 81.9318C303.498 82.4422 302.895 83.1913 302.464 84.179C302.04 85.1667 301.828 86.3797 301.828 87.8182C301.828 89.2566 302.04 90.4697 302.464 91.4574C302.895 92.4451 303.498 93.1941 304.274 93.7045C305.049 94.215 305.958 94.4702 306.998 94.4702C308.039 94.4702 308.947 94.215 309.723 93.7045C310.498 93.1941 311.098 92.4451 311.522 91.4574C311.953 90.4697 312.169 89.2566 312.169 87.8182ZM318.749 98L318.729 94.6392H319.236C319.594 94.6392 319.902 94.553 320.161 94.3807C320.426 94.2017 320.644 93.9134 320.817 93.5156C320.989 93.1179 321.125 92.5909 321.224 91.9347C321.324 91.2718 321.39 90.4564 321.423 89.4886L321.672 82.7273H333.286V98H329.249V86.0582H325.48L325.241 90.7216C325.182 92.0009 325.026 93.1013 324.774 94.0227C324.529 94.9441 324.188 95.6998 323.75 96.2898C323.312 96.8731 322.786 97.304 322.169 97.5824C321.553 97.8608 320.837 98 320.021 98H318.749ZM343.529 98.2983C341.958 98.2983 340.606 97.9801 339.473 97.3438C338.346 96.7008 337.477 95.7926 336.868 94.6193C336.258 93.4394 335.953 92.044 335.953 90.4332C335.953 88.8622 336.258 87.4834 336.868 86.2969C337.477 85.1103 338.336 84.1856 339.443 83.5227C340.556 82.8598 341.862 82.5284 343.36 82.5284C344.368 82.5284 345.306 82.6908 346.174 83.0156C347.049 83.3338 347.812 83.8144 348.461 84.4574C349.118 85.1004 349.628 85.9091 349.993 86.8835C350.357 87.8513 350.539 88.9848 350.539 90.2841V91.4474H337.643V88.8224H346.552C346.552 88.2126 346.42 87.6723 346.154 87.2017C345.889 86.7311 345.521 86.3632 345.051 86.098C344.587 85.8262 344.047 85.6903 343.43 85.6903C342.787 85.6903 342.217 85.8395 341.72 86.1378C341.229 86.4295 340.845 86.8239 340.566 87.321C340.288 87.8116 340.145 88.3584 340.139 88.9616V91.4574C340.139 92.2131 340.278 92.866 340.556 93.4162C340.842 93.9664 341.243 94.3906 341.76 94.6889C342.277 94.9872 342.89 95.1364 343.599 95.1364C344.07 95.1364 344.501 95.0701 344.892 94.9375C345.283 94.8049 345.618 94.6061 345.896 94.3409C346.174 94.0758 346.386 93.7509 346.532 93.3665L350.45 93.625C350.251 94.5663 349.843 95.3883 349.227 96.0909C348.617 96.7869 347.828 97.3305 346.86 97.7216C345.899 98.1061 344.789 98.2983 343.529 98.2983ZM363.764 82.7273V86.0582H357.42V98H353.304V82.7273H363.764ZM369.896 77.6364V79.7841C369.896 80.3939 369.777 81.017 369.538 81.6534C369.306 82.2831 368.995 82.8797 368.604 83.4432C368.213 84 367.785 84.474 367.321 84.8651L365.452 83.7614C365.783 83.2377 366.075 82.6577 366.327 82.0213C366.585 81.3849 366.714 80.6458 366.714 79.804V77.6364H369.896ZM374.898 77.6364V79.7841C374.898 80.3939 374.778 81.017 374.54 81.6534C374.308 82.2831 373.996 82.8797 373.605 83.4432C373.214 84 372.783 84.474 372.312 84.8651L370.443 83.7614C370.781 83.2377 371.076 82.6577 371.328 82.0213C371.587 81.3849 371.716 80.6458 371.716 79.804V77.6364H374.898Z" fill="#FACD58"/>
<line x1="64.5" y1="102" x2="64.5" y2="110" stroke="black"/>
<line x1="87.5" y1="110" x2="87.5" y2="118" stroke="black"/>
<line x1="110.5" y1="102" x2="110.5" y2="110" stroke="black"/>
<line x1="64" y1="109.5" x2="110" y2="109.5" stroke="black"/>
<line x1="253.5" y1="76" x2="253.5" y2="68" stroke="black"/>
<line x1="182.5" y1="68" x2="182.5" y2="60" stroke="black"/>
<line x1="111.5" y1="76" x2="111.5" y2="68" stroke="black"/>
<line x1="254" y1="68.5" x2="112" y2="68.5" stroke="black"/>
<line x1="379.5" y1="76" x2="379.5" y2="68" stroke="black"/>
<line x1="331.5" y1="68" x2="331.5" y2="60" stroke="black"/>
<line x1="283.5" y1="76" x2="283.5" y2="68" stroke="black"/>
<line x1="380" y1="68.5" x2="284" y2="68.5" stroke="black"/>
<line x1="268.5" y1="102" x2="268.5" y2="118" stroke="black"/>
<path d="M59.7612 130V123.455H60.5197V126.399H61.2314L63.6646 123.455H64.6447L62.0197 126.604L64.7044 130H63.7243L61.4657 127.115H60.5197V130H59.7612ZM65.3052 130V129.284H65.5098C65.7427 129.284 65.9302 129.241 66.0723 129.156C66.2172 129.068 66.3294 128.92 66.4089 128.713C66.4885 128.506 66.5481 128.223 66.5879 127.865C66.6277 127.507 66.6589 127.058 66.6816 126.518L66.8223 123.455H70.9814V130H70.2186V124.17H67.5424L67.4189 126.774C67.3933 127.305 67.3507 127.773 67.291 128.176C67.2342 128.58 67.1404 128.916 67.0098 129.186C66.8819 129.456 66.7029 129.659 66.4728 129.795C66.2456 129.932 65.9473 130 65.5779 130H65.3052ZM75.8084 126.438V127.153H72.6081V126.438H75.8084ZM73.2175 123.455V130H72.4547V123.455H73.2175ZM78.003 130.136C77.4377 130.136 76.9391 129.993 76.5073 129.706C76.0755 129.419 75.736 129.023 75.4888 128.517C75.2445 128.009 75.1223 127.422 75.1223 126.757C75.1223 126.087 75.2445 125.497 75.4888 124.989C75.736 124.477 76.0755 124.08 76.5073 123.795C76.9391 123.509 77.4377 123.365 78.003 123.365C78.5684 123.365 79.0669 123.509 79.4988 123.795C79.9334 124.082 80.2729 124.48 80.5172 124.989C80.7615 125.497 80.8837 126.087 80.8837 126.757C80.8837 127.422 80.7615 128.009 80.5172 128.517C80.2729 129.023 79.9334 129.419 79.4988 129.706C79.0669 129.993 78.5684 130.136 78.003 130.136ZM78.003 129.442C78.4576 129.442 78.8425 129.32 79.1578 129.075C79.4732 128.831 79.7132 128.506 79.878 128.099C80.0428 127.693 80.1252 127.246 80.1252 126.757C80.1252 126.268 80.0428 125.82 79.878 125.411C79.7132 125.001 79.4732 124.673 79.1578 124.426C78.8425 124.179 78.4576 124.055 78.003 124.055C77.5513 124.055 77.1678 124.179 76.8525 124.426C76.5371 124.673 76.2971 125.001 76.1323 125.411C75.9675 125.82 75.8851 126.268 75.8851 126.757C75.8851 127.246 75.9661 127.693 76.128 128.099C76.2928 128.506 76.5328 128.831 76.8482 129.075C77.1664 129.32 77.5513 129.442 78.003 129.442ZM87.4995 123.455V130H86.7367V123.455H87.4995ZM87.2182 126.689V127.413C86.9597 127.507 86.714 127.587 86.481 127.652C86.248 127.714 86.0137 127.763 85.7779 127.797C85.5449 127.831 85.2963 127.848 85.0321 127.848C84.2963 127.845 83.7182 127.656 83.2978 127.281C82.8801 126.906 82.6713 126.335 82.6713 125.568V123.433H83.4299V125.568C83.4299 125.932 83.4952 126.229 83.6259 126.459C83.7566 126.689 83.9412 126.859 84.1799 126.97C84.4185 127.078 84.6998 127.132 85.0236 127.132C85.4213 127.132 85.7963 127.092 86.1486 127.013C86.5009 126.933 86.8574 126.825 87.2182 126.689ZM92.1614 130.136C91.5506 130.136 91.0222 129.994 90.5762 129.71C90.1301 129.423 89.785 129.027 89.5407 128.521C89.2992 128.013 89.1784 127.428 89.1784 126.766C89.1784 126.107 89.2992 125.521 89.5407 125.01C89.785 124.496 90.1216 124.094 90.5506 123.804C90.9824 123.511 91.481 123.365 92.0463 123.365C92.4015 123.365 92.7438 123.43 93.0733 123.561C93.4029 123.689 93.6983 123.886 93.9597 124.153C94.2239 124.418 94.4327 124.751 94.5861 125.155C94.7395 125.555 94.8162 126.03 94.8162 126.578V126.953H89.7026V126.284H94.0407C94.0407 125.864 93.9554 125.486 93.785 125.151C93.6174 124.812 93.383 124.545 93.0819 124.349C92.7836 124.153 92.4384 124.055 92.0463 124.055C91.6316 124.055 91.2665 124.166 90.9512 124.388C90.6358 124.609 90.3887 124.902 90.2097 125.266C90.0336 125.629 89.9441 126.027 89.9412 126.459V126.859C89.9412 127.379 90.0307 127.834 90.2097 128.223C90.3915 128.609 90.6486 128.909 90.981 129.122C91.3134 129.335 91.7069 129.442 92.1614 129.442C92.4711 129.442 92.7424 129.393 92.9753 129.297C93.2111 129.2 93.4086 129.071 93.5676 128.909C93.7296 128.744 93.8517 128.564 93.9341 128.368L94.6543 128.602C94.5549 128.878 94.3915 129.132 94.1642 129.365C93.9398 129.598 93.6586 129.786 93.3205 129.928C92.9853 130.067 92.5989 130.136 92.1614 130.136ZM96.4877 130V123.455H99.0659C99.7619 123.455 100.31 123.605 100.711 123.906C101.114 124.207 101.316 124.614 101.316 125.125C101.316 125.514 101.204 125.825 100.979 126.058C100.755 126.291 100.454 126.456 100.076 126.553C100.329 126.595 100.563 126.687 100.779 126.83C100.998 126.972 101.175 127.159 101.312 127.392C101.448 127.625 101.516 127.903 101.516 128.227C101.516 128.568 101.431 128.872 101.26 129.139C101.09 129.406 100.85 129.616 100.54 129.77C100.231 129.923 99.8642 130 99.4409 130H96.4877ZM97.2122 129.297H99.4409C99.8414 129.297 100.158 129.195 100.391 128.99C100.624 128.783 100.741 128.507 100.741 128.163C100.741 127.797 100.63 127.504 100.408 127.286C100.189 127.064 99.8954 126.953 99.5261 126.953H97.2122V129.297ZM97.2122 126.28H99.1127C99.4082 126.28 99.6639 126.234 99.8798 126.143C100.096 126.053 100.262 125.925 100.378 125.76C100.498 125.592 100.556 125.396 100.553 125.172C100.553 124.851 100.422 124.602 100.161 124.426C99.8997 124.247 99.5346 124.158 99.0659 124.158H97.2122V126.28ZM105.723 130.136C105.158 130.136 104.658 129.993 104.223 129.706C103.791 129.419 103.453 129.023 103.209 128.517C102.965 128.009 102.843 127.422 102.843 126.757C102.843 126.087 102.965 125.497 103.209 124.989C103.453 124.477 103.791 124.08 104.223 123.795C104.658 123.509 105.158 123.365 105.723 123.365C106.289 123.365 106.787 123.509 107.219 123.795C107.651 124.082 107.989 124.48 108.233 124.989C108.48 125.497 108.604 126.087 108.604 126.757C108.604 127.422 108.482 128.009 108.237 128.517C107.993 129.023 107.654 129.419 107.219 129.706C106.787 129.993 106.289 130.136 105.723 130.136ZM105.723 129.442C106.178 129.442 106.563 129.32 106.878 129.075C107.193 128.831 107.432 128.506 107.594 128.099C107.759 127.693 107.841 127.246 107.841 126.757C107.841 126.268 107.759 125.82 107.594 125.411C107.432 125.001 107.193 124.673 106.878 124.426C106.563 124.179 106.178 124.055 105.723 124.055C105.271 124.055 104.887 124.179 104.568 124.426C104.253 124.673 104.013 125.001 103.848 125.411C103.686 125.82 103.605 126.268 103.605 126.757C103.605 127.246 103.686 127.693 103.848 128.099C104.013 128.506 104.253 128.831 104.568 129.075C104.884 129.32 105.269 129.442 105.723 129.442ZM112.915 130.136C112.305 130.136 111.776 129.994 111.33 129.71C110.884 129.423 110.539 129.027 110.295 128.521C110.053 128.013 109.932 127.428 109.932 126.766C109.932 126.107 110.053 125.521 110.295 125.01C110.539 124.496 110.876 124.094 111.305 123.804C111.736 123.511 112.235 123.365 112.8 123.365C113.155 123.365 113.498 123.43 113.827 123.561C114.157 123.689 114.452 123.886 114.714 124.153C114.978 124.418 115.187 124.751 115.34 125.155C115.493 125.555 115.57 126.03 115.57 126.578V126.953H110.456V126.284H114.795C114.795 125.864 114.709 125.486 114.539 125.151C114.371 124.812 114.137 124.545 113.836 124.349C113.537 124.153 113.192 124.055 112.8 124.055C112.385 124.055 112.02 124.166 111.705 124.388C111.39 124.609 111.143 124.902 110.964 125.266C110.787 125.629 110.698 126.027 110.695 126.459V126.859C110.695 127.379 110.785 127.834 110.964 128.223C111.145 128.609 111.403 128.909 111.735 129.122C112.067 129.335 112.461 129.442 112.915 129.442C113.225 129.442 113.496 129.393 113.729 129.297C113.965 129.2 114.162 129.071 114.322 128.909C114.483 128.744 114.606 128.564 114.688 128.368L115.408 128.602C115.309 128.878 115.145 129.132 114.918 129.365C114.694 129.598 114.412 129.786 114.074 129.928C113.739 130.067 113.353 130.136 112.915 130.136ZM73.7614 145.136C73.1761 145.136 72.6662 144.99 72.2315 144.697C71.7997 144.405 71.4645 144.004 71.2259 143.496C70.9872 142.987 70.8679 142.408 70.8679 141.757C70.8679 141.101 70.9886 140.517 71.2301 140.006C71.4744 139.494 71.8125 139.094 72.2443 138.804C72.6761 138.511 73.1776 138.365 73.7486 138.365C74.1861 138.365 74.5824 138.45 74.9375 138.621C75.2926 138.788 75.5852 139.026 75.8153 139.332C76.0483 139.636 76.1946 139.991 76.2543 140.398H75.4872C75.4077 140.028 75.2159 139.713 74.9119 139.452C74.6108 139.187 74.2273 139.055 73.7614 139.055C73.3438 139.055 72.9744 139.169 72.6534 139.396C72.3324 139.621 72.081 139.935 71.8991 140.338C71.7202 140.739 71.6307 141.203 71.6307 141.732C71.6307 142.263 71.7188 142.733 71.8949 143.142C72.071 143.548 72.3182 143.866 72.6364 144.097C72.9574 144.327 73.3324 144.442 73.7614 144.442C74.0511 144.442 74.3153 144.388 74.554 144.28C74.7955 144.169 74.9972 144.013 75.1591 143.811C75.3239 143.609 75.4347 143.369 75.4915 143.091H76.2585C76.2017 143.486 76.0611 143.838 75.8366 144.148C75.6151 144.455 75.3267 144.696 74.9716 144.872C74.6193 145.048 74.2159 145.136 73.7614 145.136ZM77.2408 145V144.284H77.4453C77.6783 144.284 77.8658 144.241 78.0078 144.156C78.1527 144.068 78.2649 143.92 78.3445 143.713C78.424 143.506 78.4837 143.223 78.5234 142.865C78.5632 142.507 78.5945 142.058 78.6172 141.518L78.7578 138.455H82.9169V145H82.1541V139.17H79.478L79.3544 141.774C79.3288 142.305 79.2862 142.773 79.2266 143.176C79.1697 143.58 79.076 143.916 78.9453 144.186C78.8175 144.456 78.6385 144.659 78.4084 144.795C78.1811 144.932 77.8828 145 77.5135 145H77.2408ZM87.4712 145.136C86.9059 145.136 86.4059 144.993 85.9712 144.706C85.5394 144.419 85.2013 144.023 84.957 143.517C84.7127 143.009 84.5906 142.422 84.5906 141.757C84.5906 141.087 84.7127 140.497 84.957 139.989C85.2013 139.477 85.5394 139.08 85.9712 138.795C86.4059 138.509 86.9059 138.365 87.4712 138.365C88.0366 138.365 88.5352 138.509 88.967 138.795C89.3988 139.082 89.7369 139.48 89.9812 139.989C90.2283 140.497 90.3519 141.087 90.3519 141.757C90.3519 142.422 90.2298 143.009 89.9854 143.517C89.7411 144.023 89.4016 144.419 88.967 144.706C88.5352 144.993 88.0366 145.136 87.4712 145.136ZM87.4712 144.442C87.9258 144.442 88.3107 144.32 88.6261 144.075C88.9414 143.831 89.18 143.506 89.342 143.099C89.5067 142.693 89.5891 142.246 89.5891 141.757C89.5891 141.268 89.5067 140.82 89.342 140.411C89.18 140.001 88.9414 139.673 88.6261 139.426C88.3107 139.179 87.9258 139.055 87.4712 139.055C87.0195 139.055 86.6346 139.179 86.3164 139.426C86.0011 139.673 85.761 140.001 85.5962 140.411C85.4343 140.82 85.3533 141.268 85.3533 141.757C85.3533 142.246 85.4343 142.693 85.5962 143.099C85.761 143.506 86.0011 143.831 86.3164 144.075C86.6317 144.32 87.0167 144.442 87.4712 144.442ZM92.017 145V138.455H94.5952C95.2912 138.455 95.8395 138.605 96.2401 138.906C96.6435 139.207 96.8452 139.614 96.8452 140.125C96.8452 140.514 96.733 140.825 96.5085 141.058C96.2841 141.291 95.983 141.456 95.6051 141.553C95.858 141.595 96.0923 141.687 96.3082 141.83C96.527 141.972 96.7045 142.159 96.8409 142.392C96.9773 142.625 97.0455 142.903 97.0455 143.227C97.0455 143.568 96.9602 143.872 96.7898 144.139C96.6193 144.406 96.3793 144.616 96.0696 144.77C95.7599 144.923 95.3935 145 94.9702 145H92.017ZM92.7415 144.297H94.9702C95.3707 144.297 95.6875 144.195 95.9205 143.99C96.1534 143.783 96.2699 143.507 96.2699 143.163C96.2699 142.797 96.1591 142.504 95.9375 142.286C95.7188 142.064 95.4247 141.953 95.0554 141.953H92.7415V144.297ZM92.7415 141.28H94.642C94.9375 141.28 95.1932 141.234 95.4091 141.143C95.625 141.053 95.7912 140.925 95.9077 140.76C96.027 140.592 96.0852 140.396 96.0824 140.172C96.0824 139.851 95.9517 139.602 95.6903 139.426C95.429 139.247 95.0639 139.158 94.5952 139.158H92.7415V141.28ZM101.252 145.136C100.687 145.136 100.187 144.993 99.7525 144.706C99.3207 144.419 98.9826 144.023 98.7383 143.517C98.494 143.009 98.3718 142.422 98.3718 141.757C98.3718 141.087 98.494 140.497 98.7383 139.989C98.9826 139.477 99.3207 139.08 99.7525 138.795C100.187 138.509 100.687 138.365 101.252 138.365C101.818 138.365 102.316 138.509 102.748 138.795C103.18 139.082 103.518 139.48 103.762 139.989C104.01 140.497 104.133 141.087 104.133 141.757C104.133 142.422 104.011 143.009 103.767 143.517C103.522 144.023 103.183 144.419 102.748 144.706C102.316 144.993 101.818 145.136 101.252 145.136ZM101.252 144.442C101.707 144.442 102.092 144.32 102.407 144.075C102.723 143.831 102.961 143.506 103.123 143.099C103.288 142.693 103.37 142.246 103.37 141.757C103.37 141.268 103.288 140.82 103.123 140.411C102.961 140.001 102.723 139.673 102.407 139.426C102.092 139.179 101.707 139.055 101.252 139.055C100.801 139.055 100.416 139.179 100.098 139.426C99.7823 139.673 99.5423 140.001 99.3775 140.411C99.2156 140.82 99.1346 141.268 99.1346 141.757C99.1346 142.246 99.2156 142.693 99.3775 143.099C99.5423 143.506 99.7823 143.831 100.098 144.075C100.413 144.32 100.798 144.442 101.252 144.442Z" fill="black"/>
<path d="M172.928 40.9219L176.384 35.4545H177.292V42H176.533V36.5327L173.09 42H172.169V35.4545H172.928V40.9219ZM182.716 40.9389L185.175 35.4545H185.912L183.019 42H182.414L179.554 35.4545H180.279L182.716 40.9389ZM180.053 35.4545V42H179.294V35.4545H180.053ZM185.38 42V35.4545H186.138V42H185.38ZM192.091 42V36.1577H190.289C189.82 36.1605 189.463 36.2585 189.219 36.4517C188.978 36.6449 188.857 36.9332 188.857 37.3168C188.857 37.7003 188.972 37.9886 189.202 38.1818C189.432 38.3722 189.767 38.4673 190.208 38.4673H192.304V39.1832H190.208C189.756 39.1832 189.373 39.1108 189.057 38.9659C188.745 38.821 188.506 38.6094 188.341 38.331C188.176 38.0526 188.094 37.7145 188.094 37.3168C188.094 36.9162 188.178 36.5781 188.346 36.3026C188.516 36.0241 188.765 35.8139 189.091 35.6719C189.421 35.527 189.82 35.4545 190.289 35.4545H192.816V42H192.091ZM187.681 42L189.564 38.7443H190.395L188.512 42H187.681ZM147.434 57V50.4545H152.39V57H151.627V51.1705H148.197V57H147.434ZM157.044 57.1364C156.433 57.1364 155.905 56.9943 155.459 56.7102C155.013 56.4233 154.668 56.027 154.423 55.5213C154.182 55.0128 154.061 54.4276 154.061 53.7656C154.061 53.1065 154.182 52.5213 154.423 52.0099C154.668 51.4957 155.004 51.0937 155.433 50.804C155.865 50.5114 156.364 50.3651 156.929 50.3651C157.284 50.3651 157.627 50.4304 157.956 50.5611C158.286 50.6889 158.581 50.8864 158.843 51.1534C159.107 51.4176 159.316 51.7514 159.469 52.1548C159.622 52.5554 159.699 53.0298 159.699 53.5781V53.9531H154.585V53.2841H158.923C158.923 52.8636 158.838 52.4858 158.668 52.1506C158.5 51.8125 158.266 51.5455 157.965 51.3494C157.666 51.1534 157.321 51.0554 156.929 51.0554C156.514 51.0554 156.149 51.1662 155.834 51.3878C155.519 51.6094 155.271 51.902 155.093 52.2656C154.916 52.6293 154.827 53.027 154.824 53.4588V53.8594C154.824 54.3793 154.914 54.8338 155.093 55.223C155.274 55.6094 155.531 55.9091 155.864 56.1222C156.196 56.3352 156.59 56.4418 157.044 56.4418C157.354 56.4418 157.625 56.3935 157.858 56.2969C158.094 56.2003 158.291 56.071 158.45 55.9091C158.612 55.7443 158.735 55.5639 158.817 55.3679L159.537 55.6023C159.438 55.8778 159.274 56.1321 159.047 56.3651C158.823 56.598 158.541 56.7855 158.203 56.9276C157.868 57.0668 157.482 57.1364 157.044 57.1364ZM161.371 59.4545V50.4545H162.108V51.7031H162.197C162.288 51.5071 162.413 51.3068 162.572 51.1023C162.731 50.8949 162.942 50.7202 163.203 50.5781C163.467 50.4361 163.8 50.3651 164.2 50.3651C164.74 50.3651 165.211 50.5071 165.615 50.7912C166.021 51.0724 166.336 51.4673 166.561 51.9759C166.788 52.4815 166.902 53.071 166.902 53.7443C166.902 54.4205 166.788 55.0128 166.561 55.5213C166.336 56.0298 166.021 56.4261 165.615 56.7102C165.211 56.9943 164.743 57.1364 164.209 57.1364C163.814 57.1364 163.483 57.0653 163.216 56.9233C162.952 56.7812 162.737 56.6065 162.572 56.3991C162.41 56.1889 162.285 55.9844 162.197 55.7855H162.129V59.4545H161.371ZM162.121 53.7315C162.121 54.2599 162.199 54.7287 162.355 55.1378C162.514 55.544 162.741 55.8636 163.037 56.0966C163.335 56.3267 163.696 56.4418 164.119 56.4418C164.554 56.4418 164.92 56.3224 165.219 56.0838C165.52 55.8423 165.748 55.517 165.905 55.108C166.064 54.6989 166.143 54.2401 166.143 53.7315C166.143 53.2287 166.065 52.7756 165.909 52.3722C165.756 51.9687 165.528 51.6491 165.227 51.4134C164.926 51.1747 164.557 51.0554 164.119 51.0554C163.693 51.0554 163.331 51.1705 163.032 51.4006C162.734 51.6278 162.507 51.9432 162.351 52.3466C162.197 52.7472 162.121 53.2088 162.121 53.7315ZM171.212 57.1364C170.601 57.1364 170.073 56.9943 169.627 56.7102C169.181 56.4233 168.836 56.027 168.591 55.5213C168.35 55.0128 168.229 54.4276 168.229 53.7656C168.229 53.1065 168.35 52.5213 168.591 52.0099C168.836 51.4957 169.172 51.0937 169.601 50.804C170.033 50.5114 170.532 50.3651 171.097 50.3651C171.452 50.3651 171.795 50.4304 172.124 50.5611C172.454 50.6889 172.749 50.8864 173.01 51.1534C173.275 51.4176 173.483 51.7514 173.637 52.1548C173.79 52.5554 173.867 53.0298 173.867 53.5781V53.9531H168.753V53.2841H173.091C173.091 52.8636 173.006 52.4858 172.836 52.1506C172.668 51.8125 172.434 51.5455 172.133 51.3494C171.834 51.1534 171.489 51.0554 171.097 51.0554C170.682 51.0554 170.317 51.1662 170.002 51.3878C169.687 51.6094 169.439 51.902 169.26 52.2656C169.084 52.6293 168.995 53.027 168.992 53.4588V53.8594C168.992 54.3793 169.081 54.8338 169.26 55.223C169.442 55.6094 169.699 55.9091 170.032 56.1222C170.364 56.3352 170.758 56.4418 171.212 56.4418C171.522 56.4418 171.793 56.3935 172.026 56.2969C172.262 56.2003 172.459 56.071 172.618 55.9091C172.78 55.7443 172.903 55.5639 172.985 55.3679L173.705 55.6023C173.606 55.8778 173.442 56.1321 173.215 56.3651C172.991 56.598 172.709 56.7855 172.371 56.9276C172.036 57.0668 171.65 57.1364 171.212 57.1364ZM178.96 55.9389L181.419 50.4545H182.156L179.263 57H178.658L175.798 50.4545H176.523L178.96 55.9389ZM176.297 50.4545V57H175.539V50.4545H176.297ZM181.624 57V50.4545H182.382V57H181.624ZM187.044 57.1364C186.433 57.1364 185.905 56.9943 185.459 56.7102C185.013 56.4233 184.668 56.027 184.423 55.5213C184.182 55.0128 184.061 54.4276 184.061 53.7656C184.061 53.1065 184.182 52.5213 184.423 52.0099C184.668 51.4957 185.004 51.0937 185.433 50.804C185.865 50.5114 186.364 50.3651 186.929 50.3651C187.284 50.3651 187.627 50.4304 187.956 50.5611C188.286 50.6889 188.581 50.8864 188.843 51.1534C189.107 51.4176 189.316 51.7514 189.469 52.1548C189.622 52.5554 189.699 53.0298 189.699 53.5781V53.9531H184.585V53.2841H188.923C188.923 52.8636 188.838 52.4858 188.668 52.1506C188.5 51.8125 188.266 51.5455 187.965 51.3494C187.666 51.1534 187.321 51.0554 186.929 51.0554C186.514 51.0554 186.149 51.1662 185.834 51.3878C185.519 51.6094 185.271 51.902 185.093 52.2656C184.916 52.6293 184.827 53.027 184.824 53.4588V53.8594C184.824 54.3793 184.914 54.8338 185.093 55.223C185.274 55.6094 185.531 55.9091 185.864 56.1222C186.196 56.3352 186.59 56.4418 187.044 56.4418C187.354 56.4418 187.625 56.3935 187.858 56.2969C188.094 56.2003 188.291 56.071 188.45 55.9091C188.612 55.7443 188.735 55.5639 188.817 55.3679L189.537 55.6023C189.438 55.8778 189.274 56.1321 189.047 56.3651C188.823 56.598 188.541 56.7855 188.203 56.9276C187.868 57.0668 187.482 57.1364 187.044 57.1364ZM195.79 53.3736V54.0895H191.942V53.3736H195.79ZM192.129 50.4545V57H191.371V50.4545H192.129ZM196.348 50.4545V57H195.589V50.4545H196.348ZM202.786 53.3736V54.0895H198.938V53.3736H202.786ZM199.125 50.4545V57H198.367V50.4545H199.125ZM203.344 50.4545V57H202.585V50.4545H203.344ZM207.907 57.1364C207.341 57.1364 206.841 56.9929 206.407 56.706C205.975 56.419 205.637 56.0227 205.393 55.517C205.148 55.0085 205.026 54.4219 205.026 53.7571C205.026 53.0866 205.148 52.4972 205.393 51.9886C205.637 51.4773 205.975 51.0795 206.407 50.7955C206.841 50.5085 207.341 50.3651 207.907 50.3651C208.472 50.3651 208.971 50.5085 209.403 50.7955C209.834 51.0824 210.172 51.4801 210.417 51.9886C210.664 52.4972 210.787 53.0866 210.787 53.7571C210.787 54.4219 210.665 55.0085 210.421 55.517C210.177 56.0227 209.837 56.419 209.403 56.706C208.971 56.9929 208.472 57.1364 207.907 57.1364ZM207.907 56.4418C208.361 56.4418 208.746 56.3196 209.062 56.0753C209.377 55.831 209.616 55.5057 209.778 55.0994C209.942 54.6932 210.025 54.2457 210.025 53.7571C210.025 53.2685 209.942 52.8196 209.778 52.4105C209.616 52.0014 209.377 51.6733 209.062 51.4261C208.746 51.179 208.361 51.0554 207.907 51.0554C207.455 51.0554 207.07 51.179 206.752 51.4261C206.437 51.6733 206.197 52.0014 206.032 52.4105C205.87 52.8196 205.789 53.2685 205.789 53.7571C205.789 54.2457 205.87 54.6932 206.032 55.0994C206.197 55.5057 206.437 55.831 206.752 56.0753C207.067 56.3196 207.452 56.4418 207.907 56.4418ZM213.211 55.9219L216.667 50.4545H217.575V57H216.816V51.5327L213.373 57H212.453V50.4545H213.211V55.9219ZM215.798 48.2727H216.514C216.514 48.679 216.379 49.0085 216.109 49.2614C215.842 49.5142 215.477 49.6406 215.014 49.6406C214.556 49.6406 214.194 49.5142 213.927 49.2614C213.66 49.0085 213.526 48.679 213.526 48.2727H214.242C214.242 48.4943 214.302 48.6818 214.421 48.8352C214.544 48.9858 214.741 49.0611 215.014 49.0611C215.286 49.0611 215.485 48.9858 215.61 48.8352C215.735 48.6818 215.798 48.4943 215.798 48.2727Z" fill="black"/>
<path d="M304.839 52.3295H305.645C305.667 52.679 305.818 52.9517 306.096 53.1477C306.375 53.3438 306.741 53.4418 307.196 53.4418C307.667 53.4418 308.057 53.3366 308.363 53.1264C308.67 52.9134 308.824 52.6037 308.824 52.1974C308.824 51.9503 308.765 51.7358 308.649 51.554C308.535 51.3722 308.379 51.2301 308.18 51.1278C307.984 51.0227 307.761 50.9687 307.511 50.9659H306.369V50.2713H307.498C307.888 50.2486 308.183 50.1435 308.385 49.956C308.586 49.7656 308.687 49.517 308.687 49.2102C308.687 48.8608 308.564 48.581 308.317 48.3707C308.069 48.1577 307.734 48.0511 307.311 48.0511C306.882 48.0511 306.525 48.1562 306.241 48.3665C305.957 48.5767 305.807 48.8466 305.79 49.1761H304.993C305.007 48.821 305.113 48.5085 305.312 48.2386C305.511 47.9659 305.78 47.7528 306.118 47.5994C306.459 47.446 306.845 47.3693 307.277 47.3693C307.72 47.3693 308.105 47.4489 308.432 47.608C308.758 47.767 309.011 47.9844 309.19 48.2599C309.369 48.5327 309.459 48.8423 309.459 49.1889C309.459 49.5497 309.359 49.8466 309.16 50.0795C308.964 50.3097 308.713 50.4716 308.406 50.5653V50.6293C308.639 50.6548 308.844 50.7401 309.02 50.8849C309.199 51.0298 309.339 51.2159 309.442 51.4432C309.544 51.6705 309.595 51.9219 309.595 52.1974C309.595 52.5838 309.494 52.9233 309.292 53.2159C309.091 53.5057 308.809 53.7315 308.449 53.8935C308.091 54.0554 307.677 54.1364 307.209 54.1364C306.757 54.1364 306.355 54.0611 306.003 53.9105C305.65 53.7571 305.371 53.5455 305.163 53.2756C304.959 53.0028 304.851 52.6875 304.839 52.3295ZM315.575 50.3736V51.0895H311.727V50.3736H315.575ZM311.914 47.4545V54H311.156V47.4545H311.914ZM316.133 47.4545V54H315.374V47.4545H316.133ZM319.98 54.1491C319.585 54.1491 319.224 54.0724 318.898 53.919C318.571 53.7628 318.311 53.5384 318.118 53.2457C317.925 52.9503 317.828 52.5923 317.828 52.1719C317.828 51.848 317.889 51.5753 318.011 51.3537C318.133 51.1321 318.307 50.9503 318.531 50.8082C318.756 50.6662 319.021 50.554 319.328 50.4716C319.635 50.3892 319.973 50.3253 320.342 50.2798C320.709 50.2344 321.018 50.1946 321.271 50.1605C321.527 50.1264 321.721 50.0724 321.855 49.9986C321.988 49.9247 322.055 49.8054 322.055 49.6406V49.4872C322.055 49.0412 321.922 48.6903 321.655 48.4347C321.39 48.1761 321.01 48.0469 320.513 48.0469C320.041 48.0469 319.656 48.1506 319.358 48.358C319.062 48.5653 318.855 48.8097 318.736 49.0909L318.015 48.831C318.163 48.473 318.368 48.1875 318.629 47.9744C318.89 47.7585 319.183 47.6037 319.507 47.5099C319.831 47.4134 320.159 47.3651 320.491 47.3651C320.741 47.3651 321.001 47.3977 321.271 47.4631C321.544 47.5284 321.797 47.642 322.03 47.804C322.263 47.9631 322.452 48.1861 322.596 48.473C322.741 48.7571 322.814 49.1179 322.814 49.5554V54H322.055V52.9645H322.008C321.917 53.1577 321.782 53.3452 321.604 53.527C321.425 53.7088 321.2 53.858 320.93 53.9744C320.66 54.0909 320.344 54.1491 319.98 54.1491ZM320.082 53.4545C320.486 53.4545 320.835 53.3651 321.131 53.1861C321.426 53.0071 321.653 52.7699 321.812 52.4744C321.974 52.1761 322.055 51.848 322.055 51.4901V50.544C321.998 50.598 321.903 50.6463 321.77 50.6889C321.639 50.7315 321.487 50.7699 321.314 50.804C321.143 50.8352 320.973 50.8622 320.802 50.8849C320.632 50.9077 320.479 50.9276 320.342 50.9446C319.973 50.9901 319.657 51.0611 319.396 51.1577C319.135 51.2543 318.934 51.3878 318.795 51.5582C318.656 51.7259 318.586 51.9418 318.586 52.206C318.586 52.6037 318.729 52.9119 319.013 53.1307C319.297 53.3466 319.653 53.4545 320.082 53.4545ZM329.66 47.4545V54H328.897V47.4545H329.66ZM329.378 50.6889V51.4134C329.12 51.5071 328.874 51.5866 328.641 51.652C328.408 51.7145 328.174 51.7628 327.938 51.7969C327.705 51.831 327.456 51.848 327.192 51.848C326.456 51.8452 325.878 51.6562 325.458 51.2812C325.04 50.9062 324.831 50.3352 324.831 49.5682V47.4332H325.59V49.5682C325.59 49.9318 325.655 50.2287 325.786 50.4588C325.917 50.6889 326.101 50.8594 326.34 50.9702C326.579 51.0781 326.86 51.1321 327.184 51.1321C327.581 51.1321 327.956 51.0923 328.309 51.0128C328.661 50.9332 329.018 50.8253 329.378 50.6889ZM334.322 54.1364C333.711 54.1364 333.182 53.9943 332.736 53.7102C332.29 53.4233 331.945 53.027 331.701 52.5213C331.459 52.0128 331.339 51.4276 331.339 50.7656C331.339 50.1065 331.459 49.5213 331.701 49.0099C331.945 48.4957 332.282 48.0937 332.711 47.804C333.143 47.5114 333.641 47.3651 334.206 47.3651C334.562 47.3651 334.904 47.4304 335.233 47.5611C335.563 47.6889 335.858 47.8864 336.12 48.1534C336.384 48.4176 336.593 48.7514 336.746 49.1548C336.9 49.5554 336.976 50.0298 336.976 50.5781V50.9531H331.863V50.2841H336.201C336.201 49.8636 336.116 49.4858 335.945 49.1506C335.778 48.8125 335.543 48.5455 335.242 48.3494C334.944 48.1534 334.599 48.0554 334.206 48.0554C333.792 48.0554 333.427 48.1662 333.111 48.3878C332.796 48.6094 332.549 48.902 332.37 49.2656C332.194 49.6293 332.104 50.027 332.101 50.4588V50.8594C332.101 51.3793 332.191 51.8338 332.37 52.223C332.552 52.6094 332.809 52.9091 333.141 53.1222C333.474 53.3352 333.867 53.4418 334.322 53.4418C334.631 53.4418 334.903 53.3935 335.135 53.2969C335.371 53.2003 335.569 53.071 335.728 52.9091C335.89 52.7443 336.012 52.5639 336.094 52.3679L336.814 52.6023C336.715 52.8778 336.552 53.1321 336.324 53.3651C336.1 53.598 335.819 53.7855 335.481 53.9276C335.145 54.0668 334.759 54.1364 334.322 54.1364ZM343.067 50.3736V51.0895H339.219V50.3736H343.067ZM339.406 47.4545V54H338.648V47.4545H339.406ZM343.625 47.4545V54H342.867V47.4545H343.625ZM346.403 52.9219L349.858 47.4545H350.766V54H350.008V48.5327L346.564 54H345.644V47.4545H346.403V52.9219ZM355.415 54.1364C354.805 54.1364 354.276 53.9943 353.83 53.7102C353.384 53.4233 353.039 53.027 352.795 52.5213C352.553 52.0128 352.432 51.4276 352.432 50.7656C352.432 50.1065 352.553 49.5213 352.795 49.0099C353.039 48.4957 353.376 48.0937 353.805 47.804C354.236 47.5114 354.735 47.3651 355.3 47.3651C355.655 47.3651 355.998 47.4304 356.327 47.5611C356.657 47.6889 356.952 47.8864 357.214 48.1534C357.478 48.4176 357.687 48.7514 357.84 49.1548C357.993 49.5554 358.07 50.0298 358.07 50.5781V50.9531H352.956V50.2841H357.295C357.295 49.8636 357.209 49.4858 357.039 49.1506C356.871 48.8125 356.637 48.5455 356.336 48.3494C356.037 48.1534 355.692 48.0554 355.3 48.0554C354.885 48.0554 354.52 48.1662 354.205 48.3878C353.89 48.6094 353.643 48.902 353.464 49.2656C353.287 49.6293 353.198 50.027 353.195 50.4588V50.8594C353.195 51.3793 353.285 51.8338 353.464 52.223C353.645 52.6094 353.903 52.9091 354.235 53.1222C354.567 53.3352 354.961 53.4418 355.415 53.4418C355.725 53.4418 355.996 53.3935 356.229 53.2969C356.465 53.2003 356.662 53.071 356.822 52.9091C356.983 52.7443 357.106 52.5639 357.188 52.3679L357.908 52.6023C357.809 52.8778 357.645 53.1321 357.418 53.3651C357.194 53.598 356.912 53.7855 356.574 53.9276C356.239 54.0668 355.853 54.1364 355.415 54.1364Z" fill="black"/>
<path d="M244.217 130.136C243.652 130.136 243.152 129.993 242.717 129.706C242.286 129.419 241.947 129.023 241.703 128.517C241.459 128.009 241.337 127.422 241.337 126.757C241.337 126.087 241.459 125.497 241.703 124.989C241.947 124.477 242.286 124.08 242.717 123.795C243.152 123.509 243.652 123.365 244.217 123.365C244.783 123.365 245.281 123.509 245.713 123.795C246.145 124.082 246.483 124.48 246.727 124.989C246.974 125.497 247.098 126.087 247.098 126.757C247.098 127.422 246.976 128.009 246.732 128.517C246.487 129.023 246.148 129.419 245.713 129.706C245.281 129.993 244.783 130.136 244.217 130.136ZM244.217 129.442C244.672 129.442 245.057 129.32 245.372 129.075C245.688 128.831 245.926 128.506 246.088 128.099C246.253 127.693 246.335 127.246 246.335 126.757C246.335 126.268 246.253 125.82 246.088 125.411C245.926 125.001 245.688 124.673 245.372 124.426C245.057 124.179 244.672 124.055 244.217 124.055C243.766 124.055 243.381 124.179 243.062 124.426C242.747 124.673 242.507 125.001 242.342 125.411C242.18 125.82 242.099 126.268 242.099 126.757C242.099 127.246 242.18 127.693 242.342 128.099C242.507 128.506 242.747 128.831 243.062 129.075C243.378 129.32 243.763 129.442 244.217 129.442ZM248.772 130V123.455H253.728V130H252.965V124.17H249.534V130H248.772ZM258.382 130.136C257.771 130.136 257.243 129.994 256.797 129.71C256.351 129.423 256.006 129.027 255.761 128.521C255.52 128.013 255.399 127.428 255.399 126.766C255.399 126.107 255.52 125.521 255.761 125.01C256.006 124.496 256.342 124.094 256.771 123.804C257.203 123.511 257.702 123.365 258.267 123.365C258.622 123.365 258.964 123.43 259.294 123.561C259.624 123.689 259.919 123.886 260.18 124.153C260.445 124.418 260.653 124.751 260.807 125.155C260.96 125.555 261.037 126.03 261.037 126.578V126.953H255.923V126.284H260.261C260.261 125.864 260.176 125.486 260.006 125.151C259.838 124.812 259.604 124.545 259.303 124.349C259.004 124.153 258.659 124.055 258.267 124.055C257.852 124.055 257.487 124.166 257.172 124.388C256.857 124.609 256.609 124.902 256.43 125.266C256.254 125.629 256.165 126.027 256.162 126.459V126.859C256.162 127.379 256.251 127.834 256.43 128.223C256.612 128.609 256.869 128.909 257.202 129.122C257.534 129.335 257.928 129.442 258.382 129.442C258.692 129.442 258.963 129.393 259.196 129.297C259.432 129.2 259.629 129.071 259.788 128.909C259.95 128.744 260.072 128.564 260.155 128.368L260.875 128.602C260.776 128.878 260.612 129.132 260.385 129.365C260.161 129.598 259.879 129.786 259.541 129.928C259.206 130.067 258.82 130.136 258.382 130.136ZM262.708 132.455V123.455H263.446V124.703H263.535C263.626 124.507 263.751 124.307 263.91 124.102C264.069 123.895 264.279 123.72 264.541 123.578C264.805 123.436 265.137 123.365 265.538 123.365C266.078 123.365 266.549 123.507 266.953 123.791C267.359 124.072 267.674 124.467 267.899 124.976C268.126 125.482 268.24 126.071 268.24 126.744C268.24 127.42 268.126 128.013 267.899 128.521C267.674 129.03 267.359 129.426 266.953 129.71C266.549 129.994 266.081 130.136 265.547 130.136C265.152 130.136 264.821 130.065 264.554 129.923C264.289 129.781 264.075 129.607 263.91 129.399C263.748 129.189 263.623 128.984 263.535 128.786H263.467V132.455H262.708ZM263.458 126.732C263.458 127.26 263.537 127.729 263.693 128.138C263.852 128.544 264.079 128.864 264.375 129.097C264.673 129.327 265.034 129.442 265.457 129.442C265.892 129.442 266.258 129.322 266.556 129.084C266.858 128.842 267.086 128.517 267.243 128.108C267.402 127.699 267.481 127.24 267.481 126.732C267.481 126.229 267.403 125.776 267.247 125.372C267.093 124.969 266.866 124.649 266.565 124.413C266.264 124.175 265.895 124.055 265.457 124.055C265.031 124.055 264.669 124.17 264.37 124.401C264.072 124.628 263.845 124.943 263.689 125.347C263.535 125.747 263.458 126.209 263.458 126.732ZM271.732 130.149C271.337 130.149 270.976 130.072 270.65 129.919C270.323 129.763 270.063 129.538 269.87 129.246C269.676 128.95 269.58 128.592 269.58 128.172C269.58 127.848 269.641 127.575 269.763 127.354C269.885 127.132 270.059 126.95 270.283 126.808C270.507 126.666 270.773 126.554 271.08 126.472C271.387 126.389 271.725 126.325 272.094 126.28C272.461 126.234 272.77 126.195 273.023 126.161C273.279 126.126 273.473 126.072 273.607 125.999C273.74 125.925 273.807 125.805 273.807 125.641V125.487C273.807 125.041 273.674 124.69 273.407 124.435C273.142 124.176 272.762 124.047 272.265 124.047C271.793 124.047 271.408 124.151 271.11 124.358C270.814 124.565 270.607 124.81 270.488 125.091L269.767 124.831C269.915 124.473 270.12 124.187 270.381 123.974C270.642 123.759 270.935 123.604 271.259 123.51C271.583 123.413 271.911 123.365 272.243 123.365C272.493 123.365 272.753 123.398 273.023 123.463C273.296 123.528 273.549 123.642 273.782 123.804C274.015 123.963 274.203 124.186 274.348 124.473C274.493 124.757 274.566 125.118 274.566 125.555V130H273.807V128.964H273.76C273.669 129.158 273.534 129.345 273.355 129.527C273.176 129.709 272.952 129.858 272.682 129.974C272.412 130.091 272.096 130.149 271.732 130.149ZM271.834 129.455C272.238 129.455 272.587 129.365 272.882 129.186C273.178 129.007 273.405 128.77 273.564 128.474C273.726 128.176 273.807 127.848 273.807 127.49V126.544C273.75 126.598 273.655 126.646 273.522 126.689C273.391 126.732 273.239 126.77 273.066 126.804C272.895 126.835 272.725 126.862 272.554 126.885C272.384 126.908 272.23 126.928 272.094 126.945C271.725 126.99 271.409 127.061 271.148 127.158C270.887 127.254 270.686 127.388 270.547 127.558C270.408 127.726 270.338 127.942 270.338 128.206C270.338 128.604 270.48 128.912 270.765 129.131C271.049 129.347 271.405 129.455 271.834 129.455ZM275.667 124.17V123.455H280.781V124.17H278.616V130H277.858V124.17H275.667ZM284.588 130.136C284.023 130.136 283.523 129.993 283.088 129.706C282.657 129.419 282.319 129.023 282.074 128.517C281.83 128.009 281.708 127.422 281.708 126.757C281.708 126.087 281.83 125.497 282.074 124.989C282.319 124.477 282.657 124.08 283.088 123.795C283.523 123.509 284.023 123.365 284.588 123.365C285.154 123.365 285.652 123.509 286.084 123.795C286.516 124.082 286.854 124.48 287.098 124.989C287.346 125.497 287.469 126.087 287.469 126.757C287.469 127.422 287.347 128.009 287.103 128.517C286.858 129.023 286.519 129.419 286.084 129.706C285.652 129.993 285.154 130.136 284.588 130.136ZM284.588 129.442C285.043 129.442 285.428 129.32 285.743 129.075C286.059 128.831 286.297 128.506 286.459 128.099C286.624 127.693 286.706 127.246 286.706 126.757C286.706 126.268 286.624 125.82 286.459 125.411C286.297 125.001 286.059 124.673 285.743 124.426C285.428 124.179 285.043 124.055 284.588 124.055C284.137 124.055 283.752 124.179 283.434 124.426C283.118 124.673 282.878 125.001 282.713 125.411C282.551 125.82 282.471 126.268 282.471 126.757C282.471 127.246 282.551 127.693 282.713 128.099C282.878 128.506 283.118 128.831 283.434 129.075C283.749 129.32 284.134 129.442 284.588 129.442ZM289.134 132.455V123.455H289.871V124.703H289.961C290.052 124.507 290.177 124.307 290.336 124.102C290.495 123.895 290.705 123.72 290.967 123.578C291.231 123.436 291.563 123.365 291.964 123.365C292.504 123.365 292.975 123.507 293.379 123.791C293.785 124.072 294.1 124.467 294.325 124.976C294.552 125.482 294.665 126.071 294.665 126.744C294.665 127.42 294.552 128.013 294.325 128.521C294.1 129.03 293.785 129.426 293.379 129.71C292.975 129.994 292.506 130.136 291.972 130.136C291.577 130.136 291.246 130.065 290.979 129.923C290.715 129.781 290.501 129.607 290.336 129.399C290.174 129.189 290.049 128.984 289.961 128.786H289.893V132.455H289.134ZM289.884 126.732C289.884 127.26 289.962 127.729 290.119 128.138C290.278 128.544 290.505 128.864 290.8 129.097C291.099 129.327 291.46 129.442 291.883 129.442C292.317 129.442 292.684 129.322 292.982 129.084C293.283 128.842 293.512 128.517 293.668 128.108C293.827 127.699 293.907 127.24 293.907 126.732C293.907 126.229 293.829 125.776 293.673 125.372C293.519 124.969 293.292 124.649 292.991 124.413C292.69 124.175 292.32 124.055 291.883 124.055C291.457 124.055 291.094 124.17 290.796 124.401C290.498 124.628 290.271 124.943 290.114 125.347C289.961 125.747 289.884 126.209 289.884 126.732ZM227.69 145V138.455H232.646V145H231.883V139.17H228.452V145H227.69ZM234.654 147.455V138.455H235.391V139.703H235.48C235.571 139.507 235.696 139.307 235.855 139.102C236.015 138.895 236.225 138.72 236.486 138.578C236.75 138.436 237.083 138.365 237.483 138.365C238.023 138.365 238.495 138.507 238.898 138.791C239.304 139.072 239.62 139.467 239.844 139.976C240.071 140.482 240.185 141.071 240.185 141.744C240.185 142.42 240.071 143.013 239.844 143.521C239.62 144.03 239.304 144.426 238.898 144.71C238.495 144.994 238.026 145.136 237.492 145.136C237.097 145.136 236.766 145.065 236.499 144.923C236.235 144.781 236.02 144.607 235.855 144.399C235.694 144.189 235.569 143.984 235.48 143.786H235.412V147.455H234.654ZM235.404 141.732C235.404 142.26 235.482 142.729 235.638 143.138C235.797 143.544 236.025 143.864 236.32 144.097C236.618 144.327 236.979 144.442 237.402 144.442C237.837 144.442 238.203 144.322 238.502 144.084C238.803 143.842 239.032 143.517 239.188 143.108C239.347 142.699 239.426 142.24 239.426 141.732C239.426 141.229 239.348 140.776 239.192 140.372C239.039 139.969 238.811 139.649 238.51 139.413C238.209 139.175 237.84 139.055 237.402 139.055C236.976 139.055 236.614 139.17 236.316 139.401C236.017 139.628 235.79 139.943 235.634 140.347C235.48 140.747 235.404 141.209 235.404 141.732ZM242.608 143.922L246.064 138.455H246.971V145H246.213V139.533L242.77 145H241.849V138.455H242.608V143.922ZM251.531 145.136C250.946 145.136 250.436 144.99 250.001 144.697C249.569 144.405 249.234 144.004 248.995 143.496C248.757 142.987 248.637 142.408 248.637 141.757C248.637 141.101 248.758 140.517 249 140.006C249.244 139.494 249.582 139.094 250.014 138.804C250.446 138.511 250.947 138.365 251.518 138.365C251.956 138.365 252.352 138.45 252.707 138.621C253.062 138.788 253.355 139.026 253.585 139.332C253.818 139.636 253.964 139.991 254.024 140.398H253.257C253.177 140.028 252.985 139.713 252.681 139.452C252.38 139.187 251.997 139.055 251.531 139.055C251.113 139.055 250.744 139.169 250.423 139.396C250.102 139.621 249.85 139.935 249.669 140.338C249.49 140.739 249.4 141.203 249.4 141.732C249.4 142.263 249.488 142.733 249.664 143.142C249.841 143.548 250.088 143.866 250.406 144.097C250.727 144.327 251.102 144.442 251.531 144.442C251.821 144.442 252.085 144.388 252.324 144.28C252.565 144.169 252.767 144.013 252.929 143.811C253.093 143.609 253.204 143.369 253.261 143.091H254.028C253.971 143.486 253.831 143.838 253.606 144.148C253.385 144.455 253.096 144.696 252.741 144.872C252.389 145.048 251.985 145.136 251.531 145.136ZM255.654 145V138.455H258.232C258.928 138.455 259.476 138.605 259.877 138.906C260.28 139.207 260.482 139.614 260.482 140.125C260.482 140.514 260.37 140.825 260.145 141.058C259.921 141.291 259.62 141.456 259.242 141.553C259.495 141.595 259.729 141.687 259.945 141.83C260.164 141.972 260.341 142.159 260.478 142.392C260.614 142.625 260.682 142.903 260.682 143.227C260.682 143.568 260.597 143.872 260.426 144.139C260.256 144.406 260.016 144.616 259.706 144.77C259.397 144.923 259.03 145 258.607 145H255.654ZM256.378 144.297H258.607C259.007 144.297 259.324 144.195 259.557 143.99C259.79 143.783 259.907 143.507 259.907 143.163C259.907 142.797 259.796 142.504 259.574 142.286C259.355 142.064 259.061 141.953 258.692 141.953H256.378V144.297ZM256.378 141.28H258.279C258.574 141.28 258.83 141.234 259.046 141.143C259.262 141.053 259.428 140.925 259.544 140.76C259.664 140.592 259.722 140.396 259.719 140.172C259.719 139.851 259.588 139.602 259.327 139.426C259.066 139.247 258.701 139.158 258.232 139.158H256.378V141.28ZM264.173 145.149C263.778 145.149 263.418 145.072 263.091 144.919C262.764 144.763 262.504 144.538 262.311 144.246C262.118 143.95 262.021 143.592 262.021 143.172C262.021 142.848 262.082 142.575 262.205 142.354C262.327 142.132 262.5 141.95 262.724 141.808C262.949 141.666 263.214 141.554 263.521 141.472C263.828 141.389 264.166 141.325 264.536 141.28C264.902 141.234 265.212 141.195 265.464 141.161C265.72 141.126 265.915 141.072 266.048 140.999C266.182 140.925 266.249 140.805 266.249 140.641V140.487C266.249 140.041 266.115 139.69 265.848 139.435C265.584 139.176 265.203 139.047 264.706 139.047C264.234 139.047 263.849 139.151 263.551 139.358C263.256 139.565 263.048 139.81 262.929 140.091L262.209 139.831C262.357 139.473 262.561 139.187 262.822 138.974C263.084 138.759 263.376 138.604 263.7 138.51C264.024 138.413 264.352 138.365 264.685 138.365C264.935 138.365 265.195 138.398 265.464 138.463C265.737 138.528 265.99 138.642 266.223 138.804C266.456 138.963 266.645 139.186 266.79 139.473C266.935 139.757 267.007 140.118 267.007 140.555V145H266.249V143.964H266.202C266.111 144.158 265.976 144.345 265.797 144.527C265.618 144.709 265.393 144.858 265.124 144.974C264.854 145.091 264.537 145.149 264.173 145.149ZM264.276 144.455C264.679 144.455 265.028 144.365 265.324 144.186C265.619 144.007 265.847 143.77 266.006 143.474C266.168 143.176 266.249 142.848 266.249 142.49V141.544C266.192 141.598 266.097 141.646 265.963 141.689C265.832 141.732 265.68 141.77 265.507 141.804C265.337 141.835 265.166 141.862 264.996 141.885C264.825 141.908 264.672 141.928 264.536 141.945C264.166 141.99 263.851 142.061 263.589 142.158C263.328 142.254 263.128 142.388 262.989 142.558C262.849 142.726 262.78 142.942 262.78 143.206C262.78 143.604 262.922 143.912 263.206 144.131C263.49 144.347 263.847 144.455 264.276 144.455ZM269.783 143.922L273.239 138.455H274.147V145H273.388V139.533L269.945 145H269.025V138.455H269.783V143.922ZM276.15 145V138.455H278.728C279.424 138.455 279.972 138.605 280.373 138.906C280.776 139.207 280.978 139.614 280.978 140.125C280.978 140.514 280.866 140.825 280.641 141.058C280.417 141.291 280.116 141.456 279.738 141.553C279.991 141.595 280.225 141.687 280.441 141.83C280.66 141.972 280.837 142.159 280.974 142.392C281.11 142.625 281.178 142.903 281.178 143.227C281.178 143.568 281.093 143.872 280.923 144.139C280.752 144.406 280.512 144.616 280.202 144.77C279.893 144.923 279.526 145 279.103 145H276.15ZM276.874 144.297H279.103C279.504 144.297 279.82 144.195 280.053 143.99C280.286 143.783 280.403 143.507 280.403 143.163C280.403 142.797 280.292 142.504 280.07 142.286C279.852 142.064 279.558 141.953 279.188 141.953H276.874V144.297ZM276.874 141.28H278.775C279.07 141.28 279.326 141.234 279.542 141.143C279.758 141.053 279.924 140.925 280.04 140.76C280.16 140.592 280.218 140.396 280.215 140.172C280.215 139.851 280.085 139.602 279.823 139.426C279.562 139.247 279.197 139.158 278.728 139.158H276.874V141.28ZM284.669 145.149C284.275 145.149 283.914 145.072 283.587 144.919C283.26 144.763 283 144.538 282.807 144.246C282.614 143.95 282.517 143.592 282.517 143.172C282.517 142.848 282.578 142.575 282.701 142.354C282.823 142.132 282.996 141.95 283.221 141.808C283.445 141.666 283.711 141.554 284.017 141.472C284.324 141.389 284.662 141.325 285.032 141.28C285.398 141.234 285.708 141.195 285.961 141.161C286.216 141.126 286.411 141.072 286.544 140.999C286.678 140.925 286.745 140.805 286.745 140.641V140.487C286.745 140.041 286.611 139.69 286.344 139.435C286.08 139.176 285.699 139.047 285.202 139.047C284.73 139.047 284.346 139.151 284.047 139.358C283.752 139.565 283.544 139.81 283.425 140.091L282.705 139.831C282.853 139.473 283.057 139.187 283.319 138.974C283.58 138.759 283.873 138.604 284.196 138.51C284.52 138.413 284.848 138.365 285.181 138.365C285.431 138.365 285.691 138.398 285.961 138.463C286.233 138.528 286.486 138.642 286.719 138.804C286.952 138.963 287.141 139.186 287.286 139.473C287.431 139.757 287.503 140.118 287.503 140.555V145H286.745V143.964H286.698C286.607 144.158 286.472 144.345 286.293 144.527C286.114 144.709 285.89 144.858 285.62 144.974C285.35 145.091 285.033 145.149 284.669 145.149ZM284.772 144.455C285.175 144.455 285.525 144.365 285.82 144.186C286.115 144.007 286.343 143.77 286.502 143.474C286.664 143.176 286.745 142.848 286.745 142.49V141.544C286.688 141.598 286.593 141.646 286.459 141.689C286.328 141.732 286.176 141.77 286.003 141.804C285.833 141.835 285.662 141.862 285.492 141.885C285.321 141.908 285.168 141.928 285.032 141.945C284.662 141.99 284.347 142.061 284.086 142.158C283.824 142.254 283.624 142.388 283.485 142.558C283.346 142.726 283.276 142.942 283.276 143.206C283.276 143.604 283.418 143.912 283.702 144.131C283.986 144.347 284.343 144.455 284.772 144.455ZM293.94 141.374V142.089H290.092V141.374H293.94ZM290.279 138.455V145H289.521V138.455H290.279ZM294.498 138.455V145H293.74V138.455H294.498ZM297.276 143.922L300.732 138.455H301.639V145H300.881V139.533L297.438 145H296.517V138.455H297.276V143.922ZM307.58 145V139.158H305.777C305.308 139.161 304.952 139.259 304.707 139.452C304.466 139.645 304.345 139.933 304.345 140.317C304.345 140.7 304.46 140.989 304.69 141.182C304.92 141.372 305.256 141.467 305.696 141.467H307.793V142.183H305.696C305.244 142.183 304.861 142.111 304.545 141.966C304.233 141.821 303.994 141.609 303.83 141.331C303.665 141.053 303.582 140.714 303.582 140.317C303.582 139.916 303.666 139.578 303.834 139.303C304.004 139.024 304.253 138.814 304.58 138.672C304.909 138.527 305.308 138.455 305.777 138.455H308.304V145H307.58ZM303.169 145L305.053 141.744H305.884L304 145H303.169Z" fill="black"/>
</svg>
